<?xml version="1.0" encoding="utf-8"?>
<svg xmlns="http://www.w3.org/2000/svg" style="margin: auto; background: rgba(0, 0, 0, 0) none repeat scroll 0% 0%; display: block; shape-rendering: auto;" width="280" height="250" preserveAspectRatio="xMidYMid">
<style type="text/css">
  text {
    text-anchor: middle; font-size: 25px; opacity: 0;
  }
</style>
<g style="transform-origin: 140px 125px 0px; transform: scale(0.675676);">
<g transform="translate(140,125)">
  <g transform="translate(0,0)"><g class="path" style="transform: scale(0.91); transform-origin: -177.172px -1.67188px 0px; animation: 1s linear -0.623333s infinite normal forwards running breath-29d8a753-a43a-4bdb-8b5f-85b4da8213f1;"><path d="M26.58-19.57L26.58-19.57L23.49-18.27L23.49-18.27Q23.13-19.44 22.52-20.42L22.52-20.42L22.52-20.42Q21.91-21.39 21.07-22.09L21.07-22.09L21.07-22.09Q20.23-22.78 19.17-23.17L19.17-23.17L19.17-23.17Q18.10-23.56 16.84-23.56L16.84-23.56L16.84-23.56Q15.48-23.56 14.35-23.11L14.35-23.11L14.35-23.11Q13.22-22.66 12.33-21.89L12.33-21.89L12.33-21.89Q11.44-21.12 10.77-20.09L10.77-20.09L10.77-20.09Q10.10-19.06 9.66-17.89L9.66-17.89L9.66-17.89Q9.21-16.73 8.99-15.48L8.99-15.48L8.99-15.48Q8.76-14.24 8.76-13.04L8.76-13.04L8.76-13.04Q8.76-11.15 9.20-9.27L9.20-9.27L9.20-9.27Q9.65-7.39 10.61-5.89L10.61-5.89L10.61-5.89Q11.58-4.39 13.12-3.46L13.12-3.46L13.12-3.46Q14.65-2.53 16.84-2.53L16.84-2.53L16.84-2.53Q18.03-2.53 18.70-3.06L18.70-3.06L18.70-3.06Q19.37-3.60 19.37-4.93L19.37-4.93L19.37-12.92L26.54-12.92L26.54 0L24.46 0L23.20-2.04L23.20-2.04Q21.46-0.72 19.38-0.10L19.38-0.10L19.38-0.10Q17.29 0.52 15.12 0.52L15.12 0.52L15.12 0.52Q13.21 0.52 11.45 0.05L11.45 0.05L11.45 0.05Q9.68-0.42 8.17-1.28L8.17-1.28L8.17-1.28Q6.65-2.15 5.41-3.38L5.41-3.38L5.41-3.38Q4.17-4.61 3.30-6.11L3.30-6.11L3.30-6.11Q2.42-7.61 1.94-9.37L1.94-9.37L1.94-9.37Q1.46-11.13 1.46-13.04L1.46-13.04L1.46-13.04Q1.46-14.96 1.94-16.72L1.94-16.72L1.94-16.72Q2.42-18.48 3.30-19.99L3.30-19.99L3.30-19.99Q4.17-21.50 5.41-22.73L5.41-22.73L5.41-22.73Q6.65-23.96 8.17-24.82L8.17-24.82L8.17-24.82Q9.68-25.69 11.45-26.16L11.45-26.16L11.45-26.16Q13.21-26.63 15.12-26.63L15.12-26.63L15.12-26.63Q16.96-26.63 18.73-26.20L18.73-26.20L18.73-26.20Q20.49-25.76 22.00-24.89L22.00-24.89L22.00-24.89Q23.52-24.01 24.71-22.68L24.71-22.68L24.71-22.68Q25.89-21.35 26.58-19.57" fill="#65106e" stroke="none" stroke-width="none" transform="translate(-191.19164276123047,11.382408159044056)" style="fill: rgb(101, 16, 110);"></path></g><g class="path" style="transform: scale(0.91); transform-origin: -150.572px 1.19141px 0px; animation: 1s linear -0.586667s infinite normal forwards running breath-29d8a753-a43a-4bdb-8b5f-85b4da8213f1;"><path d="M29.95-8.92L29.95-8.92L29.95-8.92Q29.95-10.35 30.20-11.89L30.20-11.89L30.20-11.89Q30.44-13.42 30.90-14.96L30.90-14.96L30.90-14.96Q31.36-16.49 32.01-17.99L32.01-17.99L32.01-17.99Q32.66-19.49 33.48-20.87L33.48-20.87L37.94-20.87L37.94-20.87Q37.49-19.51 37.14-18.04L37.14-18.04L37.14-18.04Q36.78-16.57 36.54-15.09L36.54-15.09L36.54-15.09Q36.30-13.62 36.16-12.21L36.16-12.21L36.16-12.21Q36.02-10.80 36.02-9.59L36.02-9.59L36.02-9.59Q36.02-8.89 36.09-8.08L36.09-8.08L36.09-8.08Q36.15-7.28 36.31-6.48L36.31-6.48L36.31-6.48Q36.48-5.67 36.77-4.93L36.77-4.93L36.77-4.93Q37.07-4.19 37.54-3.62L37.54-3.62L37.54-3.62Q38.01-3.05 38.69-2.72L38.69-2.72L38.69-2.72Q39.37-2.38 40.29-2.38L40.29-2.38L40.29-2.38Q41.19-2.38 41.91-2.79L41.91-2.79L41.91-2.79Q42.62-3.20 43.16-3.86L43.16-3.86L43.16-3.86Q43.70-4.52 44.08-5.37L44.08-5.37L44.08-5.37Q44.46-6.21 44.71-7.11L44.71-7.11L44.71-7.11Q44.95-8.00 45.07-8.86L45.07-8.86L45.07-8.86Q45.18-9.72 45.18-10.41L45.18-10.41L45.18-20.87L51.29-20.87L51.29 0L48.94 0L46.14-4.86L46.14-4.86Q45.62-3.65 44.87-2.66L44.87-2.66L44.87-2.66Q44.12-1.68 43.16-0.98L43.16-0.98L43.16-0.98Q42.20-0.27 41.04 0.11L41.04 0.11L41.04 0.11Q39.87 0.49 38.52 0.49L38.52 0.49L38.52 0.49Q36.35 0.49 34.74-0.22L34.74-0.22L34.74-0.22Q33.13-0.92 32.07-2.17L32.07-2.17L32.07-2.17Q31.00-3.41 30.48-5.14L30.48-5.14L30.48-5.14Q29.95-6.87 29.95-8.92" fill="#65106e" stroke="none" stroke-width="none" transform="translate(-191.19164276123047,11.382408159044056)" style="fill: rgb(255, 255, 255);"></path></g><g class="path" style="transform: scale(0.91); transform-origin: -131.727px -14.5117px 0px; animation: 1s linear -0.55s infinite normal forwards running breath-29d8a753-a43a-4bdb-8b5f-85b4da8213f1;"><path d="M62.80-25.91L62.80-25.91L62.80-25.91Q62.80-25.22 62.54-24.61L62.54-24.61L62.54-24.61Q62.27-23.99 61.82-23.54L61.82-23.54L61.82-23.54Q61.37-23.09 60.76-22.83L60.76-22.83L60.76-22.83Q60.14-22.56 59.46-22.56L59.46-22.56L59.46-22.56Q58.77-22.56 58.16-22.83L58.16-22.83L58.16-22.83Q57.56-23.09 57.11-23.54L57.11-23.54L57.11-23.54Q56.66-23.99 56.39-24.61L56.39-24.61L56.39-24.61Q56.13-25.22 56.13-25.91L56.13-25.91L56.13-25.91Q56.13-26.59 56.39-27.20L56.39-27.20L56.39-27.20Q56.66-27.80 57.11-28.26L57.11-28.26L57.11-28.26Q57.56-28.71 58.16-28.97L58.16-28.97L58.16-28.97Q58.77-29.23 59.46-29.23L59.46-29.23L59.46-29.23Q60.14-29.23 60.76-28.97L60.76-28.97L60.76-28.97Q61.37-28.71 61.82-28.26L61.82-28.26L61.82-28.26Q62.27-27.80 62.54-27.20L62.54-27.20L62.54-27.20Q62.80-26.59 62.80-25.91" fill="#65106e" stroke="none" stroke-width="none" transform="translate(-191.19164276123047,11.382408159044056)" style="fill: rgb(101, 16, 110);"></path></g><g class="path" style="transform: scale(0.91); transform-origin: -131.727px 0.957031px 0px; animation: 1s linear -0.513333s infinite normal forwards running breath-29d8a753-a43a-4bdb-8b5f-85b4da8213f1;"><path d="M62.53-20.85L62.53 0L56.40 0L56.40-20.85L62.53-20.85" fill="#65106e" stroke="none" stroke-width="none" transform="translate(-191.19164276123047,11.382408159044056)" style="fill: rgb(255, 255, 255);"></path></g><g class="path" style="transform: scale(0.91); transform-origin: -120.496px -3.85742px 0px; animation: 1s linear -0.476667s infinite normal forwards running breath-29d8a753-a43a-4bdb-8b5f-85b4da8213f1;"><path d="M73.75-24.14L73.75 0L67.64 0L67.64-30.48L69.99-30.48L73.75-24.14" fill="#65106e" stroke="none" stroke-width="none" transform="translate(-191.19164276123047,11.382408159044056)" style="fill: rgb(101, 16, 110);"></path></g><g class="path" style="transform: scale(0.91); transform-origin: -109.297px -3.85742px 0px; animation: 1s linear -0.44s infinite normal forwards running breath-29d8a753-a43a-4bdb-8b5f-85b4da8213f1;"><path d="M84.95-24.14L84.95 0L78.84 0L78.84-30.48L81.19-30.48L84.95-24.14" fill="#65106e" stroke="none" stroke-width="none" transform="translate(-191.19164276123047,11.382408159044056)" style="fill: rgb(255, 255, 255);"></path></g><g class="path" style="transform: scale(0.91); transform-origin: -91.7227px 0.90625px 0px; animation: 1s linear -0.403333s infinite normal forwards running breath-29d8a753-a43a-4bdb-8b5f-85b4da8213f1;"><path d="M95.07-9.90L95.07-9.90L95.07-9.90Q96.19-9.65 97.31-9.50L97.31-9.50L97.31-9.50Q98.43-9.36 99.56-9.36L99.56-9.36L99.56-9.36Q100.76-9.36 101.78-9.58L101.78-9.58L101.78-9.58Q102.80-9.81 103.55-10.34L103.55-10.34L103.55-10.34Q104.30-10.88 104.73-11.76L104.73-11.76L104.73-11.76Q105.16-12.65 105.16-13.97L105.16-13.97L105.16-13.97Q105.16-15.03 104.88-15.92L104.88-15.92L104.88-15.92Q104.59-16.80 104.02-17.43L104.02-17.43L104.02-17.43Q103.45-18.07 102.62-18.42L102.62-18.42L102.62-18.42Q101.79-18.77 100.68-18.77L100.68-18.77L100.68-18.77Q99.65-18.77 98.83-18.39L98.83-18.39L98.83-18.39Q98.01-18.01 97.39-17.37L97.39-17.37L97.39-17.37Q96.76-16.73 96.32-15.88L96.32-15.88L96.32-15.88Q95.88-15.03 95.59-14.11L95.59-14.11L95.59-14.11Q95.30-13.19 95.17-12.25L95.17-12.25L95.17-12.25Q95.05-11.31 95.05-10.48L95.05-10.48L95.05-10.48Q95.05-10.33 95.05-10.19L95.05-10.19L95.05-10.19Q95.05-10.04 95.07-9.90zM110.11-14.02L110.11-14.02L110.11-14.02Q110.11-12.74 109.70-11.73L109.70-11.73L109.70-11.73Q109.28-10.73 108.57-9.97L108.57-9.97L108.57-9.97Q107.86-9.21 106.92-8.69L106.92-8.69L106.92-8.69Q105.98-8.17 104.91-7.83L104.91-7.83L104.91-7.83Q103.85-7.50 102.72-7.35L102.72-7.35L102.72-7.35Q101.59-7.21 100.52-7.21L100.52-7.21L100.52-7.21Q99.17-7.21 97.85-7.40L97.85-7.40L97.85-7.40Q96.53-7.59 95.25-8.00L95.25-8.00L95.25-8.00Q95.44-6.81 95.88-5.74L95.88-5.74L95.88-5.74Q96.31-4.66 97.03-3.86L97.03-3.86L97.03-3.86Q97.76-3.05 98.81-2.58L98.81-2.58L98.81-2.58Q99.87-2.11 101.32-2.11L101.32-2.11L101.32-2.11Q102.27-2.11 103.14-2.40L103.14-2.40L103.14-2.40Q104.01-2.69 104.73-3.22L104.73-3.22L104.73-3.22Q105.45-3.74 106.00-4.46L106.00-4.46L106.00-4.46Q106.56-5.19 106.90-6.07L106.90-6.07L109.54-5.09L109.54-5.09Q108.94-3.67 107.90-2.63L107.90-2.63L107.90-2.63Q106.86-1.59 105.55-0.91L105.55-0.91L105.55-0.91Q104.24-0.23 102.77 0.09L102.77 0.09L102.77 0.09Q101.30 0.42 99.85 0.42L99.85 0.42L99.85 0.42Q97.47 0.42 95.44-0.39L95.44-0.39L95.44-0.39Q93.42-1.19 91.96-2.64L91.96-2.64L91.96-2.64Q90.49-4.08 89.66-6.09L89.66-6.09L89.66-6.09Q88.83-8.09 88.83-10.48L88.83-10.48L88.83-10.48Q88.83-12.86 89.66-14.87L89.66-14.87L89.66-14.87Q90.49-16.87 91.96-18.32L91.96-18.32L91.96-18.32Q93.42-19.76 95.44-20.57L95.44-20.57L95.44-20.57Q97.47-21.37 99.85-21.37L99.85-21.37L99.85-21.37Q101.01-21.37 102.22-21.21L102.22-21.21L102.22-21.21Q103.43-21.05 104.57-20.70L104.57-20.70L104.57-20.70Q105.71-20.34 106.72-19.78L106.72-19.78L106.72-19.78Q107.73-19.22 108.48-18.40L108.48-18.40L108.48-18.40Q109.23-17.58 109.67-16.49L109.67-16.49L109.67-16.49Q110.11-15.41 110.11-14.02" fill="#65106e" stroke="none" stroke-width="none" transform="translate(-191.19164276123047,11.382408159044056)" style="fill: rgb(101, 16, 110);"></path></g><g class="path" style="transform: scale(0.91); transform-origin: -68.3926px 0.697266px 0px; animation: 1s linear -0.366667s infinite normal forwards running breath-29d8a753-a43a-4bdb-8b5f-85b4da8213f1;"><path d="M131.67-19.02L131.67-19.02L128.24-13.33L128.24-13.33Q128.02-14.06 127.68-14.96L127.68-14.96L127.68-14.96Q127.33-15.86 126.83-16.65L126.83-16.65L126.83-16.65Q126.32-17.43 125.62-17.97L125.62-17.97L125.62-17.97Q124.91-18.50 123.99-18.50L123.99-18.50L123.99-18.50Q123.14-18.50 122.52-18.07L122.52-18.07L122.52-18.07Q121.89-17.63 121.46-16.94L121.46-16.94L121.46-16.94Q121.03-16.24 120.75-15.37L120.75-15.37L120.75-15.37Q120.47-14.49 120.31-13.59L120.31-13.59L120.31-13.59Q120.16-12.70 120.11-11.88L120.11-11.88L120.11-11.88Q120.05-11.06 120.05-10.46L120.05-10.46L120.05 0L113.93 0L113.93-20.87L116.28-20.87L118.75-16.01L118.75-16.01Q119.26-17.18 119.91-18.17L119.91-18.17L119.91-18.17Q120.56-19.15 121.41-19.86L121.41-19.86L121.41-19.86Q122.26-20.58 123.33-20.98L123.33-20.98L123.33-20.98Q124.41-21.37 125.76-21.37L125.76-21.37L125.76-21.37Q126.46-21.37 127.33-21.26L127.33-21.26L127.33-21.26Q128.20-21.14 129.03-20.86L129.03-20.86L129.03-20.86Q129.86-20.58 130.57-20.13L130.57-20.13L130.57-20.13Q131.27-19.67 131.67-19.02" fill="#65106e" stroke="none" stroke-width="none" transform="translate(-191.19164276123047,11.382408159044056)" style="fill: rgb(255, 255, 255);"></path></g><g class="path" style="transform: scale(0.91); transform-origin: -40.832px 2.91797px 0px; animation: 1s linear -0.33s infinite normal forwards running breath-29d8a753-a43a-4bdb-8b5f-85b4da8213f1;"><path d="M166.50-12.18L166.50-12.18L166.50-12.18Q166.50-10.03 165.99-7.70L165.99-7.70L165.99-7.70Q165.49-5.37 164.58-3.15L164.58-3.15L164.58-3.15Q163.66-0.94 162.38 1.03L162.38 1.03L162.38 1.03Q161.10 3.00 159.53 4.44L159.53 4.44L157.23 3.20L157.23 3.20Q157.76 2.26 158.19 1.08L158.19 1.08L158.19 1.08Q158.62-0.09 158.98-1.39L158.98-1.39L158.98-1.39Q159.35-2.69 159.62-4.06L159.62-4.06L159.62-4.06Q159.89-5.44 160.08-6.80L160.08-6.80L160.08-6.80Q160.27-8.17 160.36-9.45L160.36-9.45L160.36-9.45Q160.45-10.73 160.45-11.85L160.45-11.85L160.45-11.85Q160.45-12.48 160.41-13.22L160.41-13.22L160.41-13.22Q160.38-13.97 160.26-14.71L160.26-14.71L160.26-14.71Q160.14-15.45 159.91-16.12L159.91-16.12L159.91-16.12Q159.67-16.80 159.26-17.33L159.26-17.33L159.26-17.33Q158.86-17.87 158.25-18.18L158.25-18.18L158.25-18.18Q157.65-18.50 156.80-18.50L156.80-18.50L156.80-18.50Q155.97-18.50 155.38-18.06L155.38-18.06L155.38-18.06Q154.79-17.61 154.38-16.91L154.38-16.91L154.38-16.91Q153.96-16.21 153.72-15.32L153.72-15.32L153.72-15.32Q153.47-14.44 153.35-13.54L153.35-13.54L153.35-13.54Q153.22-12.65 153.18-11.83L153.18-11.83L153.18-11.83Q153.13-11.02 153.13-10.46L153.13-10.46L153.13 0L147.04 0L147.04-9.72L147.04-9.72Q147.04-10.35 147.06-11.25L147.06-11.25L147.06-11.25Q147.08-12.14 147.02-13.12L147.02-13.12L147.02-13.12Q146.95-14.09 146.78-15.06L146.78-15.06L146.78-15.06Q146.61-16.02 146.24-16.78L146.24-16.78L146.24-16.78Q145.87-17.54 145.24-18.02L145.24-18.02L145.24-18.02Q144.60-18.50 143.65-18.50L143.65-18.50L143.65-18.50Q142.83-18.50 142.28-18.05L142.28-18.05L142.28-18.05Q141.73-17.60 141.36-16.88L141.36-16.88L141.36-16.88Q140.99-16.17 140.78-15.28L140.78-15.28L140.78-15.28Q140.57-14.38 140.48-13.49L140.48-13.49L140.48-13.49Q140.38-12.59 140.36-11.79L140.36-11.79L140.36-11.79Q140.34-10.98 140.34-10.46L140.34-10.46L140.34 0L134.22 0L134.22-20.87L136.56-20.87L138.80-16.01L138.80-16.01Q139.56-18.54 141.20-19.95L141.20-19.95L141.20-19.95Q142.83-21.37 145.54-21.37L145.54-21.37L145.54-21.37Q147.98-21.37 149.59-20.36L149.59-20.36L149.59-20.36Q151.20-19.35 152.12-17.07L152.12-17.07L152.12-17.07Q152.64-18.07 153.28-18.86L153.28-18.86L153.28-18.86Q153.93-19.66 154.71-20.22L154.71-20.22L154.71-20.22Q155.50-20.78 156.46-21.07L156.46-21.07L156.46-21.07Q157.41-21.37 158.57-21.37L158.57-21.37L158.57-21.37Q160.70-21.37 162.21-20.68L162.21-20.68L162.21-20.68Q163.72-19.98 164.68-18.75L164.68-18.75L164.68-18.75Q165.63-17.52 166.07-15.84L166.07-15.84L166.07-15.84Q166.50-14.15 166.50-12.18" fill="#65106e" stroke="none" stroke-width="none" transform="translate(-191.19164276123047,11.382408159044056)" style="fill: rgb(101, 16, 110);"></path></g><g class="path" style="transform: scale(0.91); transform-origin: -10.2266px 0.90625px 0px; animation: 1s linear -0.293333s infinite normal forwards running breath-29d8a753-a43a-4bdb-8b5f-85b4da8213f1;"><path d="M192.61-10.48L192.61-10.48L192.61-10.48Q192.61-8.85 192.17-7.43L192.17-7.43L192.17-7.43Q191.74-6.00 190.97-4.79L190.97-4.79L190.97-4.79Q190.20-3.58 189.12-2.61L189.12-2.61L189.12-2.61Q188.04-1.64 186.74-0.98L186.74-0.98L186.74-0.98Q185.45-0.31 183.98 0.05L183.98 0.05L183.98 0.05Q182.51 0.42 180.95 0.42L180.95 0.42L180.95 0.42Q179.40 0.42 177.94 0.05L177.94 0.05L177.94 0.05Q176.47-0.31 175.18-0.98L175.18-0.98L175.18-0.98Q173.89-1.64 172.81-2.61L172.81-2.61L172.81-2.61Q171.72-3.58 170.95-4.79L170.95-4.79L170.95-4.79Q170.19-6.00 169.75-7.43L169.75-7.43L169.75-7.43Q169.32-8.87 169.32-10.48L169.32-10.48L169.32-10.48Q169.32-12.09 169.75-13.52L169.75-13.52L169.75-13.52Q170.19-14.96 170.95-16.17L170.95-16.17L170.95-16.17Q171.72-17.38 172.81-18.35L172.81-18.35L172.81-18.35Q173.89-19.31 175.18-19.98L175.18-19.98L175.18-19.98Q176.47-20.65 177.94-21.01L177.94-21.01L177.94-21.01Q179.40-21.37 180.95-21.37L180.95-21.37L180.95-21.37Q182.51-21.37 183.98-21.01L183.98-21.01L183.98-21.01Q185.45-20.65 186.74-19.98L186.74-19.98L186.74-19.98Q188.04-19.31 189.12-18.35L189.12-18.35L189.12-18.35Q190.20-17.38 190.97-16.17L190.97-16.17L190.97-16.17Q191.74-14.96 192.17-13.52L192.17-13.52L192.17-13.52Q192.61-12.09 192.61-10.48zM186.39-10.48L186.39-10.48L186.39-10.48Q186.39-11.35 186.29-12.31L186.29-12.31L186.29-12.31Q186.19-13.28 185.96-14.21L185.96-14.21L185.96-14.21Q185.72-15.14 185.32-16.00L185.32-16.00L185.32-16.00Q184.91-16.86 184.31-17.50L184.31-17.50L184.31-17.50Q183.72-18.14 182.89-18.53L182.89-18.53L182.89-18.53Q182.06-18.92 180.95-18.92L180.95-18.92L180.95-18.92Q179.91-18.92 179.09-18.52L179.09-18.52L179.09-18.52Q178.28-18.12 177.67-17.46L177.67-17.46L177.67-17.46Q177.07-16.80 176.66-15.93L176.66-15.93L176.66-15.93Q176.26-15.07 176.00-14.14L176.00-14.14L176.00-14.14Q175.75-13.21 175.64-12.26L175.64-12.26L175.64-12.26Q175.53-11.31 175.53-10.48L175.53-10.48L175.53-10.48Q175.53-9.65 175.64-8.70L175.64-8.70L175.64-8.70Q175.75-7.75 176.00-6.81L176.00-6.81L176.00-6.81Q176.26-5.87 176.66-5.01L176.66-5.01L176.66-5.01Q177.07-4.16 177.67-3.50L177.67-3.50L177.67-3.50Q178.28-2.84 179.09-2.44L179.09-2.44L179.09-2.44Q179.91-2.04 180.95-2.04L180.95-2.04L180.95-2.04Q182.04-2.04 182.87-2.43L182.87-2.43L182.87-2.43Q183.70-2.82 184.30-3.47L184.30-3.47L184.30-3.47Q184.91-4.12 185.31-4.97L185.31-4.97L185.31-4.97Q185.70-5.82 185.95-6.76L185.95-6.76L185.95-6.76Q186.19-7.70 186.29-8.65L186.29-8.65L186.29-8.65Q186.39-9.61 186.39-10.48" fill="#65106e" stroke="none" stroke-width="none" transform="translate(-191.19164276123047,11.382408159044056)" style="fill: rgb(255, 255, 255);"></path></g><g class="path" style="transform: scale(0.91); transform-origin: 27.2148px -1.67188px 0px; animation: 1s linear -0.256667s infinite normal forwards running breath-29d8a753-a43a-4bdb-8b5f-85b4da8213f1;"><path d="M230.96-19.57L230.96-19.57L227.87-18.27L227.87-18.27Q227.51-19.44 226.91-20.42L226.91-20.42L226.91-20.42Q226.30-21.39 225.46-22.09L225.46-22.09L225.46-22.09Q224.62-22.78 223.55-23.17L223.55-23.17L223.55-23.17Q222.49-23.56 221.22-23.56L221.22-23.56L221.22-23.56Q219.87-23.56 218.74-23.11L218.74-23.11L218.74-23.11Q217.61-22.66 216.72-21.89L216.72-21.89L216.72-21.89Q215.82-21.12 215.15-20.09L215.15-20.09L215.15-20.09Q214.48-19.06 214.04-17.89L214.04-17.89L214.04-17.89Q213.60-16.73 213.37-15.48L213.37-15.48L213.37-15.48Q213.15-14.24 213.15-13.04L213.15-13.04L213.15-13.04Q213.15-11.15 213.59-9.27L213.59-9.27L213.59-9.27Q214.03-7.39 215.00-5.89L215.00-5.89L215.00-5.89Q215.97-4.39 217.50-3.46L217.50-3.46L217.50-3.46Q219.04-2.53 221.22-2.53L221.22-2.53L221.22-2.53Q222.42-2.53 223.08-3.06L223.08-3.06L223.08-3.06Q223.75-3.60 223.75-4.93L223.75-4.93L223.75-12.92L230.92-12.92L230.92 0L228.85 0L227.58-2.04L227.58-2.04Q225.85-0.72 223.76-0.10L223.76-0.10L223.76-0.10Q221.67 0.52 219.51 0.52L219.51 0.52L219.51 0.52Q217.59 0.52 215.83 0.05L215.83 0.05L215.83 0.05Q214.07-0.42 212.55-1.28L212.55-1.28L212.55-1.28Q211.03-2.15 209.80-3.38L209.80-3.38L209.80-3.38Q208.56-4.61 207.68-6.11L207.68-6.11L207.68-6.11Q206.81-7.61 206.33-9.37L206.33-9.37L206.33-9.37Q205.85-11.13 205.85-13.04L205.85-13.04L205.85-13.04Q205.85-14.96 206.33-16.72L206.33-16.72L206.33-16.72Q206.81-18.48 207.68-19.99L207.68-19.99L207.68-19.99Q208.56-21.50 209.80-22.73L209.80-22.73L209.80-22.73Q211.03-23.96 212.55-24.82L212.55-24.82L212.55-24.82Q214.07-25.69 215.83-26.16L215.83-26.16L215.83-26.16Q217.59-26.63 219.51-26.63L219.51-26.63L219.51-26.63Q221.35-26.63 223.11-26.20L223.11-26.20L223.11-26.20Q224.87-25.76 226.39-24.89L226.39-24.89L226.39-24.89Q227.91-24.01 229.09-22.68L229.09-22.68L229.09-22.68Q230.27-21.35 230.96-19.57" fill="#65106e" stroke="none" stroke-width="none" transform="translate(-191.19164276123047,11.382408159044056)" style="fill: rgb(101, 16, 110);"></path></g><g class="path" style="transform: scale(0.91); transform-origin: 54.5742px 0.90625px 0px; animation: 1s linear -0.22s infinite normal forwards running breath-29d8a753-a43a-4bdb-8b5f-85b4da8213f1;"><path d="M257.41-10.48L257.41-10.48L257.41-10.48Q257.41-8.85 256.98-7.43L256.98-7.43L256.98-7.43Q256.54-6.00 255.78-4.79L255.78-4.79L255.78-4.79Q255.01-3.58 253.92-2.61L253.92-2.61L253.92-2.61Q252.84-1.64 251.55-0.98L251.55-0.98L251.55-0.98Q250.26-0.31 248.78 0.05L248.78 0.05L248.78 0.05Q247.31 0.42 245.76 0.42L245.76 0.42L245.76 0.42Q244.20 0.42 242.74 0.05L242.74 0.05L242.74 0.05Q241.28-0.31 239.99-0.98L239.99-0.98L239.99-0.98Q238.69-1.64 237.61-2.61L237.61-2.61L237.61-2.61Q236.53-3.58 235.76-4.79L235.76-4.79L235.76-4.79Q234.99-6.00 234.56-7.43L234.56-7.43L234.56-7.43Q234.12-8.87 234.12-10.48L234.12-10.48L234.12-10.48Q234.12-12.09 234.56-13.52L234.56-13.52L234.56-13.52Q234.99-14.96 235.76-16.17L235.76-16.17L235.76-16.17Q236.53-17.38 237.61-18.35L237.61-18.35L237.61-18.35Q238.69-19.31 239.99-19.98L239.99-19.98L239.99-19.98Q241.28-20.65 242.74-21.01L242.74-21.01L242.74-21.01Q244.20-21.37 245.76-21.37L245.76-21.37L245.76-21.37Q247.31-21.37 248.78-21.01L248.78-21.01L248.78-21.01Q250.26-20.65 251.55-19.98L251.55-19.98L251.55-19.98Q252.84-19.31 253.92-18.35L253.92-18.35L253.92-18.35Q255.01-17.38 255.78-16.17L255.78-16.17L255.78-16.17Q256.54-14.96 256.98-13.52L256.98-13.52L256.98-13.52Q257.41-12.09 257.41-10.48zM251.20-10.48L251.20-10.48L251.20-10.48Q251.20-11.35 251.10-12.31L251.10-12.31L251.10-12.31Q251.00-13.28 250.76-14.21L250.76-14.21L250.76-14.21Q250.53-15.14 250.12-16.00L250.12-16.00L250.12-16.00Q249.71-16.86 249.12-17.50L249.12-17.50L249.12-17.50Q248.52-18.14 247.69-18.53L247.69-18.53L247.69-18.53Q246.86-18.92 245.76-18.92L245.76-18.92L245.76-18.92Q244.71-18.92 243.90-18.52L243.90-18.52L243.90-18.52Q243.08-18.12 242.48-17.46L242.48-17.46L242.48-17.46Q241.87-16.80 241.47-15.93L241.47-15.93L241.47-15.93Q241.06-15.07 240.81-14.14L240.81-14.14L240.81-14.14Q240.55-13.21 240.45-12.26L240.45-12.26L240.45-12.26Q240.34-11.31 240.34-10.48L240.34-10.48L240.34-10.48Q240.34-9.65 240.45-8.70L240.45-8.70L240.45-8.70Q240.55-7.75 240.81-6.81L240.81-6.81L240.81-6.81Q241.06-5.87 241.47-5.01L241.47-5.01L241.47-5.01Q241.87-4.16 242.48-3.50L242.48-3.50L242.48-3.50Q243.08-2.84 243.90-2.44L243.90-2.44L243.90-2.44Q244.71-2.04 245.76-2.04L245.76-2.04L245.76-2.04Q246.84-2.04 247.67-2.43L247.67-2.43L247.67-2.43Q248.50-2.82 249.11-3.47L249.11-3.47L249.11-3.47Q249.71-4.12 250.11-4.97L250.11-4.97L250.11-4.97Q250.51-5.82 250.75-6.76L250.75-6.76L250.75-6.76Q251.00-7.70 251.10-8.65L251.10-8.65L251.10-8.65Q251.20-9.61 251.20-10.48" fill="#65106e" stroke="none" stroke-width="none" transform="translate(-191.19164276123047,11.382408159044056)" style="fill: rgb(255, 255, 255);"></path></g><g class="path" style="transform: scale(0.91); transform-origin: 80.7344px 2.91797px 0px; animation: 1s linear -0.183333s infinite normal forwards running breath-29d8a753-a43a-4bdb-8b5f-85b4da8213f1;"><path d="M282.59-11.96L282.59-11.96L282.59-11.96Q282.59-9.85 282.08-7.55L282.08-7.55L282.08-7.55Q281.56-5.26 280.64-3.05L280.64-3.05L280.64-3.05Q279.72-0.85 278.44 1.09L278.44 1.09L278.44 1.09Q277.16 3.04 275.62 4.44L275.62 4.44L273.33 3.20L273.33 3.20Q273.81 2.29 274.25 1.17L274.25 1.17L274.25 1.17Q274.68 0.05 275.03-1.20L275.03-1.20L275.03-1.20Q275.39-2.46 275.67-3.79L275.67-3.79L275.67-3.79Q275.95-5.13 276.14-6.44L276.14-6.44L276.14-6.44Q276.33-7.75 276.43-8.99L276.43-8.99L276.43-8.99Q276.52-10.23 276.52-11.29L276.52-11.29L276.52-11.29Q276.52-12.00 276.47-12.80L276.47-12.80L276.47-12.80Q276.42-13.60 276.24-14.41L276.24-14.41L276.24-14.41Q276.07-15.21 275.78-15.95L275.78-15.95L275.78-15.95Q275.49-16.69 275.02-17.25L275.02-17.25L275.02-17.25Q274.54-17.81 273.86-18.16L273.86-18.16L273.86-18.16Q273.18-18.50 272.26-18.50L272.26-18.50L272.26-18.50Q271.36-18.50 270.65-18.09L270.65-18.09L270.65-18.09Q269.95-17.69 269.41-17.03L269.41-17.03L269.41-17.03Q268.86-16.37 268.48-15.52L268.48-15.52L268.48-15.52Q268.09-14.67 267.84-13.78L267.84-13.78L267.84-13.78Q267.60-12.88 267.49-12.01L267.49-12.01L267.49-12.01Q267.38-11.15 267.38-10.46L267.38-10.46L267.38 0L261.26 0L261.26-20.87L263.61-20.87L266.41-16.01L266.41-16.01Q266.91-17.22 267.67-18.21L267.67-18.21L267.67-18.21Q268.43-19.20 269.39-19.91L269.39-19.91L269.39-19.91Q270.35-20.61 271.51-20.99L271.51-20.99L271.51-20.99Q272.68-21.37 274.03-21.37L274.03-21.37L274.03-21.37Q276.20-21.37 277.81-20.67L277.81-20.67L277.81-20.67Q279.42-19.96 280.48-18.71L280.48-18.71L280.48-18.71Q281.55-17.45 282.07-15.73L282.07-15.73L282.07-15.73Q282.59-14.00 282.59-11.96" fill="#65106e" stroke="none" stroke-width="none" transform="translate(-191.19164276123047,11.382408159044056)" style="fill: rgb(101, 16, 110);"></path></g><g class="path" style="transform: scale(0.91); transform-origin: 102.803px 0.947266px 0px; animation: 1s linear -0.146667s infinite normal forwards running breath-29d8a753-a43a-4bdb-8b5f-85b4da8213f1;"><path d="M302.83-2.42L302.83 0L285.16 0L285.16-2.42L285.16-2.42L296.09-18.45L285.16-18.45L285.16-20.87L302.83-20.87L302.83-18.45L291.90-2.42L302.83-2.42" fill="#65106e" stroke="none" stroke-width="none" transform="translate(-191.19164276123047,11.382408159044056)" style="fill: rgb(255, 255, 255);"></path></g><g class="path" style="transform: scale(0.91); transform-origin: 124.988px 0.90625px 0px; animation: 1s linear -0.11s infinite normal forwards running breath-29d8a753-a43a-4bdb-8b5f-85b4da8213f1;"><path d="M327.27-20.87L327.27 0L321.17 0L321.17-2.49L321.17-2.49Q320.08-1.01 318.56-0.30L318.56-0.30L318.56-0.30Q317.03 0.42 315.20 0.42L315.20 0.42L315.20 0.42Q312.82 0.42 310.94-0.43L310.94-0.43L310.94-0.43Q309.06-1.28 307.76-2.76L307.76-2.76L307.76-2.76Q306.46-4.23 305.77-6.21L305.77-6.21L305.77-6.21Q305.09-8.20 305.09-10.48L305.09-10.48L305.09-10.48Q305.09-12.75 305.77-14.74L305.77-14.74L305.77-14.74Q306.46-16.73 307.76-18.20L307.76-18.20L307.76-18.20Q309.06-19.67 310.94-20.52L310.94-20.52L310.94-20.52Q312.82-21.37 315.20-21.37L315.20-21.37L315.20-21.37Q316.42-21.37 317.51-21.01L317.51-21.01L317.51-21.01Q318.60-20.65 319.51-19.99L319.51-19.99L319.51-19.99Q320.43-19.33 321.12-18.40L321.12-18.40L321.12-18.40Q321.82-17.47 322.21-16.33L322.21-16.33L324.92-20.87L327.27-20.87zM321.13-10.48L321.13-10.48L321.13-10.48Q321.13-11.29 321.05-12.19L321.05-12.19L321.05-12.19Q320.97-13.10 320.77-13.98L320.77-13.98L320.77-13.98Q320.57-14.87 320.22-15.67L320.22-15.67L320.22-15.67Q319.87-16.48 319.31-17.10L319.31-17.10L319.31-17.10Q318.76-17.72 317.99-18.08L317.99-18.08L317.99-18.08Q317.21-18.45 316.18-18.45L316.18-18.45L316.18-18.45Q315.15-18.45 314.39-18.08L314.39-18.08L314.39-18.08Q313.63-17.71 313.09-17.08L313.09-17.08L313.09-17.08Q312.55-16.46 312.20-15.65L312.20-15.65L312.20-15.65Q311.84-14.83 311.65-13.95L311.65-13.95L311.65-13.95Q311.45-13.06 311.37-12.17L311.37-12.17L311.37-12.17Q311.28-11.27 311.28-10.48L311.28-10.48L311.28-10.48Q311.28-9.68 311.37-8.78L311.37-8.78L311.37-8.78Q311.45-7.88 311.65-6.99L311.65-6.99L311.65-6.99Q311.84-6.11 312.20-5.29L312.20-5.29L312.20-5.29Q312.55-4.48 313.09-3.86L313.09-3.86L313.09-3.86Q313.63-3.23 314.39-2.86L314.39-2.86L314.39-2.86Q315.15-2.49 316.18-2.49L316.18-2.49L316.18-2.49Q317.12-2.49 317.85-2.88L317.85-2.88L317.85-2.88Q318.58-3.27 319.13-3.92L319.13-3.92L319.13-3.92Q319.69-4.57 320.06-5.40L320.06-5.40L320.06-5.40Q320.44-6.23 320.68-7.12L320.68-7.12L320.68-7.12Q320.91-8.00 321.02-8.88L321.02-8.88L321.02-8.88Q321.13-9.76 321.13-10.48" fill="#65106e" stroke="none" stroke-width="none" transform="translate(-191.19164276123047,11.382408159044056)" style="fill: rgb(101, 16, 110);"></path></g><g class="path" style="transform: scale(0.91); transform-origin: 144.229px -3.85742px 0px; animation: 1s linear -0.0733333s infinite normal forwards running breath-29d8a753-a43a-4bdb-8b5f-85b4da8213f1;"><path d="M338.47-24.14L338.47 0L332.37 0L332.37-30.48L334.72-30.48L338.47-24.14" fill="#65106e" stroke="none" stroke-width="none" transform="translate(-191.19164276123047,11.382408159044056)" style="fill: rgb(255, 255, 255);"></path></g><g class="path" style="transform: scale(0.91); transform-origin: 161.809px 0.90625px 0px; animation: 1s linear -0.0366667s infinite normal forwards running breath-29d8a753-a43a-4bdb-8b5f-85b4da8213f1;"><path d="M348.59-9.90L348.59-9.90L348.59-9.90Q349.71-9.65 350.83-9.50L350.83-9.50L350.83-9.50Q351.95-9.36 353.09-9.36L353.09-9.36L353.09-9.36Q354.28-9.36 355.30-9.58L355.30-9.58L355.30-9.58Q356.32-9.81 357.07-10.34L357.07-10.34L357.07-10.34Q357.82-10.88 358.26-11.76L358.26-11.76L358.26-11.76Q358.69-12.65 358.69-13.97L358.69-13.97L358.69-13.97Q358.69-15.03 358.40-15.92L358.40-15.92L358.40-15.92Q358.11-16.80 357.54-17.43L357.54-17.43L357.54-17.43Q356.97-18.07 356.14-18.42L356.14-18.42L356.14-18.42Q355.31-18.77 354.21-18.77L354.21-18.77L354.21-18.77Q353.18-18.77 352.36-18.39L352.36-18.39L352.36-18.39Q351.54-18.01 350.91-17.37L350.91-17.37L350.91-17.37Q350.29-16.73 349.85-15.88L349.85-15.88L349.85-15.88Q349.40-15.03 349.12-14.11L349.12-14.11L349.12-14.11Q348.83-13.19 348.70-12.25L348.70-12.25L348.70-12.25Q348.57-11.31 348.57-10.48L348.57-10.48L348.57-10.48Q348.57-10.33 348.57-10.19L348.57-10.19L348.57-10.19Q348.57-10.04 348.59-9.90zM363.64-14.02L363.64-14.02L363.64-14.02Q363.64-12.74 363.23-11.73L363.23-11.73L363.23-11.73Q362.81-10.73 362.10-9.97L362.10-9.97L362.10-9.97Q361.38-9.21 360.44-8.69L360.44-8.69L360.44-8.69Q359.50-8.17 358.44-7.83L358.44-7.83L358.44-7.83Q357.37-7.50 356.24-7.35L356.24-7.35L356.24-7.35Q355.11-7.21 354.05-7.21L354.05-7.21L354.05-7.21Q352.69-7.21 351.37-7.40L351.37-7.40L351.37-7.40Q350.05-7.59 348.77-8.00L348.77-8.00L348.77-8.00Q348.97-6.81 349.40-5.74L349.40-5.74L349.40-5.74Q349.84-4.66 350.56-3.86L350.56-3.86L350.56-3.86Q351.28-3.05 352.34-2.58L352.34-2.58L352.34-2.58Q353.40-2.11 354.84-2.11L354.84-2.11L354.84-2.11Q355.80-2.11 356.67-2.40L356.67-2.40L356.67-2.40Q357.53-2.69 358.26-3.22L358.26-3.22L358.26-3.22Q358.98-3.74 359.53-4.46L359.53-4.46L359.53-4.46Q360.08-5.19 360.42-6.07L360.42-6.07L363.06-5.09L363.06-5.09Q362.47-3.67 361.43-2.63L361.43-2.63L361.43-2.63Q360.39-1.59 359.08-0.91L359.08-0.91L359.08-0.91Q357.77-0.23 356.30 0.09L356.30 0.09L356.30 0.09Q354.82 0.42 353.38 0.42L353.38 0.42L353.38 0.42Q350.99 0.42 348.97-0.39L348.97-0.39L348.97-0.39Q346.95-1.19 345.48-2.64L345.48-2.64L345.48-2.64Q344.02-4.08 343.19-6.09L343.19-6.09L343.19-6.09Q342.36-8.09 342.36-10.48L342.36-10.48L342.36-10.48Q342.36-12.86 343.19-14.87L343.19-14.87L343.19-14.87Q344.02-16.87 345.48-18.32L345.48-18.32L345.48-18.32Q346.95-19.76 348.97-20.57L348.97-20.57L348.97-20.57Q350.99-21.37 353.38-21.37L353.38-21.37L353.38-21.37Q354.54-21.37 355.75-21.21L355.75-21.21L355.75-21.21Q356.96-21.05 358.09-20.70L358.09-20.70L358.09-20.70Q359.23-20.34 360.24-19.78L360.24-19.78L360.24-19.78Q361.26-19.22 362.01-18.40L362.01-18.40L362.01-18.40Q362.76-17.58 363.20-16.49L363.20-16.49L363.20-16.49Q363.64-15.41 363.64-14.02" fill="#65106e" stroke="none" stroke-width="none" transform="translate(-191.19164276123047,11.382408159044056)" style="fill: rgb(101, 16, 110);"></path></g><g class="path" style="transform: scale(0.91); transform-origin: 183.773px 0.947266px 0px; animation: 1s linear 0s infinite normal forwards running breath-29d8a753-a43a-4bdb-8b5f-85b4da8213f1;"><path d="M383.80-2.42L383.80 0L366.13 0L366.13-2.42L366.13-2.42L377.06-18.45L366.13-18.45L366.13-20.87L383.80-20.87L383.80-18.45L372.87-2.42L383.80-2.42" fill="#65106e" stroke="none" stroke-width="none" transform="translate(-191.19164276123047,11.382408159044056)" style="fill: rgb(255, 255, 255);"></path></g></g>
</g>
</g>
<style id="breath-29d8a753-a43a-4bdb-8b5f-85b4da8213f1" data-anikit="">@keyframes breath-29d8a753-a43a-4bdb-8b5f-85b4da8213f1
{
  0% {
    animation-timing-function: cubic-bezier(0.9647,0.2413,-0.0705,0.7911);
    transform: scale(0.9099999999999999);
  }
  51% {
    animation-timing-function: cubic-bezier(0.9226,0.2631,-0.0308,0.7628);
    transform: scale(1.02994);
  }
  100% {
    transform: scale(0.9099999999999999);
  }
}</style></svg>