<svg width="376.908" height="40.772" xmlns="http://www.w3.org/2000/svg" style=""><path d="M26.957 4.102h.195q.419 0 .971-.579a5.488 5.488 0 00.323-.373 29.52 29.52 0 01.179-.224q.471-.581.65-.729a.267.267 0 01.074-.048q.244-.147.635-.147a.984.984 0 01.27.034q.304.087.384.397a1.007 1.007 0 01.029.253v1.367a86.488 86.488 0 00.049 2.881 59.607 59.607 0 00.044 1.044q.042.823.103 1.495a453.833 453.833 0 01.086.959q.04.451.075.855a272.33 272.33 0 01.01.115 179.239 179.239 0 00.035.404q.034.393.062.689a50.933 50.933 0 00.025.249 83.374 83.374 0 01.011.116q.038.379.038.421a.642.642 0 01-.409.614q-.352.168-1.007.168-.349 0-.558-.121a.585.585 0 01-.273-.343 15.383 15.383 0 01-.08-.266q-.116-.393-.308-1.087a167.678 167.678 0 01-.124-.454q-.344-1.261-1.27-2.587a12.167 12.167 0 00-.122-.172q-1.904-2.587-4.785-4.199a12.226 12.226 0 00-6.055-1.611 10.022 10.022 0 00-3.882.781 10.874 10.874 0 00-2.437 1.425 13.545 13.545 0 00-1.127.968 8.984 8.984 0 00-1.434 1.805q-.546.889-.987 1.988a17.186 17.186 0 00-.289.772 17.9 17.9 0 00-.8 3.394 24.673 24.673 0 00-.225 3.418q0 4.358 1.097 7.66a17.264 17.264 0 00.172.494 16.92 16.92 0 001.066 2.367q.982 1.777 2.279 2.906a17.211 17.211 0 001.951 1.48 12.714 12.714 0 002.224 1.157 11.469 11.469 0 004.248.83q2.832 0 5.322-1.172a19.469 19.469 0 00.991-.498q1.415-.768 1.845-1.394a1.335 1.335 0 00.094-.158 1.093 1.093 0 00.077-.212q.059-.227.068-.557a4.356 4.356 0 00.001-.11v-5.616a2.311 2.311 0 00-.039-.445q-.049-.246-.156-.428a.97.97 0 00-.44-.396 2.401 2.401 0 00-.372-.129q-.632-.172-1.863-.279a29.443 29.443 0 00-.401-.032q-.786-.043-1.299-.087a20.735 20.735 0 01-.117-.01 2.804 2.804 0 01-.517-.08q-.86-.226-.898-1.019a1.556 1.556 0 01-.001-.073 1.617 1.617 0 01.055-.445q.143-.498.652-.63a1.655 1.655 0 01.416-.048q.137 0 .723.043a74.959 74.959 0 01.082.006 31.499 31.499 0 00.361.024q.402.025.935.05a108.961 108.961 0 00.511.023 52.127 52.127 0 001.202.037 67.682 67.682 0 001.313.012h.097a73.911 73.911 0 001.368-.012 59.24 59.24 0 001.269-.037 117.28 117.28 0 00.577-.024q.56-.025.977-.05a31.876 31.876 0 00.35-.023q.64-.046.809-.049a1.224 1.224 0 01.021 0 2.024 2.024 0 01.358.029q.196.035.349.113a.941.941 0 01.246.175 1.188 1.188 0 01.199.259.906.906 0 01.118.449 1.032 1.032 0 01-.362.782q-.164.151-.403.28a3.431 3.431 0 01-.48.208 5.368 5.368 0 00-.492.199q-.488.229-.717.492a.811.811 0 00-.183.334.63.63 0 00-.021.089q-.026.148-.027.422a6.056 6.056 0 00-.001.026v8.448q0 .949-.646.975a.919.919 0 01-.037.001q-.284 0-.774-.482a4.911 4.911 0 01-.032-.031q-.414-.413-.621-.493a.247.247 0 00-.087-.019q-.257 0-.59.301a2.625 2.625 0 00-.093.089 15.06 15.06 0 01-10.254 3.858q-7.08 0-12.305-5.542T.003 18.457a18.965 18.965 0 011.115-6.607 16.878 16.878 0 013.793-5.966 16.242 16.242 0 016.751-4.283A16.769 16.769 0 0116.8.83a16.446 16.446 0 014.004.489 23.294 23.294 0 011.142.314q1.17.357 1.959.76a32.455 32.455 0 011.086.58 24.349 24.349 0 01.965.567q.889.553.997.562a.041.041 0 00.004 0zm205.957 0h.195q.419 0 .971-.579a5.488 5.488 0 00.323-.373 29.52 29.52 0 01.179-.224q.471-.581.65-.729a.267.267 0 01.074-.048q.244-.147.635-.147a.984.984 0 01.27.034q.304.087.384.397a1.007 1.007 0 01.029.253v1.367a86.488 86.488 0 00.049 2.881 59.607 59.607 0 00.044 1.044q.042.823.103 1.495a453.833 453.833 0 01.086.959q.04.451.075.855a272.33 272.33 0 01.01.115 179.239 179.239 0 00.035.404q.034.393.063.689a50.933 50.933 0 00.024.249 83.374 83.374 0 01.011.116q.038.379.038.421a.642.642 0 01-.409.614q-.352.168-1.007.168-.349 0-.558-.121a.585.585 0 01-.273-.343 15.383 15.383 0 01-.08-.266q-.116-.393-.308-1.087a167.678 167.678 0 01-.124-.454q-.344-1.261-1.27-2.587a12.167 12.167 0 00-.122-.172q-1.904-2.587-4.785-4.199a12.226 12.226 0 00-6.055-1.611 10.022 10.022 0 00-3.881.781 10.874 10.874 0 00-2.438 1.425 13.545 13.545 0 00-1.127.968 8.984 8.984 0 00-1.434 1.805q-.546.889-.987 1.988a17.186 17.186 0 00-.289.772 17.9 17.9 0 00-.8 3.394 24.673 24.673 0 00-.225 3.418q0 4.358 1.097 7.66a17.264 17.264 0 00.172.494 16.92 16.92 0 001.066 2.367q.982 1.777 2.279 2.906a17.211 17.211 0 001.951 1.48 12.714 12.714 0 002.224 1.157 11.469 11.469 0 004.248.83q2.832 0 5.322-1.172a19.469 19.469 0 00.991-.498q1.415-.768 1.845-1.394a1.335 1.335 0 00.094-.158 1.093 1.093 0 00.077-.212q.06-.227.068-.557a4.356 4.356 0 00.001-.11v-5.616a2.311 2.311 0 00-.039-.445q-.049-.246-.156-.428a.97.97 0 00-.44-.396 2.401 2.401 0 00-.372-.129q-.632-.172-1.863-.279a29.443 29.443 0 00-.401-.032q-.786-.043-1.299-.087a20.735 20.735 0 01-.117-.01 2.804 2.804 0 01-.517-.08q-.86-.226-.898-1.019a1.556 1.556 0 01-.001-.073 1.617 1.617 0 01.055-.445q.143-.498.652-.63a1.655 1.655 0 01.416-.048q.137 0 .723.043a74.959 74.959 0 01.082.006 31.499 31.499 0 00.361.024q.402.025.935.05a108.961 108.961 0 00.511.023 52.127 52.127 0 001.202.037 67.682 67.682 0 001.313.012h.097a73.911 73.911 0 001.368-.012 59.24 59.24 0 001.269-.037 117.28 117.28 0 00.577-.024q.56-.025.977-.05a31.876 31.876 0 00.35-.023q.64-.046.809-.049a1.224 1.224 0 01.021 0 2.024 2.024 0 01.358.029q.196.035.349.113a.941.941 0 01.246.175 1.188 1.188 0 01.199.259.906.906 0 01.118.449 1.032 1.032 0 01-.362.782q-.164.151-.403.28a3.431 3.431 0 01-.48.208 5.368 5.368 0 00-.492.199q-.488.229-.717.492a.811.811 0 00-.183.334.63.63 0 00-.021.089q-.026.148-.027.422a6.056 6.056 0 00-.001.026v8.448q0 .949-.646.975a.919.919 0 01-.037.001q-.284 0-.774-.482a4.911 4.911 0 01-.032-.031q-.414-.413-.621-.493a.247.247 0 00-.087-.019q-.257 0-.59.301a2.625 2.625 0 00-.093.089 15.06 15.06 0 01-10.254 3.858q-7.08 0-12.305-5.542t-5.225-13.355a18.965 18.965 0 011.115-6.607 16.878 16.878 0 013.793-5.966 16.242 16.242 0 016.751-4.283 16.769 16.769 0 015.138-.771 16.446 16.446 0 014.004.489 23.294 23.294 0 011.142.314q1.17.357 1.959.76a32.455 32.455 0 011.086.58 24.349 24.349 0 01.965.567q.889.553.997.562a.041.041 0 00.004 0zM150.98 17.578l.146.196q.049.048.196.048a.729.729 0 00.103-.006q.055-.008.101-.025a.388.388 0 00.04-.017.564.564 0 00.07-.043q.035-.024.072-.056a1.41 1.41 0 00.078-.072 1.038 1.038 0 01.068-.062q.115-.095.343-.252a13.577 13.577 0 01.15-.101 25.697 25.697 0 01.357-.234q.16-.103.34-.215a50.302 50.302 0 01.377-.235q2.491-1.465 4.834-1.465a6.937 6.937 0 014.053 1.294q1.856 1.294 2.686 4.126a12.693 12.693 0 01.309 1.475q.238 1.547.271 3.673a45.225 45.225 0 01.006.712v6.347a8.11 8.11 0 00.003.243q.006.191.021.343a.975.975 0 00.044.213.761.761 0 00.102.202q.101.14.151.231a.918.918 0 01.02.038q.046.09.281.181a2.012 2.012 0 00.037.014q.202.074.321.106a1.109 1.109 0 00.069.016l.611.122.732.147q.647.092.682.84a1.876 1.876 0 01.002.087 1.914 1.914 0 01-.03.354q-.118.623-.703.623a.735.735 0 01-.052-.003q-.12-.009-.435-.05a36.938 36.938 0 01-.147-.02 13.165 13.165 0 00-.296-.037q-.334-.038-.785-.075a49.615 49.615 0 00-.433-.035 26.517 26.517 0 00-1.52-.068 30.452 30.452 0 00-.531-.005 30.209 30.209 0 00-1.209.023 23.671 23.671 0 00-.866.05 51.999 51.999 0 00-.452.037q-.44.038-.777.075a15.978 15.978 0 00-.285.035 39.772 39.772 0 01-.194.025q-.334.042-.438.047a.516.516 0 01-.027.001.897.897 0 01-.439-.117 1.167 1.167 0 01-.122-.078.616.616 0 01-.23-.334q-.039-.133-.039-.301a2.257 2.257 0 01.015-.273q.054-.443.302-.557a1.506 1.506 0 01.168-.062q.47-.149 1.859-.426a1.296 1.296 0 00.495-.168q.53-.322.53-1.2v-6.933q0-5.469-2.051-7.276a5.163 5.163 0 00-1.735-.923 4.828 4.828 0 00-1.39-.2 5.896 5.896 0 00-2.176.429 7.464 7.464 0 00-.851.401 8.244 8.244 0 00-.552.33q-.803.525-.935.965a.588.588 0 00-.027.17l.049.147q0 .113.029.315a6.126 6.126 0 00.02.124q.049.293.098.684a8.574 8.574 0 01.033.317q.025.284.04.635a26.422 26.422 0 01.024 1.147v9.62a.352.352 0 01-.001.026q-.003.042-.015.118a4.529 4.529 0 01-.008.051q-.025.146-.025.244v.049a.714.714 0 00.362.619q.311.204.891.301a5.748 5.748 0 00.456.056 21.299 21.299 0 01.211.025q.292.035.508.071a7.454 7.454 0 01.014.002q.905.136.971.859a1.292 1.292 0 01.005.118q0 .691-.288.916a.546.546 0 01-.346.109.55.55 0 01-.026-.001q-.06-.003-.218-.017a27.257 27.257 0 01-.074-.006 20.684 20.684 0 01-.145-.014q-.2-.02-.472-.05a68.116 68.116 0 01-.091-.01 42.533 42.533 0 00-.464-.048 57.264 57.264 0 00-.512-.049 16.809 16.809 0 00-.431-.033q-.381-.025-.839-.041a43.099 43.099 0 00-1.244-.024 38.783 38.783 0 00-.172 0 41.99 41.99 0 00-1.234.019 46.549 46.549 0 00-.182.005q-.561.019-1.007.052a15.657 15.657 0 00-.262.022 57.264 57.264 0 00-.513.049 42.533 42.533 0 00-.464.048 15.293 15.293 0 00-.207.025q-.225.028-.385.056a3.936 3.936 0 00-.092.017h-.293q-.683 0-.683-1.074 0-.684 1.855-.928a114.249 114.249 0 01.254-.046q.357-.064.576-.1a3.253 3.253 0 00.379-.089q.398-.121.598-.325a.732.732 0 00.098-.124 1.174 1.174 0 00.12-.274q.09-.29.115-.735a6.526 6.526 0 00.009-.358v-9.228a9.488 9.488 0 00-.114-1.526q-.13-.796-.409-1.417a3.543 3.543 0 00-1.089-1.403 5.988 5.988 0 00-1.988-1.011 5.571 5.571 0 00-1.527-.21 5.096 5.096 0 00-1.241.145 4 4 0 00-1.201.515q-.968.622-1.327 1.223a1.834 1.834 0 00-.04.07 2.316 2.316 0 00-.115.396q-.04.195-.06.426a5.76 5.76 0 00-.02.497v12.012a4.104 4.104 0 00.003.172q.004.085.011.158a1.981 1.981 0 00.01.085 7.337 7.337 0 00.019.121q.009.06.019.112a3.693 3.693 0 00.011.06q.025.122.098.244.065.109.111.179a2.518 2.518 0 00.011.016q.041.061.167.105a.948.948 0 00.053.017q.163.047.259.093a.758.758 0 01.009.005.508.508 0 00.06.024q.1.035.288.07a4.72 4.72 0 00.018.003q.206.038.34.061a14.548 14.548 0 00.075.013 6.072 6.072 0 00.087.013q.151.023.426.06.362.048.605.096a5.25 5.25 0 01.005.002.696.696 0 01.576.435q.064.147.09.343a2.231 2.231 0 01.018.296 1.412 1.412 0 01-.026.285q-.09.435-.49.488a.892.892 0 01-.119.008l-.634-.098a87.742 87.742 0 00-.319-.026q-.518-.041-1.268-.096a27.761 27.761 0 00-2.027-.073 34.829 34.829 0 00-.94.012 27.369 27.369 0 00-.866.037 54.23 54.23 0 00-.393.024q-.38.025-.664.051a14.735 14.735 0 00-.237.023 33.698 33.698 0 01-.161.016q-.296.03-.387.032a.548.548 0 01-.014 0q-.683 0-.683-.976a1.075 1.075 0 01.032-.275.674.674 0 01.383-.458q.415-.195.903-.195.488 0 .952-.293.464-.293.513-.976V20.752a2.911 2.911 0 00-.017-.328q-.039-.338-.164-.542a.746.746 0 00-.039-.058q-.179-.238-.893-.801a26.965 26.965 0 00-.352-.273q-.342-.244-.537-.39a1.784 1.784 0 01-.182-.138q-.192-.167-.241-.334a.405.405 0 01-.017-.114.515.515 0 01.078-.267q.045-.076.116-.149a1.095 1.095 0 01.05-.048 1.748 1.748 0 01.126-.101q.348-.256 1.339-.851a453.776 453.776 0 011.098-.689q.502-.314.952-.594a260.593 260.593 0 01.294-.182q.825-.437.927-.44a.047.047 0 01.001 0q.382 0 .432.444a1.282 1.282 0 01.007.142v1.905q0 .282.181.292a.247.247 0 00.015.001.064.064 0 00.022-.009q.118-.062.759-.553a6.073 6.073 0 01.613-.409q.335-.197.74-.39a14.143 14.143 0 01.673-.3 6.853 6.853 0 012.199-.523 6.455 6.455 0 01.414-.014 5.845 5.845 0 011.318.147 6.485 6.485 0 01.827.247 5.605 5.605 0 01.345.143 8.458 8.458 0 01.854.447 7.604 7.604 0 01.147.091 8.002 8.002 0 01.433.292 5.945 5.945 0 01.372.293q.235.202.424.369a23.445 23.445 0 01.162.144 17.186 17.186 0 01.116.105q.142.13.243.23a5.443 5.443 0 01.032.031zm119.092-.39v.097a.383.383 0 00.006.071q.022.118.127.124a.205.205 0 00.013.001h.049a.067.067 0 00.028-.011q.066-.036.25-.202a9.103 9.103 0 00.088-.08 6.789 6.789 0 01.225-.198q.237-.2.568-.451a22.953 22.953 0 01.111-.084 10.719 10.719 0 01.634-.439 14.515 14.515 0 01.733-.44 6.99 6.99 0 01.749-.361q.523-.217 1.155-.395a8.577 8.577 0 012.344-.318h.097a7.787 7.787 0 012.027.269 6.649 6.649 0 01.97.348q.462.205.951.492a11.765 11.765 0 01.227.136 4.66 4.66 0 011.146 1.016q.389.471.716 1.079a8.179 8.179 0 01.067.127 8.181 8.181 0 01.619 1.627q.209.773.314 1.665a14.497 14.497 0 01.044.419q.074.634.092 1.782a49.532 49.532 0 01.005.757v.952q0 .623-.016 2.054a681.811 681.811 0 01-.008.656q-.025 1.953-.025 4.981v.097a2.191 2.191 0 00.03.367 1.953 1.953 0 00.019.097q.049.22.073.342a.31.31 0 00.042.102q.044.071.129.142a6.278 6.278 0 00.069.056q.091.074.146.111a.805.805 0 00.005.004.32.32 0 00.041.022q.076.036.234.081a4.83 4.83 0 00.067.019 3.851 3.851 0 00.125.032q.117.028.197.037a.617.617 0 00.069.004 1.217 1.217 0 01.067.003q.111.006.327.03a19.989 19.989 0 01.143.016q.415.049.61.098a.967.967 0 01.342.106q.39.215.39.821 0 .889-.646.969a1.094 1.094 0 01-.135.008 1.136 1.136 0 01-.069-.003q-.171-.01-.582-.066a28.544 28.544 0 01-.032-.004 13.731 13.731 0 00-.295-.037q-.33-.038-.771-.075a48.972 48.972 0 00-.424-.035 24.778 24.778 0 00-1.238-.063 29.545 29.545 0 00-.788-.01 33.029 33.029 0 00-1.27.024q-.486.019-.871.052a11.672 11.672 0 00-.227.022 50.339 50.339 0 00-.446.049 39.046 39.046 0 00-.409.048 14.797 14.797 0 00-.186.025q-.265.036-.449.073h-.244q-.683 0-.683-.977a1.518 1.518 0 01.016-.23q.045-.296.22-.419a.433.433 0 01.057-.034q.236-.118 1.106-.268a26.142 26.142 0 01.456-.074q.418-.093.703-.141a7.606 7.606 0 01.03-.005q.488-.098.659-.318.171-.22.171-.854v-7.764q0-3.662-.684-5.42a5.037 5.037 0 00-.765-1.242 4.033 4.033 0 00-1.432-1.077 8.065 8.065 0 00-1.319-.468 5.93 5.93 0 00-1.464-.191 5.439 5.439 0 00-3.418 1.171 10.017 10.017 0 00-.656.551q-.619.57-.884 1.062a1.713 1.713 0 00-.169.438 3.855 3.855 0 00-.06.279q-.025.146-.033.274a1.957 1.957 0 00-.005.131V32.813a2.117 2.117 0 00.061.529q.178.691.884.855a1.836 1.836 0 00.178.032q2.197.342 2.393.537.224.186.276.573a1.904 1.904 0 01.017.257q0 .879-.635.879a.55.55 0 01-.026-.001q-.06-.003-.218-.017a27.257 27.257 0 01-.073-.007 20.684 20.684 0 01-.145-.013q-.201-.02-.473-.05a68.116 68.116 0 01-.091-.01 34.178 34.178 0 01-.463-.055 46.36 46.36 0 01-.513-.067 9.955 9.955 0 00-.503-.055q-.258-.022-.546-.035a17.445 17.445 0 00-.196-.008 40.387 40.387 0 00-1.392-.024 38.303 38.303 0 00-1.367.024 26.581 26.581 0 00-.489.022q-.266.015-.5.034a14.382 14.382 0 00-.207.018 39.071 39.071 0 00-.426.042q-.193.021-.365.042a21.826 21.826 0 00-.113.013q-.39.049-.634.074-.244.024-.293.024a1.126 1.126 0 01-.334-.045q-.496-.154-.496-.834a2.265 2.265 0 01.016-.283q.038-.3.164-.457a.447.447 0 01.137-.114 1.186 1.186 0 01.187-.076q.318-.105.989-.218a23.291 23.291 0 01.46-.073 3.548 3.548 0 00.376-.082q.385-.108.584-.286a.663.663 0 00.138-.169 1.385 1.385 0 00.123-.306q.083-.298.095-.723a5.177 5.177 0 00.002-.143V20.703q0-.879-.244-1.196-.209-.271-1.522-1.273a74.559 74.559 0 00-.48-.363q-.216-.216-.273-.378a.333.333 0 01-.02-.11v-.049q0-.235.319-.448a1.553 1.553 0 01.023-.016q.342-.219 2.099-1.147 1.351-.724 2.273-1.209a163.57 163.57 0 01.022-.012q.258-.171.439-.192a.43.43 0 01.05-.003.663.663 0 01.256.046q.287.119.324.55a1.579 1.579 0 01.006.136v1.953a.178.178 0 01-.003.026q-.007.046-.034.133a2.681 2.681 0 01-.012.037zm-235.987-.977v-.146a1.108 1.108 0 01.026-.25q.08-.345.41-.418a.808.808 0 01.102-.016 2886.703 2886.703 0 011.171-.069q3.84-.224 4.053-.224.453 0 .486.505a1.261 1.261 0 01.002.081v10.254a18.896 18.896 0 00.091 1.911q.1.978.309 1.794a7.748 7.748 0 00.528 1.471 6.187 6.187 0 001.266 1.654 7.902 7.902 0 00.809.665 5.326 5.326 0 003.142 1.001 6.486 6.486 0 00.057 0 5.8 5.8 0 004.191-1.751 7.511 7.511 0 00.057-.056 1.609 1.609 0 01.091-.123q.076-.092.177-.194a5.342 5.342 0 00.074-.075q.089-.093.131-.148a.452.452 0 00.015-.021.748.748 0 01.039-.053q.043-.054.107-.118.098-.098.122-.171a.96.96 0 01.022-.058q.013-.032.03-.068a1.961 1.961 0 01.022-.045q.049-.097.049-.171V18.848a1.782 1.782 0 00-.073-.529q-.194-.625-.904-.838-.244-.098-2.344-.44a1.237 1.237 0 01-.318-.105q-.414-.211-.414-.725 0-.633.51-.792a1.11 1.11 0 01.173-.038q1.586-.048 2.865-.096a281.589 281.589 0 00.041-.002q1.294-.048 1.806-.073a25.601 25.601 0 01.364-.015q.286-.009.515-.009h.562q.732 0 .732.976v15.674q0 .147.025.22a.304.304 0 00.033.069q.019.029.046.058a.581.581 0 00.018.019.651.651 0 00.17.122l.294.147a5.058 5.058 0 00.208.098 6.682 6.682 0 00.232.097 5.1 5.1 0 01.166.071q.2.088.468.222a19.492 19.492 0 00.607.29 22.496 22.496 0 00.223.101.999.999 0 01.203.117q.237.182.237.469a2.056 2.056 0 01-.014.247q-.041.339-.206.485a.894.894 0 01-.212.138q-.184.087-.447.131-.361.06-1.214.35a33.229 33.229 0 00-.397.138q-1.172.415-2.539 1.196a1.486 1.486 0 01-.187.107q-.187.089-.351.089-.683 0-.683-.977v-1.172a.383.383 0 00-.006-.07q-.022-.118-.128-.125a.205.205 0 00-.013 0 .081.081 0 00-.029.009q-.068.032-.265.172a11.023 11.023 0 00-.12.087 8.274 8.274 0 01-.281.197q-.296.198-.696.438a13.408 13.408 0 01-.653.366 17.894 17.894 0 01-.739.367 7.798 7.798 0 01-.748.301q-.393.137-.847.256a14.438 14.438 0 01-.309.077 9.833 9.833 0 01-2.295.269 8.171 8.171 0 01-2.577-.391 6.882 6.882 0 01-2.55-1.513 7.512 7.512 0 01-1.95-3.017 10.89 10.89 0 01-.54-2.306 29.908 29.908 0 01-.138-2.279 34.262 34.262 0 01-.009-.797 136.058 136.058 0 01.001-.434q.004-1.13.024-3.887.023-3.203.024-3.644a15.174 15.174 0 000-.043q0-.927-1.367-1.416a3.631 3.631 0 00-.139-.051q-.233-.083-.618-.193a4.436 4.436 0 01-.22-.068q-.312-.107-.428-.214a.355.355 0 01-.011-.011.396.396 0 01-.083-.129q-.052-.123-.061-.316a1.856 1.856 0 01-.003-.092zm257.129-2.783h.293a.54.54 0 01.502.302q.118.213.153.577a2.855 2.855 0 01.004.049q.032.402.169.63a.589.589 0 00.539.297h10.938a2.332 2.332 0 01.379.028q.695.115.695.705 0 .144-.285.717a12.547 12.547 0 01-.008.015 4844.648 4844.648 0 01-3.784 5.139 5814.897 5814.897 0 01-4.028 5.457q-3.208 4.321-3.489 4.903a.225.225 0 00-.027.077.51.51 0 00.068.271q.124.204.475.252a1.761 1.761 0 00.238.015h7.227a2.496 2.496 0 01.082.001q.138.005.357.023.261.022.329.024a.399.399 0 00.013 0q.325 0 .524-.124a.607.607 0 00.209-.217 1.276 1.276 0 00.085-.192q.127-.347.254-1.065a19.091 19.091 0 00.051-.306 24.142 24.142 0 01.049-.326q.068-.436.137-.753a7.959 7.959 0 01.01-.044q.244-.781.878-.781 1.146 0 1.172.793a1.137 1.137 0 010 .037q0 .041-.053.313a23.767 23.767 0 01-.02.102 6.386 6.386 0 00-.037.201q-.037.227-.075.531a23.192 23.192 0 00-.034.293 194.7 194.7 0 01-.074.656q-.04.343-.084.724a320.803 320.803 0 01-.013.11 28.811 28.811 0 00-.07.663q-.055.588-.101 1.29a34.504 34.504 0 00-.073 2.246 38.664 38.664 0 00.006.702 29.46 29.46 0 00.018.641q.019.467.023.777a12.443 12.443 0 01.001.175v.439q0 .977-1.513.977a1.126 1.126 0 01-.334-.045q-.496-.154-.496-.834v-3.028q0-.709-.78-.731a1.796 1.796 0 00-.05-.001h-11.622q-1.408 0-1.506-1.014a1.637 1.637 0 01-.007-.158.812.812 0 01.037-.22q.123-.422.646-1.245l10.157-13.769a1.777 1.777 0 00.161-.183q.167-.221.179-.42a.51.51 0 00.001-.032.727.727 0 00-.08-.353q-.207-.379-.945-.379h-5.957q-.391 0-.562.293a1.317 1.317 0 00-.081.172q-.135.338-.285 1.048a44.288 44.288 0 00-.046.232q-.064.33-.1.55-.244.781-.879.781-.879 0-.879-.635 0-.042.036-.244a14.149 14.149 0 01.013-.073 17.636 17.636 0 00.026-.147q.041-.238.096-.586a27.588 27.588 0 00.069-.461q.034-.243.068-.511a45.115 45.115 0 00.009-.078q.051-.402.09-.909a30.388 30.388 0 00.032-.482 27.037 27.037 0 00.049-1.636V14.16q0-.709.78-.731a1.796 1.796 0 01.05-.001zm71.485 0h.293a.54.54 0 01.501.302q.118.213.154.577a2.855 2.855 0 01.004.049q.032.402.169.63a.589.589 0 00.539.297h10.937a2.332 2.332 0 01.379.028q.696.115.696.705 0 .144-.286.717a12.547 12.547 0 01-.007.015 4844.648 4844.648 0 01-3.785 5.139 5814.897 5814.897 0 01-4.028 5.457q-3.207 4.321-3.488 4.903a.225.225 0 00-.028.077.51.51 0 00.068.271q.125.204.476.252a1.761 1.761 0 00.238.015h7.226a2.496 2.496 0 01.083.001q.137.005.357.023.261.022.328.024a.399.399 0 00.014 0q.324 0 .524-.124a.607.607 0 00.208-.217 1.276 1.276 0 00.085-.192q.127-.347.254-1.065a19.091 19.091 0 00.052-.306 24.142 24.142 0 01.048-.326q.069-.436.137-.753a7.959 7.959 0 01.01-.044q.244-.781.879-.781 1.145 0 1.171.793a1.137 1.137 0 01.001.037q0 .041-.053.313a23.767 23.767 0 01-.021.102 6.386 6.386 0 00-.036.201q-.038.227-.076.531a23.192 23.192 0 00-.034.293 194.7 194.7 0 01-.074.656q-.039.343-.084.724a320.803 320.803 0 01-.013.11 28.811 28.811 0 00-.07.663q-.055.588-.101 1.29a34.504 34.504 0 00-.073 2.246 38.664 38.664 0 00.006.702 29.46 29.46 0 00.018.641q.019.467.023.777a12.443 12.443 0 01.002.175v.439q0 .977-1.514.977a1.126 1.126 0 01-.333-.045q-.497-.154-.497-.834v-3.028q0-.709-.78-.731a1.796 1.796 0 00-.05-.001h-11.621q-1.408 0-1.507-1.014a1.637 1.637 0 01-.007-.158.812.812 0 01.038-.22q.122-.422.646-1.245l10.156-13.769a1.777 1.777 0 00.161-.183q.167-.221.18-.42a.51.51 0 00.001-.032.727.727 0 00-.081-.353q-.207-.379-.945-.379h-5.957q-.39 0-.561.293a1.317 1.317 0 00-.082.172q-.135.338-.284 1.048a44.288 44.288 0 00-.046.232q-.064.33-.101.55-.244.781-.879.781-.879 0-.879-.635 0-.042.036-.244a14.149 14.149 0 01.013-.073 17.636 17.636 0 00.026-.147q.041-.238.096-.586a27.588 27.588 0 00.069-.461q.034-.243.068-.511a45.115 45.115 0 00.01-.078q.05-.402.089-.909a30.388 30.388 0 00.033-.482 27.037 27.037 0 00.049-1.636V14.16q0-.709.779-.731a1.796 1.796 0 01.051-.001zm-40.235 8.301v9.863a3.703 3.703 0 00.041.564q.077.5.301.852a2.887 2.887 0 00.187.263q.248.308.497.396a2.042 2.042 0 00.598.12 1.915 1.915 0 00.085.002 1.813 1.813 0 00.454-.053 1.268 1.268 0 00.621-.362 4.48 4.48 0 00.347-.415 3.342 3.342 0 00.263-.415q.113-.213.245-.317a.426.426 0 01.268-.098q.366 0 .427.442a1.423 1.423 0 01.012.193 3.042 3.042 0 01-.191 1.028q-.152.422-.423.87a7.254 7.254 0 01-.46.665 3.677 3.677 0 01-1.041.939 3.368 3.368 0 01-1.742.453 3.835 3.835 0 01-1.221-.195 3.648 3.648 0 01-.507-.21 2.664 2.664 0 01-.47-.303 16.67 16.67 0 01-.372-.311 13.254 13.254 0 01-.336-.299 6.748 6.748 0 01-.221-.213q-.169-.172-.291-.324l-.147-.196a.147.147 0 01-.016-.001q-.016-.001-.025-.007a.019.019 0 01-.008-.016q0-.022-.038-.024a.164.164 0 00-.011-.001q-.097 0-.146.098-.04.079-.24.287a7.969 7.969 0 01-.102.104 3.229 3.229 0 01-.242.217q-.244.198-.588.417a8.893 8.893 0 01-3.173 1.241 8.437 8.437 0 01-1.466.127 6.524 6.524 0 01-1.905-.266 5.19 5.19 0 01-2.221-1.346 5.414 5.414 0 01-1.586-3.918 6.902 6.902 0 010-.037v-.049q0-2.832 2.099-4.443.623-.498 1.564-.908a10.816 10.816 0 01.34-.142 14.747 14.747 0 011.961-.626 13.305 13.305 0 01.359-.082 53.352 53.352 0 011.386-.276 44.462 44.462 0 01.787-.139 28.016 28.016 0 01.664-.103q.298-.042.559-.071a12.265 12.265 0 01.486-.046l.683-.048a.465.465 0 00.339-.323q.034-.097.046-.222a1.502 1.502 0 00.006-.139v-1.807a9.183 9.183 0 00-.123-1.555q-.257-1.492-1.049-2.449a4.201 4.201 0 00-1.24-.94 3.804 3.804 0 00-1.69-.378 3.933 3.933 0 00-2.835 1.217q-.554.546-1.037 1.335a10.299 10.299 0 00-.425.768 1.679 1.679 0 01-.325.334 1.208 1.208 0 01-.749.252 2.167 2.167 0 01-1.391-.488q-.611-.488-.611-1.318 0-1.285 1.822-2.589a11.028 11.028 0 01.546-.365 9.747 9.747 0 015.298-1.49 9.567 9.567 0 011.661.15 10.728 10.728 0 01.244.046 10.363 10.363 0 01.888.222q.458.134.962.32a19.261 19.261 0 01.371.141 4.524 4.524 0 011.823 1.328 5.617 5.617 0 01.277.357 5.615 5.615 0 01.837 1.791 7.332 7.332 0 01.213 1.114q.08.966.094 1.567a10.223 10.223 0 01.003.24zM71.976 35.498v-.146q0-.635.317-.806a1.029 1.029 0 01.188-.072q.327-.098 1.04-.188a23.401 23.401 0 01.506-.057 2.841 2.841 0 00.401-.072q.545-.142.746-.49a1.672 1.672 0 00.159-.387q.106-.38.11-.921a5.673 5.673 0 000-.035V6.885a1.531 1.531 0 00-.008-.155 1.198 1.198 0 00-.017-.114q-.024-.122-.073-.219a1.835 1.835 0 01-.033-.07q-.025-.055-.04-.101a.167.167 0 00-.028-.05q-.032-.041-.094-.081a.735.735 0 00-.025-.016q-.109-.065-.179-.111a2.518 2.518 0 01-.016-.011q-.06-.04-.219-.129a14.814 14.814 0 00-.074-.042 21.345 21.345 0 00-.102-.056q-.142-.078-.215-.115a42.686 42.686 0 00-.507-.299 51.456 51.456 0 00-.543-.311 34.002 34.002 0 01-.259-.148q-.357-.206-.522-.316a22.639 22.639 0 01-.226-.152 27.136 27.136 0 01-.238-.165q-.191-.134-.277-.237a.449.449 0 01-.041-.056q-.073-.122-.073-.269v-.048a.21.21 0 01.071-.124q.238-.254 1.272-.822a32.636 32.636 0 01.513-.275 138.227 138.227 0 002.754-1.385 115.806 115.806 0 001.543-.812A1.122 1.122 0 0178.421 0a.703.703 0 01.321.069q.294.148.35.619a2.037 2.037 0 01.013.24v31.641a5.839 5.839 0 00.003.198q.006.165.021.29.025.195.074.366.046.163.093.26a.758.758 0 00.004.009q.044.088.188.176a1.182 1.182 0 00.032.019 10.307 10.307 0 01.079.046q.105.061.16.097a1.227 1.227 0 01.005.003.32.32 0 00.042.023q.075.035.233.081a4.83 4.83 0 00.067.019 14.574 14.574 0 00.125.033q.165.044.256.062a1.741 1.741 0 00.01.002q.122.025.537.073.415.049.61.098.83.147.83 1.025a2.434 2.434 0 01-.021.332q-.051.369-.228.527a.488.488 0 01-.337.118.55.55 0 01-.026-.001q-.06-.003-.218-.017a27.257 27.257 0 01-.073-.006 20.684 20.684 0 01-.145-.014q-.201-.02-.472-.05a68.116 68.116 0 01-.091-.01 42.533 42.533 0 00-.464-.048 57.264 57.264 0 00-.513-.049 16.809 16.809 0 00-.43-.033q-.382-.025-.839-.041a43.099 43.099 0 00-1.245-.024 38.783 38.783 0 00-.171 0 38.303 38.303 0 00-1.368.024 153.276 153.276 0 00-.608.023q-.286.012-.54.023a89.351 89.351 0 00-.072.003 16.598 16.598 0 00-.447.026q-.204.015-.386.034a9.623 9.623 0 00-.119.014q-.415.048-.66.073-.244.024-.293.024a.864.864 0 01-.316-.053q-.376-.148-.412-.703a1.892 1.892 0 01-.004-.123zm11.914 0v-.146q0-.635.317-.806a1.029 1.029 0 01.188-.072q.327-.098 1.04-.188a23.401 23.401 0 01.506-.057 2.841 2.841 0 00.401-.072q.545-.142.746-.49a1.672 1.672 0 00.159-.387q.106-.38.11-.921a5.673 5.673 0 000-.035V6.885a1.531 1.531 0 00-.008-.155 1.198 1.198 0 00-.017-.114q-.024-.122-.073-.219a1.835 1.835 0 01-.033-.07q-.025-.055-.04-.101a.167.167 0 00-.028-.05q-.032-.041-.094-.081a.735.735 0 00-.024-.016q-.11-.065-.18-.111a2.518 2.518 0 01-.016-.011q-.06-.04-.219-.129a14.814 14.814 0 00-.074-.042 21.345 21.345 0 00-.102-.056q-.142-.078-.215-.115a42.686 42.686 0 00-.507-.299 51.456 51.456 0 00-.543-.311 34.002 34.002 0 01-.259-.148q-.357-.206-.522-.316a22.639 22.639 0 01-.226-.152 27.136 27.136 0 01-.238-.165q-.191-.134-.277-.237a.449.449 0 01-.04-.056q-.074-.122-.074-.269v-.048a.21.21 0 01.071-.124q.238-.254 1.272-.822a32.636 32.636 0 01.513-.275 138.227 138.227 0 002.754-1.385 115.806 115.806 0 001.543-.812A1.122 1.122 0 0190.335 0a.703.703 0 01.321.069q.294.148.35.619a2.037 2.037 0 01.013.24v31.641a5.839 5.839 0 00.003.198q.006.165.021.29.025.195.074.366.046.163.093.26a.758.758 0 00.004.009q.044.088.188.176a1.182 1.182 0 00.032.019 10.307 10.307 0 01.079.046q.105.061.16.097a1.227 1.227 0 01.005.003.32.32 0 00.042.023q.075.035.233.081a4.83 4.83 0 00.067.019 14.574 14.574 0 00.125.033q.165.044.256.062a1.741 1.741 0 00.01.002q.122.025.537.073.415.049.61.098.83.147.83 1.025a2.434 2.434 0 01-.02.332q-.052.369-.229.527a.488.488 0 01-.337.118.55.55 0 01-.026-.001q-.06-.003-.218-.017a27.257 27.257 0 01-.073-.006 20.684 20.684 0 01-.145-.014q-.201-.02-.472-.05a68.116 68.116 0 01-.091-.01 42.533 42.533 0 00-.464-.048 57.264 57.264 0 00-.513-.049 16.809 16.809 0 00-.43-.033q-.382-.025-.839-.041a43.099 43.099 0 00-1.245-.024 38.783 38.783 0 00-.171 0 38.303 38.303 0 00-1.367.024 153.276 153.276 0 00-.609.023q-.286.012-.54.023a89.351 89.351 0 00-.072.003 16.598 16.598 0 00-.447.026q-.204.015-.386.034a9.623 9.623 0 00-.119.014q-.415.048-.66.073-.244.024-.292.024a.864.864 0 01-.317-.053q-.376-.148-.412-.703a1.892 1.892 0 01-.004-.123zm244.092 0v-.146q0-.635.317-.806a1.029 1.029 0 01.187-.072q.328-.098 1.04-.188a23.401 23.401 0 01.507-.057 2.841 2.841 0 00.401-.072q.545-.142.746-.49a1.672 1.672 0 00.158-.387q.107-.38.111-.921a5.673 5.673 0 000-.035V6.885a1.531 1.531 0 00-.008-.155 1.198 1.198 0 00-.017-.114q-.024-.122-.073-.219a1.835 1.835 0 01-.033-.07q-.025-.055-.04-.101a.167.167 0 00-.028-.05q-.032-.041-.094-.081a.735.735 0 00-.025-.016q-.109-.065-.179-.111a2.518 2.518 0 01-.016-.011q-.06-.04-.219-.129a14.814 14.814 0 00-.074-.042 21.345 21.345 0 00-.102-.056q-.142-.078-.215-.115a42.686 42.686 0 00-.507-.299 51.456 51.456 0 00-.543-.311 34.002 34.002 0 01-.26-.148q-.357-.206-.521-.316a22.639 22.639 0 01-.226-.152 27.136 27.136 0 01-.238-.165q-.191-.134-.277-.237a.449.449 0 01-.041-.056q-.073-.122-.073-.269v-.048a.21.21 0 01.071-.124q.237-.254 1.272-.822a32.636 32.636 0 01.513-.275 138.227 138.227 0 002.754-1.385 115.806 115.806 0 001.542-.812 1.122 1.122 0 01.635-.196.703.703 0 01.321.069q.294.148.35.619a2.037 2.037 0 01.013.24v31.641a5.839 5.839 0 00.003.198q.006.165.021.29.025.195.073.366.047.163.094.26a.758.758 0 00.004.009q.044.088.188.176a1.182 1.182 0 00.032.019 10.307 10.307 0 01.079.046q.105.061.159.097a1.227 1.227 0 01.006.003.32.32 0 00.041.023q.076.035.233.081a4.83 4.83 0 00.068.019 14.574 14.574 0 00.125.033q.165.044.256.062a1.741 1.741 0 00.009.002q.122.025.538.073.415.049.61.098.83.147.83 1.025a2.434 2.434 0 01-.021.332q-.051.369-.228.527a.488.488 0 01-.337.118.55.55 0 01-.026-.001q-.06-.003-.218-.017a27.257 27.257 0 01-.073-.006 20.684 20.684 0 01-.145-.014q-.201-.02-.473-.05a68.116 68.116 0 01-.09-.01 42.533 42.533 0 00-.464-.048 57.264 57.264 0 00-.513-.049 16.809 16.809 0 00-.43-.033q-.382-.025-.839-.041a43.099 43.099 0 00-1.245-.024 38.783 38.783 0 00-.171 0 38.303 38.303 0 00-1.368.024 153.276 153.276 0 00-.608.023q-.286.012-.54.023a89.351 89.351 0 00-.072.003 16.598 16.598 0 00-.447.026q-.204.015-.386.034a9.623 9.623 0 00-.12.014q-.415.048-.659.073-.244.024-.293.024a.864.864 0 01-.316-.053q-.376-.148-.412-.703a1.892 1.892 0 01-.004-.123zM114.261 20.459v.098q0 .439-.244.781a1.521 1.521 0 01-.258.275q-.213.18-.523.335-.406.203-.728.337a6.458 6.458 0 01-.2.079 12.889 12.889 0 01-.218.079q-.249.088-.595.202a54.592 54.592 0 01-.334.109 75.282 75.282 0 01-.264.085q-.488.155-.661.201a1.991 1.991 0 01-.028.007q-10.205 3.516-10.449 3.662a.422.422 0 00-.101.069.294.294 0 00-.094.224 1.86 1.86 0 00.009.171q.027.287.133.783a15.761 15.761 0 00.004.023 5.08 5.08 0 00.128.47q.154.485.436 1.123a18.953 18.953 0 00.096.213q.512 1.123 1.269 2.076a5.187 5.187 0 00.905.878q.549.422 1.268.782a6.745 6.745 0 002.421.674 8.212 8.212 0 00.753.034q3.418 0 5.957-2.442a4.697 4.697 0 01.307-.283q.479-.4.816-.4.83 0 .83.732a.614.614 0 01-.034.191q-.06.18-.221.41a3.54 3.54 0 01-.136.18q-1.562 2.051-3.906 3.247-2.344 1.197-4.932 1.197a9.305 9.305 0 01-3.247-.586 10.072 10.072 0 01-2.112-1.09 12.397 12.397 0 01-.964-.717 7.05 7.05 0 01-1.398-1.572q-.485-.73-.871-1.641a12.553 12.553 0 01-.123-.302q-.904-2.295-.904-5.323a15.613 15.613 0 01.362-3.459q.624-2.748 2.324-4.695 2.685-3.076 6.543-3.076a9.103 9.103 0 014.353 1.123 10.896 10.896 0 01.432.244q2.295 1.367 3.809 3.418.39.488.39 1.074zm244.092 0v.098q0 .439-.244.781a1.521 1.521 0 01-.258.275q-.213.18-.523.335-.406.203-.729.337a6.458 6.458 0 01-.199.079 12.889 12.889 0 01-.218.079q-.249.088-.595.202a54.592 54.592 0 01-.335.109 75.282 75.282 0 01-.264.085q-.487.155-.66.201a1.991 1.991 0 01-.028.007q-10.205 3.516-10.449 3.662a.422.422 0 00-.101.069.294.294 0 00-.094.224 1.86 1.86 0 00.009.171q.027.287.132.783a15.761 15.761 0 00.005.023 5.08 5.08 0 00.128.47q.154.485.436 1.123a18.953 18.953 0 00.095.213q.513 1.123 1.27 2.076a5.187 5.187 0 00.905.878q.549.422 1.268.782a6.745 6.745 0 002.421.674 8.212 8.212 0 00.753.034q3.418 0 5.957-2.442a4.697 4.697 0 01.307-.283q.479-.4.816-.4.83 0 .83.732a.614.614 0 01-.035.191q-.059.18-.22.41a3.54 3.54 0 01-.136.18q-1.562 2.051-3.906 3.247-2.344 1.197-4.932 1.197a9.305 9.305 0 01-3.247-.586 10.072 10.072 0 01-2.112-1.09 12.397 12.397 0 01-.964-.717 7.05 7.05 0 01-1.399-1.572q-.484-.73-.87-1.641a12.553 12.553 0 01-.124-.302q-.903-2.295-.903-5.323a15.613 15.613 0 01.362-3.459q.624-2.748 2.324-4.695 2.685-3.076 6.543-3.076a9.103 9.103 0 014.353 1.123 10.896 10.896 0 01.432.244q2.295 1.367 3.808 3.418.391.488.391 1.074zm-225.195-4.443v.049q0 .293-.196.586-.195.293-.341.439a3.726 3.726 0 01-.086.082q-.146.138-.403.358l-.342.292a.083.083 0 00-.03.012q-.095.051-.434.317a21.397 21.397 0 00-.048.038 5.969 5.969 0 01-.278.207q-.144.101-.274.176a2.362 2.362 0 01-.254.129 1.839 1.839 0 01-.732.147 1.348 1.348 0 01-.463-.089q-.38-.139-.818-.495a5.011 5.011 0 01-.062-.051q-.757-.635-1.636-.635a3.419 3.419 0 00-1.075.184q-.59.195-1.22.598a14.631 14.631 0 00-.539.361q-.747.526-1.011.891a1.33 1.33 0 00-.012.017q-.196.293-.196.928v12.158a2.422 2.422 0 00.059.556q.18.76.913.921a1.841 1.841 0 00.249.037q.374.037.948.075a59.392 59.392 0 00.371.022q1.255.081 1.754.213a1.395 1.395 0 01.174.056.6.6 0 01.334.351q.081.202.081.503 0 .95-.646.976a.919.919 0 01-.037.001.55.55 0 01-.026-.001q-.06-.003-.218-.017a27.257 27.257 0 01-.074-.006 43.973 43.973 0 01-.148-.014q-.167-.016-.392-.038a168.238 168.238 0 01-.217-.022 57.264 57.264 0 00-.512-.048 75.071 75.071 0 00-.562-.049q-.586-.049-1.391-.074a54.63 54.63 0 00-.788-.018 47.322 47.322 0 00-.75-.006 50.021 50.021 0 00-1.563.024 35.476 35.476 0 00-.651.026q-.298.015-.566.034a20.917 20.917 0 00-.175.014 54.619 54.619 0 00-.506.042q-.23.021-.434.042a30.282 30.282 0 00-.134.013q-.464.049-.732.074a25.886 25.886 0 01-.093.008q-.16.014-.211.016a.374.374 0 01-.014 0q-.83 0-.83-.83 0-.28.08-.471a.664.664 0 01.116-.188 1.465 1.465 0 01.134-.134q.076-.066.152-.11a.708.708 0 01.104-.049 1.166 1.166 0 01.116-.036q.195-.05.561-.1a12.608 12.608 0 01.08-.011q.562-.073.903-.171.77-.162.901-.861a1.684 1.684 0 00.027-.31V19.873a2.873 2.873 0 00-.005-.171q-.01-.168-.041-.283a.801.801 0 00-.003-.01q-.044-.155-.229-.35a2.084 2.084 0 00-.039-.04q-.22-.22-.44-.366-.179-.12-.636-.435a213.467 213.467 0 01-.218-.151q-.635-.44-1.172-.83a.724.724 0 01-.195-.342.168.168 0 01.07-.099q.305-.27 1.932-1.024a393.246 393.246 0 001.721-.843 289.638 289.638 0 001.55-.769.146.146 0 00.03-.003q.046-.01.117-.045a1.728 1.728 0 01.091-.043q.128-.055.202-.055.585 0 .585 1.025v2.002a.608.608 0 00.006.083q.012.092.057.132a.122.122 0 00.084.029q.049 0 1.074-.708a95.024 95.024 0 011.087-.738 127.55 127.55 0 011.208-.8 23.126 23.126 0 01.588-.372q.827-.506 1.268-.653.455-.152 1.088-.186a7.068 7.068 0 01.376-.009 6.016 6.016 0 012.637.61q1.27.61 1.27 1.587zm37.814 6.032a12.885 12.885 0 00-.558 3.88 14.454 14.454 0 00.011.58 11.156 11.156 0 002.943 7.33 9.595 9.595 0 003.871 2.606 11.089 11.089 0 003.77.617q4.444 0 7.544-3.003 3.101-3.003 3.101-8.13a14.991 14.991 0 00-.125-1.968 10.982 10.982 0 00-2.854-6.211 9.896 9.896 0 00-3.298-2.373 10.324 10.324 0 00-4.172-.825q-4.395 0-7.593 3.174a10.4 10.4 0 00-2.64 4.323zm70.362 0a12.885 12.885 0 00-.559 3.88 14.454 14.454 0 00.011.58 11.156 11.156 0 002.943 7.33 9.595 9.595 0 003.872 2.606 11.089 11.089 0 003.77.617q4.443 0 7.544-3.003 3.1-3.003 3.1-8.13a14.991 14.991 0 00-.125-1.968 10.982 10.982 0 00-2.853-6.211 9.896 9.896 0 00-3.299-2.373 10.324 10.324 0 00-4.172-.825q-4.395 0-7.593 3.174a10.4 10.4 0 00-2.639 4.323zM63.675 32.422v-7.08a334.359 334.359 0 01.002-1.039q.003-1.01.013-1.767a92.976 92.976 0 01.01-.636q.021-1.066.024-1.398a10.489 10.489 0 000-.092 1.229 1.229 0 00-.031-.284q-.046-.195-.163-.329a.712.712 0 00-.172-.143q-.312-.187-2.269-.994a203.707 203.707 0 00-.734-.3q-.493-.19-.603-.468a.45.45 0 01-.032-.167.624.624 0 01.043-.224.766.766 0 01.03-.069.53.53 0 01.134-.168.728.728 0 01.111-.076 7.49 7.49 0 01.164-.092 5.687 5.687 0 01.153-.079q.143-.072.38-.167a9.836 9.836 0 01.011-.004q.224-.09.325-.139a1.284 1.284 0 00.016-.008 2865.361 2865.361 0 011.283-.618q3.724-1.793 4.174-1.993a.491.491 0 01.061-.025h.049a.795.795 0 01.297.051q.346.138.382.654a1.791 1.791 0 01.004.125l-.048 1.611q-.098 1.611-.171 4.321-.074 2.71-.074 5.396v1.66q0 4.132.117 5.242a3.352 3.352 0 00.03.227 1.336 1.336 0 00.139.414q.244.444.837.514 1.191.158 1.672.285a1.948 1.948 0 01.184.056q.347.13.386.607a1.548 1.548 0 01.005.126q0 .665-.225.919a.46.46 0 01-.361.155.499.499 0 01-.026-.001q-.057-.003-.201-.017a20.703 20.703 0 01-.066-.006 32.922 32.922 0 01-.135-.014q-.219-.023-.549-.06a42.533 42.533 0 00-.464-.048 57.264 57.264 0 00-.513-.049q-.461-.042-1.049-.066a31.488 31.488 0 00-.196-.008 40.387 40.387 0 00-1.391-.024 41.99 41.99 0 00-1.234.019 46.549 46.549 0 00-.182.005q-.561.019-.993.052a13.57 13.57 0 00-.252.022 68.545 68.545 0 00-.495.049 54.542 54.542 0 00-.458.048q-.439.049-.683.074-.244.024-.293.024a1.057 1.057 0 01-.314-.043q-.467-.145-.467-.787 0-.791.288-.961a.326.326 0 01.029-.016 1.167 1.167 0 01.173-.058q.456-.124 1.784-.304a62.615 62.615 0 01.216-.028 3.327 3.327 0 00.376-.084q.394-.114.593-.307a.685.685 0 00.13-.171 1.515 1.515 0 00.12-.317q.085-.318.097-.775a5.838 5.838 0 00.002-.153zm117.426 2.197a7.491 7.491 0 00.055 0 6.124 6.124 0 004.627-1.994 8.053 8.053 0 00.451-.52 9.182 9.182 0 001.987-5.393 11.599 11.599 0 00.015-.589q0-3.906-2.222-6.567a8.565 8.565 0 00-1.611-1.515 5.994 5.994 0 00-3.54-1.146q-2.442 0-4.517 2.148-2.075 2.149-2.075 6.641a13.137 13.137 0 00.291 2.839 9.105 9.105 0 001.613 3.582q1.888 2.492 4.926 2.514zm70.361 0a7.491 7.491 0 00.055 0 6.124 6.124 0 004.627-1.994 8.053 8.053 0 00.451-.52 9.182 9.182 0 001.987-5.393 11.599 11.599 0 00.015-.589q0-3.906-2.222-6.567a8.565 8.565 0 00-1.611-1.515 5.994 5.994 0 00-3.54-1.146q-2.441 0-4.517 2.148-2.075 2.149-2.075 6.641a13.137 13.137 0 00.291 2.839 9.105 9.105 0 001.614 3.582q1.887 2.492 4.925 2.514zM109.427 20.655a.788.788 0 00-.103-.356q-.259-.498-1.168-1.266a15.897 15.897 0 00-.438-.356 6.807 6.807 0 00-1.468-.894 5.173 5.173 0 00-2.096-.449 3.931 3.931 0 00-3.065 1.356 5.258 5.258 0 00-.426.549 6.747 6.747 0 00-.885 1.937q-.409 1.419-.409 3.287a.935.935 0 00.008.133q.037.258.236.258a.598.598 0 00.094-.028q.574-.195 4.569-1.754a5109.883 5109.883 0 011.072-.419q3-1.17 3.53-1.372a4.457 4.457 0 01.11-.041 1.314 1.314 0 00.192-.128q.099-.08.158-.169a.511.511 0 00.089-.288zm244.092 0a.788.788 0 00-.103-.356q-.26-.498-1.168-1.266a15.897 15.897 0 00-.438-.356 6.807 6.807 0 00-1.468-.894 5.173 5.173 0 00-2.096-.449 3.931 3.931 0 00-3.065 1.356 5.258 5.258 0 00-.427.549 6.747 6.747 0 00-.884 1.937q-.41 1.419-.41 3.287a.935.935 0 00.009.133q.037.258.236.258a.598.598 0 00.094-.028q.574-.195 4.569-1.754a5109.883 5109.883 0 011.072-.419q2.999-1.17 3.53-1.372a4.457 4.457 0 01.11-.041 1.314 1.314 0 00.192-.128q.098-.08.158-.169a.511.511 0 00.089-.288zm-34.57 10.546V27.93q0-.79-.053-1.102a1.003 1.003 0 00-.021-.094.35.35 0 00-.092-.164q-.106-.102-.311-.105a.855.855 0 00-.012 0q-1.22 0-3.051.391-1.695.361-2.741 1.266a4.535 4.535 0 00-.165.15 3.183 3.183 0 00-1.123 2.052 4.63 4.63 0 00-.048.682q0 1.856 1.025 2.734.683.635 2.148.635a4.782 4.782 0 002.124-.488 11.222 11.222 0 00.463-.238q.472-.259.756-.487a2.173 2.173 0 00.173-.154 14.739 14.739 0 00.272-.279q.21-.221.363-.405.293-.39.293-1.123zM64.164 5.225q0-.977.732-1.66a2.426 2.426 0 011.709-.684q.977 0 1.685.684.708.683.708 1.611a2.435 2.435 0 01-.175.933 2.271 2.271 0 01-.533.776q-.708.684-1.734.684a2.621 2.621 0 01-.879-.143 2.279 2.279 0 01-.83-.517 2.206 2.206 0 01-.679-1.526 2.953 2.953 0 01-.004-.158z" vector-effect="non-scaling-stroke" stroke-linecap="round" fill-rule="evenodd" font-size="12" stroke="#000" stroke-width=".25mm" fill="none" class="wtSdjbkn_0"></path><style data-made-with="vivus-instant">.wtSdjbkn_0{stroke-dasharray:2194 2196;stroke-dashoffset:2195;animation:wtSdjbkn_draw 3000ms linear 0ms forwards;}@keyframes wtSdjbkn_draw{100%{stroke-dashoffset:0;}}@keyframes wtSdjbkn_fade{0%{stroke-opacity:1;}93.10344827586206%{stroke-opacity:1;}100%{stroke-opacity:0;}}</style></svg>