<svg width="207.7" height="75.2" xmlns="http://www.w3.org/2000/svg"><path d="M25.7 74L0 6.5l9.3-3.6 22 60.7L53.4 3.2 62 6.5 36.4 74H25.7zm135.1 0V0h9v27.4a17.447 17.447 0 01.971-.982q.514-.482 1.117-.982a29.965 29.965 0 01.412-.336 19.429 19.429 0 012.669-1.785 22.041 22.041 0 01.681-.365 18.788 18.788 0 012.488-1.051 23.04 23.04 0 011.662-.499 18.56 18.56 0 013.271-.535 22.623 22.623 0 011.729-.065q4.5 0 8.65 1.8t7.3 5.2a23.706 23.706 0 013.596 5.152A29.885 29.885 0 01205.8 36.2q1.9 5 1.9 11.3a33.315 33.315 0 01-.687 6.888A27.75 27.75 0 01205.7 58.8a30.149 30.149 0 01-3.008 5.809 25.829 25.829 0 01-2.292 2.941q-3.3 3.65-7.55 5.65a20.584 20.584 0 01-6.596 1.89 19.225 19.225 0 01-2.054.11 22.394 22.394 0 01-7.923-1.395 21.462 21.462 0 01-.527-.205q-3.95-1.6-6.55-3.9V74h-8.4zm-52.2-22.3H72.2a24.088 24.088 0 001.139 5.025q1.336 3.813 3.961 6.375 4.2 4.1 11.1 4.1 4.5 0 8.1-.95 3.6-.95 6.9-2.45l2.1 7.7a35.406 35.406 0 01-4.819 1.842 44.267 44.267 0 01-3.281.858 40.711 40.711 0 01-5.092.78 54.607 54.607 0 01-5.008.22 29.178 29.178 0 01-5.796-.553A23.608 23.608 0 0177.2 73.35q-4.5-1.85-7.65-5.3a22.127 22.127 0 01-3.646-5.5 27.574 27.574 0 01-1.204-3 31.581 31.581 0 01-1.351-5.957A42.813 42.813 0 0163 48a34.878 34.878 0 01.804-7.597A30.597 30.597 0 0164.7 37.2a27.699 27.699 0 012.814-5.949A24.152 24.152 0 0169.5 28.55q3.1-3.65 7.4-5.7 4.3-2.05 9.6-2.05a27.908 27.908 0 014.904.411A20.619 20.619 0 0196.3 22.7q4.2 1.9 7 5.2 2.8 3.3 4.2 7.7a30.348 30.348 0 011.397 8.842 34.055 34.055 0 01.003.458 75.204 75.204 0 01-.291 6.697 69.426 69.426 0 01-.009.103zm43.2-30.3l-2.7 9.3a9.763 9.763 0 00-2.145-.612q-1.096-.188-2.355-.188-2.8 0-5.45 1.2a13.202 13.202 0 00-4.112 2.949 15.59 15.59 0 00-.588.651q-1.989 2.329-3.225 5.928a26.039 26.039 0 00-.075.222 22.895 22.895 0 00-.897 3.812q-.287 1.892-.341 4.035a40 40 0 00-.012 1.003V74h-9V22h8.7v11.3q.9-2.4 2.4-4.7 1.5-2.3 3.55-4a16.676 16.676 0 013.841-2.37 19.32 19.32 0 01.909-.38q2.7-1.05 6-1.05 1.5 0 2.95.15a19.695 19.695 0 011.202.16q.592.099 1.112.228a11.443 11.443 0 01.236.062zm18 14v27.8a17.99 17.99 0 003.63 2.185 21.802 21.802 0 001.77.715 19.462 19.462 0 006.164 1.096 22.039 22.039 0 00.436.004 16.26 16.26 0 005.818-1.034 15.526 15.526 0 00.882-.366q3.1-1.4 5.3-3.95a17.95 17.95 0 002.742-4.336 21.678 21.678 0 00.708-1.764 21.806 21.806 0 001.072-4.754 27.857 27.857 0 00.178-3.196q0-4.5-1.25-8.05-1.25-3.55-3.4-6.05t-5-3.8q-2.85-1.3-6.05-1.3a14.741 14.741 0 00-5.627 1.063 14.054 14.054 0 00-2.123 1.087q-3.45 2.15-5.25 4.65zm-97.7 9h28.5a24.355 24.355 0 00-.404-4.585q-.496-2.584-1.6-4.608A12.422 12.422 0 0096.8 32.7a12.488 12.488 0 00-6.961-3.776A18.395 18.395 0 0086.3 28.6q-5.9 0-9.65 4a14.739 14.739 0 00-2.793 4.405q-.825 1.956-1.305 4.356A32.287 32.287 0 0072.1 44.4z" vector-effect="non-scaling-stroke" stroke-linecap="round" fill-rule="evenodd" font-size="12" stroke="#000" stroke-width=".25mm"/></svg>