<?xml version="1.0" encoding="utf-8"?><svg xmlns="http://www.w3.org/2000/svg" xmlns:xlink="http://www.w3.org/1999/xlink" width="1280" height="607" preserveAspectRatio="xMidYMid" viewBox="0 0 1280 607" style="z-index:1;display:block;background-color:rgb(241, 242, 243);animation-play-state:paused" ><g transform="" style="animation-play-state:paused" ><path id="path0" d="M 1235.1466298790285 401.22515259342066
c 0 24.824751013282583 -6.074141205377653 7.130513588921594 -13.204654794299246 7.130513588921594
S 1208.7373202904298 426.04990360670325 1208.7373202904298 401.22515259342066
s 6.074141205377653 -7.130513588921594 13.204654794299246 -7.130513588921594
S 1235.1466298790285 376.40040158013807 1235.1466298790285 401.22515259342066
z" fill="none" stroke="none" style="animation-play-state:paused" ></path>


<circle cx="0" cy="0" r="7.793903009504051" fill="#e50914" transform="translate(1221.348876953125 394.0547180175781)" style="animation-play-state:paused" ></circle>
<path id="path1" d="M 865.4994088789135 199.77966281444094
c 0 31.6124645705578 -7.734964735349248 9.080175993670858 -16.815140729020108 9.080175993670858
S 831.8691274208734 231.39212738499873 831.8691274208734 199.77966281444094
s 7.734964735349248 -9.080175993670858 16.815140729020108 -9.080175993670858
S 865.4994088789135 168.16719824388315 865.4994088789135 199.77966281444094
z" fill="none" stroke="none" style="animation-play-state:paused" ></path>


<circle cx="0" cy="0" r="7.043051441143671" fill="#e50914" transform="translate(864.10986328125 214.63755798339844)" style="animation-play-state:paused" ></circle>
<path id="path2" d="M 200.0325115527736 329.8262307042625
c 0 27.865077714462576 -6.81805093013446 8.003798917983932 -14.821849848118392 8.003798917983932
S 170.3888118565368 357.6913084187251 170.3888118565368 329.8262307042625
s 6.81805093013446 -8.003798917983932 14.821849848118392 -8.003798917983932
S 200.0325115527736 301.9611529897999 200.0325115527736 329.8262307042625
z" fill="none" stroke="none" style="animation-play-state:paused" ></path>


<circle cx="0" cy="0" r="4.931613500898417" fill="#e50914" transform="translate(199.48214721679688 319.50494384765625)" style="animation-play-state:paused" ></circle>
<path id="path3" d="M 841.6502874277397 437.962672989259
c 0 20.758841355011953 -5.079290969843349 5.962645921120455 -11.041936890963804 5.962645921120455
S 819.5664136458121 458.72151434427093 819.5664136458121 437.962672989259
s 5.079290969843349 -5.962645921120455 11.041936890963804 -5.962645921120455
S 841.6502874277397 417.203831634247 841.6502874277397 437.962672989259
z" fill="none" stroke="none" style="animation-play-state:paused" ></path>


<circle cx="0" cy="0" r="4.318571111163109" fill="#221f1f" transform="translate(824.1077270507812 447.836181640625)" style="animation-play-state:paused" ></circle>
<path id="path4" d="M 341.53046713083273 43.173731751177755
c 0 37.29910606496213 -9.12637701589499 10.713573018659336 -19.839950034554327 10.713573018659336
S 301.8505670617241 80.47283781613989 301.8505670617241 43.173731751177755
s 9.12637701589499 -10.713573018659336 19.839950034554327 -10.713573018659336
S 341.53046713083273 5.874625686215623 341.53046713083273 43.173731751177755
z" fill="none" stroke="none" style="animation-play-state:paused" ></path>


<circle cx="0" cy="0" r="5.498815208002487" fill="#e50914" transform="translate(305.24871826171875 23.413572311401367)" style="animation-play-state:paused" ></circle>
<path id="path5" d="M 519.7169299029523 565.0272502581096
c 0 36.8937554567592 -9.027195484100655 10.597142524813814 -19.624338008914467 10.597142524813814
S 480.4682538851233 601.9210057148688 480.4682538851233 565.0272502581096
s 9.027195484100655 -10.597142524813814 19.624338008914467 -10.597142524813814
S 519.7169299029523 528.1334948013504 519.7169299029523 565.0272502581096
z" fill="none" stroke="none" style="animation-play-state:paused" ></path>


<circle cx="0" cy="0" r="4.7741252152567935" fill="#e50914" transform="translate(506.28289794921875 551.9325561523438)" style="animation-play-state:paused" ></circle>
<path id="path6" d="M 476.5197403305216 546.3492593848586
c 0 26.13631594995289 -6.395056030307621 7.507239687752426 -13.902295718060047 7.507239687752426
S 448.7151488944015 572.4855753348114 448.7151488944015 546.3492593848586
s 6.395056030307621 -7.507239687752426 13.902295718060047 -7.507239687752426
S 476.5197403305216 520.2129434349057 476.5197403305216 546.3492593848586
z" fill="none" stroke="none" style="animation-play-state:paused" ></path>


<circle cx="0" cy="0" r="4.843026525555624" fill="#221f1f" transform="translate(457.7002868652344 556.024658203125)" style="animation-play-state:paused" ></circle>
<path id="path7" d="M 1057.38443093219 283.36730484205015
c 0 36.4441906176642 -8.917195576662516 10.468012198690781 -19.385207775353297 10.468012198690781
S 1018.6140153814835 319.81149545971437 1018.6140153814835 283.36730484205015
s 8.917195576662516 -10.468012198690781 19.385207775353297 -10.468012198690781
S 1057.38443093219 246.92311422438596 1057.38443093219 283.36730484205015
z" fill="none" stroke="none" style="animation-play-state:paused" ></path>


<circle cx="0" cy="0" r="7.44623892858869" fill="#221f1f" transform="translate(1018.7496337890625 276.442626953125)" style="animation-play-state:paused" ></circle>
<path id="path8" d="M 1014.4784355020862 242.51950286703527
c 0 27.252331416525216 -6.668123644468936 7.827797321767882 -14.495920966236817 7.827797321767882
S 985.4865935696126 269.7718342835605 985.4865935696126 242.51950286703527
s 6.668123644468936 -7.827797321767882 14.495920966236817 -7.827797321767882
S 1014.4784355020862 215.26717145051006 1014.4784355020862 242.51950286703527
z" fill="none" stroke="none" style="animation-play-state:paused" ></path>


<circle cx="0" cy="0" r="7.4908687801200635" fill="#e50914" transform="translate(1014.1685791015625 234.27626037597656)" style="animation-play-state:paused" ></circle>
<path id="path9" d="M 1264.6389982696755 98.57688751971645
c 0 21.570920809892527 -5.27799126199498 6.195902785820194 -11.473894047815174 6.195902785820194
S 1241.6912101740454 120.14780832960898 1241.6912101740454 98.57688751971645
s 5.27799126199498 -6.195902785820194 11.473894047815174 -6.195902785820194
S 1264.6389982696755 77.00596670982392 1264.6389982696755 98.57688751971645
z" fill="none" stroke="none" style="animation-play-state:paused" ></path>


<circle cx="0" cy="0" r="6.275607710192481" fill="#f5f5f1" transform="translate(1241.7967529296875 93.95964050292969)" style="animation-play-state:paused" ></circle>
<path id="path10" d="M 1230.1377669168758 198.58083631987918
c 0 27.83498704166849 -6.810688318706119 7.995155852394141 -14.80584417110026 7.995155852394141
S 1200.5260785746752 226.41582336154767 1200.5260785746752 198.58083631987918
s 6.810688318706119 -7.995155852394141 14.80584417110026 -7.995155852394141
S 1230.1377669168758 170.7458492782107 1230.1377669168758 198.58083631987918
z" fill="none" stroke="none" style="animation-play-state:paused" ></path>


<circle cx="0" cy="0" r="4.684185641952151" fill="#221f1f" transform="translate(1229.9996337890625 204.57518005371094)" style="animation-play-state:paused" ></circle>
<path id="path11" d="M 760.0067388799599 248.09557451052547
c 0 37.37567176149637 -9.145111175685281 10.735565293195767 -19.88067646888105 10.735565293195767
S 720.2453859421979 285.47124627202186 720.2453859421979 248.09557451052547
s 9.145111175685281 -10.735565293195767 19.88067646888105 -10.735565293195767
S 760.0067388799599 210.7199027490291 760.0067388799599 248.09557451052547
z" fill="none" stroke="none" style="animation-play-state:paused" ></path>


<circle cx="0" cy="0" r="7.070595431579845" fill="#221f1f" transform="translate(720.2593383789062 245.65611267089844)" style="animation-play-state:paused" ></circle>
<path id="path12" d="M 346.0392445206958 101.96891028556927
c 0 34.19041362883894 -8.365739504928676 9.820650723177144 -18.18639022810582 9.820650723177144
S 309.6664640644841 136.15932391440822 309.6664640644841 101.96891028556927
s 8.365739504928676 -9.820650723177144 18.18639022810582 -9.820650723177144
S 346.0392445206958 67.77849665673033 346.0392445206958 101.96891028556927
z" fill="none" stroke="none" style="animation-play-state:paused" ></path>


<circle cx="0" cy="0" r="6.4226739359293905" fill="#221f1f" transform="translate(345.3500671386719 89.2156982421875)" style="animation-play-state:paused" ></circle>
<path id="path13" d="M 557.2014149605573 475.67446511475947
c 0 21.529164666852907 -5.2677743333789016 6.183909000053495 -11.451683333432396 6.183909000053495
S 534.2980482936925 497.2036297816124 534.2980482936925 475.67446511475947
s 5.2677743333789016 -6.183909000053495 11.451683333432396 -6.183909000053495
S 557.2014149605573 454.14530044790655 557.2014149605573 475.67446511475947
z" fill="none" stroke="none" style="animation-play-state:paused" ></path>


<circle cx="0" cy="0" r="4.597646475035665" fill="#f5f5f1" transform="translate(545.5072021484375 481.8662414550781)" style="animation-play-state:paused" ></circle>
<path id="path14" d="M 1261.3480910274775 555.9947543938335
c 0 34.23935933053647 -8.377715580875943 9.834709594941327 -18.21242517581727 9.834709594941327
S 1224.9232406758429 590.23411372437 1224.9232406758429 555.9947543938335
s 8.377715580875943 -9.834709594941327 18.21242517581727 -9.834709594941327
S 1261.3480910274775 521.7553950632971 1261.3480910274775 555.9947543938335
z" fill="none" stroke="none" style="animation-play-state:paused" ></path>


<circle cx="0" cy="0" r="4.7914542629467025" fill="#e50914" transform="translate(1259.6605224609375 572.5197143554688)" style="animation-play-state:paused" ></circle>
<path id="path15" d="M 291.4067047040262 180.68617549303244
c 0 34.11172625957204 -8.346486212448477 9.798049032004736 -18.144535244453213 9.798049032004736
S 255.11763421511978 214.79790175260447 255.11763421511978 180.68617549303244
s 8.346486212448477 -9.798049032004736 18.144535244453213 -9.798049032004736
S 291.4067047040262 146.5744492334604 291.4067047040262 180.68617549303244
z" fill="none" stroke="none" style="animation-play-state:paused" ></path>


<circle cx="0" cy="0" r="6.19987863553361" fill="#e50914" transform="translate(276.8858337402344 169.8939971923828)" style="animation-play-state:paused" ></circle>
<path id="path16" d="M 669.7020535314607 131.10441824912755
c 0 31.047805774398626 -7.596803540544344 8.91798676498684 -16.514790305531186 8.91798676498684
S 636.6724729203984 162.15222402352617 636.6724729203984 131.10441824912755
s 7.596803540544344 -8.91798676498684 16.514790305531186 -8.91798676498684
S 669.7020535314607 100.05661247472892 669.7020535314607 131.10441824912755
z" fill="none" stroke="none" style="animation-play-state:paused" ></path>


<circle cx="0" cy="0" r="7.830487413893732" fill="#e50914" transform="translate(651.8200073242188 140.18841552734375)" style="animation-play-state:paused" ></circle>
<path id="path17" d="M 865.4851910553652 481.3115127771723
c 0 35.06236665545418 -8.579089713568575 10.071105315928326 -18.6501950294969 10.071105315928326
S 828.1848009963715 516.3738794326265 828.1848009963715 481.3115127771723
s 8.579089713568575 -10.071105315928326 18.6501950294969 -10.071105315928326
S 865.4851910553652 446.2491461217181 865.4851910553652 481.3115127771723
z" fill="none" stroke="none" style="animation-play-state:paused" ></path>


<circle cx="0" cy="0" r="6.411270240050357" fill="#f5f5f1" transform="translate(830.0001831054688 498.414794921875)" style="animation-play-state:paused" ></circle>
<path id="path18" d="M 405.2367331947249 386.27429206479036
c 0 23.29748282430107 -5.700447925094942 6.691830172937541 -12.392278098032483 6.691830172937541
S 380.4521769986599 409.57177488909144 380.4521769986599 386.27429206479036
s 5.700447925094942 -6.691830172937541 12.392278098032483 -6.691830172937541
S 405.2367331947249 362.9768092404893 405.2367331947249 386.27429206479036
z" fill="none" stroke="none" style="animation-play-state:paused" ></path>


<circle cx="0" cy="0" r="6.269056254043529" fill="#221f1f" transform="translate(405.2352600097656 386.9041748046875)" style="animation-play-state:paused" ></circle>
<path id="path19" d="M 798.6521959574734 152.80886286618974
c 0 23.048128031670654 -5.639435582217287 6.6202069878202945 -12.259642570037581 6.6202069878202945
S 774.1329108173982 175.85699089786038 774.1329108173982 152.80886286618974
s 5.639435582217287 -6.6202069878202945 12.259642570037581 -6.6202069878202945
S 798.6521959574734 129.7607348345191 798.6521959574734 152.80886286618974
z" fill="none" stroke="none" style="animation-play-state:paused" ></path>


<circle cx="0" cy="0" r="7.238252792180791" fill="#e50914" transform="translate(782.2582397460938 144.43109130859375)" style="animation-play-state:paused" ></circle>
<path id="path20" d="M 748.0052643028555 567.3931348282023
c 0 36.572571613829325 -8.94860794806462 10.504887591206295 -19.453495539270914 10.504887591206295
S 709.0982732243137 603.9657064420317 709.0982732243137 567.3931348282023
s 8.94860794806462 -10.504887591206295 19.453495539270914 -10.504887591206295
S 748.0052643028555 530.8205632143729 748.0052643028555 567.3931348282023
z" fill="none" stroke="none" style="animation-play-state:paused" ></path>


<circle cx="0" cy="0" r="4.3363230424923085" fill="#f5f5f1" transform="translate(745.4598388671875 586.2088012695312)" style="animation-play-state:paused" ></circle>
<path id="path21" d="M 1110.807991462787 186.0801551266002
c 0 32.414670779295086 -7.9312492332317746 9.310596925967737 -17.24184615919951 9.310596925967737
S 1076.324299144388 218.49482590589528 1076.324299144388 186.0801551266002
s 7.9312492332317746 -9.310596925967737 17.24184615919951 -9.310596925967737
S 1110.807991462787 153.66548434730512 1110.807991462787 186.0801551266002
z" fill="none" stroke="none" style="animation-play-state:paused" ></path>


<circle cx="0" cy="0" r="4.149273630047096" fill="#221f1f" transform="translate(1091.0421142578125 176.2462158203125)" style="animation-play-state:paused" ></circle>
<path id="path22" d="M 1030.7777268380323 189.82698459348748
c 0 19.532370850136036 -4.779197122905625 5.6103618399326916 -10.389558962838317 5.6103618399326916
S 1009.9986089123557 209.3593554436235 1009.9986089123557 189.82698459348748
s 4.779197122905625 -5.6103618399326916 10.389558962838317 -5.6103618399326916
S 1030.7777268380323 170.29461374335145 1030.7777268380323 189.82698459348748
z" fill="none" stroke="none" style="animation-play-state:paused" ></path>


<circle cx="0" cy="0" r="6.525967907733653" fill="#e50914" transform="translate(1030.7421875 187.13719177246094)" style="animation-play-state:paused" ></circle>
<path id="path23" d="M 306.5787929668792 249.24701437982415
c 0 20.44985074263922 -5.003686883837256 5.873893298417649 -10.877580182254905 5.873893298417649
S 284.82363260236934 269.69686512246335 284.82363260236934 249.24701437982415
s 5.003686883837256 -5.873893298417649 10.877580182254905 -5.873893298417649
S 306.5787929668792 228.79716363718492 306.5787929668792 249.24701437982415
z" fill="none" stroke="none" style="animation-play-state:paused" ></path>


<circle cx="0" cy="0" r="7.995075851435789" fill="#221f1f" transform="translate(306.56787109375 250.8265838623047)" style="animation-play-state:paused" ></circle>
<path id="path24" d="M 1112.3319359815578 574.9488428464072
c 0 34.92042666508602 -8.544359715925301 10.030335318694922 -18.574695034620223 10.030335318694922
S 1075.1825459123174 609.8692695114931 1075.1825459123174 574.9488428464072
s 8.544359715925301 -10.030335318694922 18.574695034620223 -10.030335318694922
S 1112.3319359815578 540.0284161813212 1112.3319359815578 574.9488428464072
z" fill="none" stroke="none" style="animation-play-state:paused" ></path>


<circle cx="0" cy="0" r="6.33974054654893" fill="#221f1f" transform="translate(1075.270751953125 580.5321044921875)" style="animation-play-state:paused" ></circle>
<path id="path25" d="M 511.979973918299 173.74407988328002
c 0 32.96202156192892 -8.065175488557076 9.467814703958307 -17.532990192515385 9.467814703958307
S 476.9139935332682 206.70610144520896 476.9139935332682 173.74407988328002
s 8.065175488557076 -9.467814703958307 17.532990192515385 -9.467814703958307
S 511.979973918299 140.7820583213511 511.979973918299 173.74407988328002
z" fill="none" stroke="none" style="animation-play-state:paused" ></path>


<circle cx="0" cy="0" r="6.892963704156612" fill="#e50914" transform="translate(499.1099548339844 184.84890747070312)" style="animation-play-state:paused" ></circle>
<path id="path26" d="M 218.40504190476187 72.67096305798036
c 0 22.723201177595392 -5.5599322030286595 6.526876933990167 -12.086809137018825 6.526876933990167
S 194.2314236307242 95.39416423557574 194.2314236307242 72.67096305798036
s 5.5599322030286595 -6.526876933990167 12.086809137018825 -6.526876933990167
S 218.40504190476187 49.94776188038497 218.40504190476187 72.67096305798036
z" fill="none" stroke="none" style="animation-play-state:paused" ></path>


<circle cx="0" cy="0" r="4.213801389190163" fill="#221f1f" transform="translate(215.14398193359375 84.6189193725586)" style="animation-play-state:paused" ></circle>
<path id="path27" d="M 912.4493544667546 520.8335654127784
c 0 18.877352328787108 -4.618926633639398 5.422218222098424 -10.041144855737823 5.422218222098424
S 892.367064755279 539.7109177415655 892.367064755279 520.8335654127784
s 4.618926633639398 -5.422218222098424 10.041144855737823 -5.422218222098424
S 912.4493544667546 501.9562130839913 912.4493544667546 520.8335654127784
z" fill="none" stroke="none" style="animation-play-state:paused" ></path>


<circle cx="0" cy="0" r="5.173247911926428" fill="#f5f5f1" transform="translate(899.5067749023438 514.3204956054688)" style="animation-play-state:paused" ></circle>
<path id="path28" d="M 1253.9519235419962 473.1178018867388
c 0 28.570965988531793 -6.990768273789693 8.206554060535728 -15.19732233432542 8.206554060535728
S 1223.5572788733452 501.68876787527057 1223.5572788733452 473.1178018867388
s 6.990768273789693 -8.206554060535728 15.19732233432542 -8.206554060535728
S 1253.9519235419962 444.546835898207 1253.9519235419962 473.1178018867388
z" fill="none" stroke="none" style="animation-play-state:paused" ></path>


<circle cx="0" cy="0" r="5.151562723152519" fill="#f5f5f1" transform="translate(1224.4100341796875 485.20697021484375)" style="animation-play-state:paused" ></circle>
<path id="path29" d="M 630.759822723623 301.06082761171183
c 0 36.90041739697053 -9.0288255333013 10.59905606083196 -19.62788159413326 10.59905606083196
S 591.5040595353565 337.96124500868234 591.5040595353565 301.06082761171183
s 9.0288255333013 -10.59905606083196 19.62788159413326 -10.59905606083196
S 630.759822723623 264.1604102147413 630.759822723623 301.06082761171183
z" fill="none" stroke="none" style="animation-play-state:paused" ></path>


<circle cx="0" cy="0" r="4.639706582059292" fill="#f5f5f1" transform="translate(605.6729125976562 313.6487731933594)" style="animation-play-state:paused" ></circle>
<path id="path30" d="M 770.4976872297599 412.89899018441923
c 0 33.66417080981864 -8.236977964104561 9.669495870905356 -17.90647383500992 9.669495870905356
S 734.68473955974 446.5631609942379 734.68473955974 412.89899018441923
s 8.236977964104561 -9.669495870905356 17.90647383500992 -9.669495870905356
S 770.4976872297599 379.2348193746006 770.4976872297599 412.89899018441923
z" fill="none" stroke="none" style="animation-play-state:paused" ></path>


<circle cx="0" cy="0" r="4.341129860072403" fill="#f5f5f1" transform="translate(769.4878540039062 427.1643981933594)" style="animation-play-state:paused" ></circle>
<path id="path31" d="M 270.95931362758836 278.14307122244867
c 0 20.59701393780237 -5.039694899675047 5.916163577879405 -10.955858477554452 5.916163577879405
S 249.04759667247947 298.74008516025106 249.04759667247947 278.14307122244867
s 5.039694899675047 -5.916163577879405 10.955858477554452 -5.916163577879405
S 270.95931362758836 257.5460572846463 270.95931362758836 278.14307122244867
z" fill="none" stroke="none" style="animation-play-state:paused" ></path>


<circle cx="0" cy="0" r="4.08911927528741" fill="#e50914" transform="translate(258.1145324707031 284.5137634277344)" style="animation-play-state:paused" ></circle>
<path id="path32" d="M 741.5210210987702 494.69279979785244
c 0 23.05448060483832 -5.640989935226397 6.6220316630918585 -12.263021598318256 6.6220316630918585
S 716.9949779021338 517.7472804026908 716.9949779021338 494.69279979785244
s 5.640989935226397 -6.6220316630918585 12.263021598318256 -6.6220316630918585
S 741.5210210987702 471.6383191930141 741.5210210987702 494.69279979785244
z" fill="none" stroke="none" style="animation-play-state:paused" ></path>


<circle cx="0" cy="0" r="5.48766583568164" fill="#f5f5f1" transform="translate(740.7861328125 484.7472839355469)" style="animation-play-state:paused" ></circle>
<path id="path33" d="M 599.4300912992652 358.5690572923587
c 0 20.00126254047925 -4.89392594075556 5.745043495669572 -10.638969436425132 5.745043495669572
S 578.152152426415 378.570319832838 578.152152426415 358.5690572923587
s 4.89392594075556 -5.745043495669572 10.638969436425132 -5.745043495669572
S 599.4300912992652 338.56779475187943 599.4300912992652 358.5690572923587
z" fill="none" stroke="none" style="animation-play-state:paused" ></path>


<circle cx="0" cy="0" r="6.708126159037466" fill="#221f1f" transform="translate(588.969970703125 364.31878662109375)" style="animation-play-state:paused" ></circle>
<path id="path34" d="M 1285.7663426665058 591.7308173051746
c 0 36.206933723759846 -8.859143357941239 10.39986394193102 -19.25900729987226 10.39986394193102
S 1247.2483280667611 627.9377510289344 1247.2483280667611 591.7308173051746
s 8.859143357941239 -10.39986394193102 19.25900729987226 -10.39986394193102
S 1285.7663426665058 555.5238835814148 1285.7663426665058 591.7308173051746
z" fill="none" stroke="none" style="animation-play-state:paused" ></path>


<circle cx="0" cy="0" r="6.612885646123704" fill="#f5f5f1" transform="translate(1285.3995361328125 602.2000732421875)" style="animation-play-state:paused" ></circle>
<path id="path35" d="M 539.6748942544399 253.46078072702582
c 0 35.80692668991398 -8.761269296468313 10.28496830454976 -19.046237601018074 10.28496830454976
S 501.58241905240374 289.2677074169398 501.58241905240374 253.46078072702582
s 8.761269296468313 -10.28496830454976 19.046237601018074 -10.28496830454976
S 539.6748942544399 217.65385403711184 539.6748942544399 253.46078072702582
z" fill="none" stroke="none" style="animation-play-state:paused" ></path>


<circle cx="0" cy="0" r="6.1696159966376865" fill="#e50914" transform="translate(539.4569702148438 261.8701171875)" style="animation-play-state:paused" ></circle>
<path id="path36" d="M 535.4043354378923 61.11853921570875
c 0 34.27388870881363 -8.386164258539504 9.844627607850724 -18.230791866390227 9.844627607850724
S 498.9427517051119 95.39242792452238 498.9427517051119 61.11853921570875
s 8.386164258539504 -9.844627607850724 18.230791866390227 -9.844627607850724
S 535.4043354378923 26.84465050689512 535.4043354378923 61.11853921570875
z" fill="none" stroke="none" style="animation-play-state:paused" ></path>


<circle cx="0" cy="0" r="4.757436688848333" fill="#f5f5f1" transform="translate(521.857421875 49.676544189453125)" style="animation-play-state:paused" ></circle>
<path id="path37" d="M 469.4928505364239 212.78024119378776
c 0 29.320429354651317 -7.174147608052981 8.421825452931762 -15.595973060984743 8.421825452931762
S 438.30090441445435 242.10067054843907 438.30090441445435 212.78024119378776
s 7.174147608052981 -8.421825452931762 15.595973060984743 -8.421825452931762
S 469.4928505364239 183.45981183913645 469.4928505364239 212.78024119378776
z" fill="none" stroke="none" style="animation-play-state:paused" ></path>


<circle cx="0" cy="0" r="5.790873368051944" fill="#e50914" transform="translate(469.29827880859375 205.64044189453125)" style="animation-play-state:paused" ></circle>
<path id="path38" d="M 1021.8749917483473 369.8415909890272
c 0 25.076294637593893 -6.135689113453824 7.202765481011013 -13.338454594464837 7.202765481011013
S 995.1980825594177 394.9178856266211 995.1980825594177 369.8415909890272
s 6.135689113453824 -7.202765481011013 13.338454594464837 -7.202765481011013
S 1021.8749917483473 344.76529635143334 1021.8749917483473 369.8415909890272
z" fill="none" stroke="none" style="animation-play-state:paused" ></path>


<circle cx="0" cy="0" r="7.665864103074339" fill="#221f1f" transform="translate(1021.875 369.8549499511719)" style="animation-play-state:paused" ></circle>
<path id="path39" d="M 1083.228132649838 291.48478156210143
c 0 21.380282179084414 -5.231345639563207 6.141144881226375 -11.372490520789583 6.141144881226375
S 1060.4831516082588 312.86506374118585 1060.4831516082588 291.48478156210143
s 5.231345639563207 -6.141144881226375 11.372490520789583 -6.141144881226375
S 1083.228132649838 270.104499383017 1083.228132649838 291.48478156210143
z" fill="none" stroke="none" style="animation-play-state:paused" ></path>


<circle cx="0" cy="0" r="5.499013892257388" fill="#e50914" transform="translate(1070.1114501953125 298.00335693359375)" style="animation-play-state:paused" ></circle>
<path id="path40" d="M 1093.2337831347268 106.82084623406928
c 0 35.02001542660465 -8.568727178850073 10.058940601258783 -18.627667780108858 10.058940601258783
S 1055.9784475745091 141.84086166067394 1055.9784475745091 106.82084623406928
s 8.568727178850073 -10.058940601258783 18.627667780108858 -10.058940601258783
S 1093.2337831347268 71.80083080746462 1093.2337831347268 106.82084623406928
z" fill="none" stroke="none" style="animation-play-state:paused" ></path>


<circle cx="0" cy="0" r="5.59754122477476" fill="#221f1f" transform="translate(1092.842529296875 96.2986068725586)" style="animation-play-state:paused" ></circle>
<path id="path41" d="M 71.4761032008291 284.1599125767104
c 0 34.04666877962664 -8.330567892887368 9.779362309041694 -18.109930201929064 9.779362309041694
S 35.256242796970966 318.20658135633704 35.256242796970966 284.1599125767104
s 8.330567892887368 -9.779362309041694 18.109930201929064 -9.779362309041694
S 71.4761032008291 250.11324379708373 71.4761032008291 284.1599125767104
z" fill="none" stroke="none" style="animation-play-state:paused" ></path>


<circle cx="0" cy="0" r="6.657776872280133" fill="#221f1f" transform="translate(35.6794548034668 294.8185729980469)" style="animation-play-state:paused" ></circle>
<path id="path42" d="M 147.68431863676128 114.75254515712894
c 0 24.48698271797729 -5.991495771419975 7.033495036014754 -13.02499080743473 7.033495036014754
S 121.63433702189181 139.23952787510623 121.63433702189181 114.75254515712894
s 5.991495771419975 -7.033495036014754 13.02499080743473 -7.033495036014754
S 147.68431863676128 90.26556243915164 147.68431863676128 114.75254515712894
z" fill="none" stroke="none" style="animation-play-state:paused" ></path>


<circle cx="0" cy="0" r="5.260344342345883" fill="#221f1f" transform="translate(139.57513427734375 124.06094360351562)" style="animation-play-state:paused" ></circle>
<path id="path43" d="M 1151.0631859083578 315.6717181539803
c 0 22.490654111720676 -5.5030323890380375 6.460081500175089 -11.963113889213126 6.460081500175089
S 1127.1369581299314 338.162372265701 1127.1369581299314 315.6717181539803
s 5.5030323890380375 -6.460081500175089 11.963113889213126 -6.460081500175089
S 1151.0631859083578 293.1810640422596 1151.0631859083578 315.6717181539803
z" fill="none" stroke="none" style="animation-play-state:paused" ></path>


<circle cx="0" cy="0" r="5.862825800245377" fill="#e50914" transform="translate(1127.15625 317.8561096191406)" style="animation-play-state:paused" ></circle>
<path id="path44" d="M 197.2276191700133 378.191419161926
c 0 33.48151109054488 -8.192284628537577 9.617029781326721 -17.809314409864296 9.617029781326721
S 161.6089903502847 411.67293025247085 161.6089903502847 378.191419161926
s 8.192284628537577 -9.617029781326721 17.809314409864296 -9.617029781326721
S 197.2276191700133 344.7099080713811 197.2276191700133 378.191419161926
z" fill="none" stroke="none" style="animation-play-state:paused" ></path>


<circle cx="0" cy="0" r="7.503453908798974" fill="#e50914" transform="translate(161.65322875976562 382.1669921875)" style="animation-play-state:paused" ></circle>
<path id="path45" d="M 411.5448820580223 279.50541381646815
c 0 33.601926236148664 -8.221747908844886 9.651617110383128 -17.873365019228014 9.651617110383128
S 375.7981520195663 313.1073400526168 375.7981520195663 279.50541381646815
s 8.221747908844886 -9.651617110383128 17.873365019228014 -9.651617110383128
S 411.5448820580223 245.90348758031948 411.5448820580223 279.50541381646815
z" fill="none" stroke="none" style="animation-play-state:paused" ></path>


<circle cx="0" cy="0" r="5.722864105826437" fill="#e50914" transform="translate(401.0565490722656 292.80218505859375)" style="animation-play-state:paused" ></circle>
<path id="path46" d="M 745.1336262449263 61.06952569813924
c 0 20.447490924040764 -5.003109481414229 5.873215478181922 -10.87632495959615 5.873215478181922
S 723.3809763257341 81.51701662218 723.3809763257341 61.06952569813924
s 5.003109481414229 -5.873215478181922 10.87632495959615 -5.873215478181922
S 745.1336262449263 40.62203477409847 745.1336262449263 61.06952569813924
z" fill="none" stroke="none" style="animation-play-state:paused" ></path>


<circle cx="0" cy="0" r="6.362661777155663" fill="#f5f5f1" transform="translate(744.8663330078125 67.5936508178711)" style="animation-play-state:paused" ></circle>
<path id="path47" d="M 150.83455622637473 570.0650579945182
c 0 33.642659946831316 -8.231714667841704 9.663317218770699 -17.8950318866124 9.663317218770699
S 115.04449245314993 603.7077179413495 115.04449245314993 570.0650579945182
s 8.231714667841704 -9.663317218770699 17.8950318866124 -9.663317218770699
S 150.83455622637473 536.4223980476868 150.83455622637473 570.0650579945182
z" fill="none" stroke="none" style="animation-play-state:paused" ></path>


<circle cx="0" cy="0" r="5.853205115633951" fill="#f5f5f1" transform="translate(128.4285125732422 558.8877563476562)" style="animation-play-state:paused" ></circle>
<path id="path48" d="M 665.0898874561859 194.22107309267682
c 0 18.990474031634584 -4.646605348165909 5.454710626107806 -10.101315974273714 5.454710626107806
S 644.8872555076385 213.2115471243114 644.8872555076385 194.22107309267682
s 4.646605348165909 -5.454710626107806 10.101315974273714 -5.454710626107806
S 665.0898874561859 175.23059906104223 665.0898874561859 194.22107309267682
z" fill="none" stroke="none" style="animation-play-state:paused" ></path>


<circle cx="0" cy="0" r="4.222552387304965" fill="#e50914" transform="translate(647.802001953125 204.11764526367188)" style="animation-play-state:paused" ></circle>
<path id="path49" d="M 349.96082372942845 140.97888938775523
c 0 32.64602819441552 -7.987857962463371 9.377050651587437 -17.364908614050808 9.377050651587437
S 315.2310065013268 173.62491758217075 315.2310065013268 140.97888938775523
s 7.987857962463371 -9.377050651587437 17.364908614050808 -9.377050651587437
S 349.96082372942845 108.33286119333971 349.96082372942845 140.97888938775523
z" fill="none" stroke="none" style="animation-play-state:paused" ></path>


<circle cx="0" cy="0" r="5.094109177786309" fill="#221f1f" transform="translate(315.4632873535156 149.1625213623047)" style="animation-play-state:paused" ></circle>
<path id="path50" d="M 563.6398694764794 577.0399451429171
c 0 33.6606898451771 -8.236126238713545 9.668496019359381 -17.904622258072926 9.668496019359381
S 527.8306249603336 610.7006349880942 527.8306249603336 577.0399451429171
s 8.236126238713545 -9.668496019359381 17.904622258072926 -9.668496019359381
S 563.6398694764794 543.37925529774 563.6398694764794 577.0399451429171
z" fill="none" stroke="none" style="animation-play-state:paused" ></path>


<circle cx="0" cy="0" r="6.1661094636680875" fill="#e50914" transform="translate(538.2996826171875 563.6884155273438)" style="animation-play-state:paused" ></circle>
<path id="path51" d="M 296.8148313758475 67.13927801873884
c 0 21.65013960836128 -5.297374585024567 6.21865712155058 -11.516031706575147 6.21865712155058
S 273.7827679626973 88.78941762710011 273.7827679626973 67.13927801873884
s 5.297374585024567 -6.21865712155058 11.516031706575147 -6.21865712155058
S 296.8148313758475 45.48913841037756 296.8148313758475 67.13927801873884
z" fill="none" stroke="none" style="animation-play-state:paused" ></path>


<circle cx="0" cy="0" r="5.015297360384767" fill="#f5f5f1" transform="translate(273.94775390625 72.72230529785156)" style="animation-play-state:paused" ></circle>
<path id="path52" d="M 1069.6160319752867 43.70497616328991
c 0 29.600354379824548 -7.242639901446431 8.502229449524073 -15.744869350970504 8.502229449524073
S 1038.1262932733457 73.30533054311447 1038.1262932733457 43.70497616328991
s 7.242639901446431 -8.502229449524073 15.744869350970504 -8.502229449524073
S 1069.6160319752867 14.104621783465365 1069.6160319752867 43.70497616328991
z" fill="none" stroke="none" style="animation-play-state:paused" ></path>


<circle cx="0" cy="0" r="6.075573082523812" fill="#221f1f" transform="translate(1039.9027099609375 28.8411808013916)" style="animation-play-state:paused" ></circle>
<path id="path53" d="M 450.49282624087755 316.08103962192723
c 0 28.09411689562611 -6.874092431908516 8.069586767892607 -14.943679199801123 8.069586767892607
S 420.6054678412753 344.1751565175533 420.6054678412753 316.08103962192723
s 6.874092431908516 -8.069586767892607 14.943679199801123 -8.069586767892607
S 450.49282624087755 287.98692272630115 450.49282624087755 316.08103962192723
z" fill="none" stroke="none" style="animation-play-state:paused" ></path>


<circle cx="0" cy="0" r="4.861180613735385" fill="#221f1f" transform="translate(420.612060546875 317.5465393066406)" style="animation-play-state:paused" ></circle>
<path id="path54" d="M 49.2467857824107 253.02935604948428
c 0 19.534934333972306 -4.779824358312372 5.611098159758003 -10.390922518070376 5.611098159758003
S 28.464940746269946 272.5642903834566 28.464940746269946 253.02935604948428
s 4.779824358312372 -5.611098159758003 10.390922518070376 -5.611098159758003
S 49.2467857824107 233.49442171551198 49.2467857824107 253.02935604948428
z" fill="none" stroke="none" style="animation-play-state:paused" ></path>


<circle cx="0" cy="0" r="7.3106612036904774" fill="#221f1f" transform="translate(35.456932067871094 246.0071563720703)" style="animation-play-state:paused" ></circle>
<path id="path55" d="M 1194.153184990294 284.29578196879856
c 0 19.117228274034797 -4.677619684072344 5.491118759563187 -10.16873844363553 5.491118759563187
S 1173.815708103023 303.41301024283337 1173.815708103023 284.29578196879856
s 4.677619684072344 -5.491118759563187 10.16873844363553 -5.491118759563187
S 1194.153184990294 265.17855369476376 1194.153184990294 284.29578196879856
z" fill="none" stroke="none" style="animation-play-state:paused" ></path>


<circle cx="0" cy="0" r="4.809349185089886" fill="#221f1f" transform="translate(1186.326416015625 290.5145568847656)" style="animation-play-state:paused" ></circle>
<path id="path56" d="M 772.8569064445078 68.84532702045874
c 0 36.939892977548595 -9.038484451953378 10.610394791423532 -19.64887924337691 10.610394791423532
S 733.559147957754 105.78521999800734 733.559147957754 68.84532702045874
s 9.038484451953378 -10.610394791423532 19.64887924337691 -10.610394791423532
S 772.8569064445078 31.905434042910144 772.8569064445078 68.84532702045874
z" fill="none" stroke="none" style="animation-play-state:paused" ></path>


<circle cx="0" cy="0" r="5.670821633951492" fill="#e50914" transform="translate(733.5591430664062 68.86168670654297)" style="animation-play-state:paused" ></circle>
<path id="path57" d="M 140.085436947952 499.06121647678225
c 0 27.63526991012279 -6.76182136098749 7.937790293333142 -14.699611654320632 7.937790293333142
S 110.68621363931074 526.696486386905 110.68621363931074 499.06121647678225
s 6.76182136098749 -7.937790293333142 14.699611654320632 -7.937790293333142
S 140.085436947952 471.42594656665943 140.085436947952 499.06121647678225
z" fill="none" stroke="none" style="animation-play-state:paused" ></path>


<circle cx="0" cy="0" r="6.512294926146744" fill="#f5f5f1" transform="translate(110.68795013427734 499.7950134277344)" style="animation-play-state:paused" ></circle>
<path id="path58" d="M 165.8143039023337 490.5404113695841
c 0 36.048511779004585 -8.820380541671334 10.354359766309829 -19.17474030798116 10.354359766309829
S 127.4648232863714 526.5889231485887 127.4648232863714 490.5404113695841
s 8.820380541671334 -10.354359766309829 19.17474030798116 -10.354359766309829
S 165.8143039023337 454.4918995905795 165.8143039023337 490.5404113695841
z" fill="none" stroke="none" style="animation-play-state:paused" ></path>


<circle cx="0" cy="0" r="6.29409636215405" fill="#221f1f" transform="translate(165.26930236816406 502.6825256347656)" style="animation-play-state:paused" ></circle>
<path id="path59" d="M 1245.7319890366919 485.2874061521944
c 0 27.433565727543616 -6.7124682099308846 7.879853985571039 -14.592322195501923 7.879853985571039
S 1216.5473446456879 512.720971879738 1216.5473446456879 485.2874061521944
s 6.7124682099308846 -7.879853985571039 14.592322195501923 -7.879853985571039
S 1245.7319890366919 457.8538404246508 1245.7319890366919 485.2874061521944
z" fill="none" stroke="none" style="animation-play-state:paused" ></path>


<circle cx="0" cy="0" r="7.522248367834848" fill="#221f1f" transform="translate(1226.463134765625 495.077880859375)" style="animation-play-state:paused" ></circle>
<path id="path60" d="M 858.1387226697619 567.116910937058
c 0 19.709565479890344 -4.822553255717849 5.661258169755737 -10.483811425473586 5.661258169755737
S 837.1710998188147 586.8264764169484 837.1710998188147 567.116910937058
s 4.822553255717849 -5.661258169755737 10.483811425473586 -5.661258169755737
S 858.1387226697619 547.4073454571677 858.1387226697619 567.116910937058
z" fill="none" stroke="none" style="animation-play-state:paused" ></path>


<circle cx="0" cy="0" r="4.836271044648198" fill="#221f1f" transform="translate(853.8356323242188 557.7353515625)" style="animation-play-state:paused" ></circle>
<path id="path61" d="M 165.61772615628448 19.057099948581506
c 0 20.53841942844217 -5.025357945257126 5.899333240084453 -10.92469118534158 5.899333240084453
S 143.76834378560133 39.59551937702368 143.76834378560133 19.057099948581506
s 5.025357945257126 -5.899333240084453 10.92469118534158 -5.899333240084453
S 165.61772615628448 -1.481319479860666 165.61772615628448 19.057099948581506
z" fill="none" stroke="none" style="animation-play-state:paused" ></path>


<circle cx="0" cy="0" r="6.420736066589913" fill="#e50914" transform="translate(159.64013671875 27.551847457885742)" style="animation-play-state:paused" ></circle>
<path id="path62" d="M 386.2803538598347 70.1137612157009
c 0 20.826756644107856 -5.095908540579582 5.9821535041586404 -11.078062044738221 5.9821535041586404
S 364.1242297703583 90.94051785980876 364.1242297703583 70.1137612157009
s 5.095908540579582 -5.9821535041586404 11.078062044738221 -5.9821535041586404
S 386.2803538598347 49.287004571593044 386.2803538598347 70.1137612157009
z" fill="none" stroke="none" style="animation-play-state:paused" ></path>


<circle cx="0" cy="0" r="5.768592008739725" fill="#221f1f" transform="translate(385.97119140625 77.08138275146484)" style="animation-play-state:paused" ></circle>
<path id="path63" d="M 127.79948857819696 539.8283388032758
c 0 36.65422063443571 -8.96858589991512 10.528339969465575 -19.496925869380696 10.528339969465575
S 88.80563683943558 576.4825594377114 88.80563683943558 539.8283388032758
s 8.96858589991512 -10.528339969465575 19.496925869380696 -10.528339969465575
S 127.79948857819696 503.17411816884004 127.79948857819696 539.8283388032758
z" fill="none" stroke="none" style="animation-play-state:paused" ></path>


<circle cx="0" cy="0" r="4.789129204699636" fill="#e50914" transform="translate(126.74012756347656 555.1883544921875)" style="animation-play-state:paused" ></circle>
<path id="path64" d="M 1151.1838271822012 8.01431271360509
c 0 36.975090118905946 -9.047096518455708 10.620504608621921 -19.66760112707763 10.620504608621921
S 1111.8486249280459 44.98940283251103 1111.8486249280459 8.01431271360509
s 9.047096518455708 -10.620504608621921 19.66760112707763 -10.620504608621921
S 1151.1838271822012 -28.960777405300856 1151.1838271822012 8.01431271360509
z" fill="none" stroke="none" style="animation-play-state:paused" ></path>


<circle cx="0" cy="0" r="4.531602736106661" fill="#f5f5f1" transform="translate(1112.798095703125 -6.9230194091796875)" style="animation-play-state:paused" ></circle>
<path id="path65" d="M 902.4110773085072 42.43825925067011
c 0 36.002729330724954 -8.809178453262488 10.341209488612488 -19.150387941874975 10.341209488612488
S 864.1103014247572 78.44098858139506 864.1103014247572 42.43825925067011
s 8.809178453262488 -10.341209488612488 19.150387941874975 -10.341209488612488
S 902.4110773085072 6.435529919945154 902.4110773085072 42.43825925067011
z" fill="none" stroke="none" style="animation-play-state:paused" ></path>


<circle cx="0" cy="0" r="5.023321569524862" fill="#e50914" transform="translate(876.4720458984375 29.09876823425293)" style="animation-play-state:paused" ></circle>
<path id="path66" d="M 762.2804920363355 101.49104330753273
c 0 22.416883739002916 -5.484982191458159 6.43889213779871 -11.923874329256869 6.43889213779871
S 738.4327433778219 123.90792704653565 738.4327433778219 101.49104330753273
s 5.484982191458159 -6.43889213779871 11.923874329256869 -6.43889213779871
S 762.2804920363355 79.07415956852982 762.2804920363355 101.49104330753273
z" fill="none" stroke="none" style="animation-play-state:paused" ></path>


<circle cx="0" cy="0" r="6.9621866061087125" fill="#e50914" transform="translate(759.5972900390625 89.5481185913086)" style="animation-play-state:paused" ></circle>
<path id="path67" d="M 1254.8147027466377 494.16313316153054
c 0 26.89127204851825 -6.579779331020422 7.72408877989354 -14.303868110913962 7.72408877989354
S 1226.2069665248098 521.0544052100488 1226.2069665248098 494.16313316153054
s 6.579779331020422 -7.72408877989354 14.303868110913962 -7.72408877989354
S 1254.8147027466377 467.2718611130123 1254.8147027466377 494.16313316153054
z" fill="none" stroke="none" style="animation-play-state:paused" ></path>


<circle cx="0" cy="0" r="5.239080977093668" fill="#f5f5f1" transform="translate(1254.5145263671875 486.0865173339844)" style="animation-play-state:paused" ></circle>
<path id="path68" d="M 1105.9686733351746 198.5615611814772
c 0 35.037505675606965 -8.573006707861277 10.063964396184979 -18.636971104046257 10.063964396184979
S 1068.694731127082 233.59906685708415 1068.694731127082 198.5615611814772
s 8.573006707861277 -10.063964396184979 18.636971104046257 -10.063964396184979
S 1105.9686733351746 163.52405550587025 1105.9686733351746 198.5615611814772
z" fill="none" stroke="none" style="animation-play-state:paused" ></path>


<circle cx="0" cy="0" r="4.12116646673333" fill="#f5f5f1" transform="translate(1076.1376953125 215.40707397460938)" style="animation-play-state:paused" ></circle>
<path id="path69" d="M 919.6387775960475 292.54908491959947
c 0 22.891344741854205 -5.601073713432411 6.575173489681528 -12.176247203113938 6.575173489681528
S 895.2862831898196 315.44042966145366 895.2862831898196 292.54908491959947
s 5.601073713432411 -6.575173489681528 12.176247203113938 -6.575173489681528
S 919.6387775960475 269.65774017774527 919.6387775960475 292.54908491959947
z" fill="none" stroke="none" style="animation-play-state:paused" ></path>


<circle cx="0" cy="0" r="4.229629093754912" fill="#e50914" transform="translate(919.1961059570312 300.9666748046875)" style="animation-play-state:paused" ></circle>
<path id="path70" d="M 21.908394654755007 549.6926307433937
c 0 20.18805545634458 -4.939630590382183 5.798696780013869 -10.738327370396053 5.798696780013869
S 0.43173991396290035 569.8806861997383 0.43173991396290035 549.6926307433937
s 4.939630590382183 -5.798696780013869 10.738327370396053 -5.798696780013869
S 21.908394654755007 529.5045752870491 21.908394654755007 549.6926307433937
z" fill="none" stroke="none" style="animation-play-state:paused" ></path>


<circle cx="0" cy="0" r="6.790126032176062" fill="#e50914" transform="translate(21.29046058654785 558.2987670898438)" style="animation-play-state:paused" ></circle>
<path id="path71" d="M 492.0188135443557 211.3225003686505
c 0 32.84295818333586 -8.036042959752391 9.433615648404981 -17.469658608157374 9.433615648404981
S 457.07949632804093 244.16545855198638 457.07949632804093 211.3225003686505
s 8.036042959752391 -9.433615648404981 17.469658608157374 -9.433615648404981
S 492.0188135443557 178.47954218531464 492.0188135443557 211.3225003686505
z" fill="none" stroke="none" style="animation-play-state:paused" ></path>


<circle cx="0" cy="0" r="7.218797579512087" fill="#e50914" transform="translate(489.2633972167969 194.03988647460938)" style="animation-play-state:paused" ></circle>
<path id="path72" d="M 845.1151073778378 500.14530437606857
c 0 28.45754010255341 -6.963015131475834 8.17397428477598 -15.136989416251813 8.17397428477598
S 814.8411285453342 528.6028444786219 814.8411285453342 500.14530437606857
s 6.963015131475834 -8.17397428477598 15.136989416251813 -8.17397428477598
S 845.1151073778378 471.68776427351514 845.1151073778378 500.14530437606857
z" fill="none" stroke="none" style="animation-play-state:paused" ></path>


<circle cx="0" cy="0" r="5.2607252612588224" fill="#f5f5f1" transform="translate(823.0935668945312 488.3494567871094)" style="animation-play-state:paused" ></circle>
<path id="path73" d="M 569.9099970046855 551.4475941653088
c 0 30.061673146189936 -7.35551576981243 8.634735903692855 -15.990251673505284 8.634735903692855
S 537.9294936576748 581.5092673114988 537.9294936576748 551.4475941653088
s 7.35551576981243 -8.634735903692855 15.990251673505284 -8.634735903692855
S 569.9099970046855 521.3859210191189 569.9099970046855 551.4475941653088
z" fill="none" stroke="none" style="animation-play-state:paused" ></path>


<circle cx="0" cy="0" r="4.005199676043167" fill="#f5f5f1" transform="translate(555.98193359375 542.4325561523438)" style="animation-play-state:paused" ></circle>
<path id="path74" d="M 1075.6081939877104 91.63941277966163
c 0 33.417849977074525 -8.176707973113977 9.598744142351194 -17.77545211546517 9.598744142351194
S 1040.05728975678 125.05726275673615 1040.05728975678 91.63941277966163
s 8.176707973113977 -9.598744142351194 17.77545211546517 -9.598744142351194
S 1075.6081939877104 58.2215628025871 1075.6081939877104 91.63941277966163
z" fill="none" stroke="none" style="animation-play-state:paused" ></path>


<circle cx="0" cy="0" r="5.016465557191937" fill="#221f1f" transform="translate(1075.319091796875 100.71231842041016)" style="animation-play-state:paused" ></circle>
<path id="path75" d="M 725.2796248895817 34.550720871523595
c 0 31.960306537073258 -7.820075003751967 9.180088047882744 -17.00016305163471 9.180088047882744
S 691.2792987863123 66.51102740859685 691.2792987863123 34.550720871523595
s 7.820075003751967 -9.180088047882744 17.00016305163471 -9.180088047882744
S 725.2796248895817 2.5904143344503368 725.2796248895817 34.550720871523595
z" fill="none" stroke="none" style="animation-play-state:paused" ></path>


<circle cx="0" cy="0" r="5.354686145698551" fill="#f5f5f1" transform="translate(699.8032836914062 48.4432373046875)" style="animation-play-state:paused" ></circle>
<path id="path76" d="M 773.5187969571191 170.36010214582532
c 0 27.163459219875175 -6.646378319756691 7.802270201453508 -14.448648521210199 7.802270201453508
S 744.6214999146987 197.5235613657005 744.6214999146987 170.36010214582532
s 6.646378319756691 -7.802270201453508 14.448648521210199 -7.802270201453508
S 773.5187969571191 143.19664292595016 773.5187969571191 170.36010214582532
z" fill="none" stroke="none" style="animation-play-state:paused" ></path>


<circle cx="0" cy="0" r="5.679625938368024" fill="#221f1f" transform="translate(744.9468383789062 161.9768524169922)" style="animation-play-state:paused" ></circle>
<path id="path77" d="M 745.1512369679525 439.54300163486147
c 0 25.253780134716326 -6.179116415941228 7.253745357844051 -13.432861773785278 7.253745357844051
S 718.285513420382 464.7967817695778 718.285513420382 439.54300163486147
s 6.179116415941228 -7.253745357844051 13.432861773785278 -7.253745357844051
S 745.1512369679525 414.2892215001451 745.1512369679525 439.54300163486147
z" fill="none" stroke="none" style="animation-play-state:paused" ></path>


<circle cx="0" cy="0" r="4.4836238478973565" fill="#f5f5f1" transform="translate(718.8035278320312 449.0187683105469)" style="animation-play-state:paused" ></circle>
<path id="path78" d="M 817.2285661318548 404.74393475426524
c 0 20.38514723709888 -4.9878551750348326 5.855308248953934 -10.843163423988766 5.855308248953934
S 795.5422392838772 425.1290819913641 795.5422392838772 404.74393475426524
s 4.9878551750348326 -5.855308248953934 10.843163423988766 -5.855308248953934
S 817.2285661318548 384.3587875171664 817.2285661318548 404.74393475426524
z" fill="none" stroke="none" style="animation-play-state:paused" ></path>


<circle cx="0" cy="0" r="7.363542737310341" fill="#e50914" transform="translate(812.1865234375 395.5404968261719)" style="animation-play-state:paused" ></circle>
<path id="path79" d="M 545.7691217597652 339.4344497567587
c 0 24.74960458429111 -6.055754313177611 7.1089289763389365 -13.164683289516548 7.1089289763389365
S 519.439755180732 364.1840543410498 519.439755180732 339.4344497567587
s 6.055754313177611 -7.1089289763389365 13.164683289516548 -7.1089289763389365
S 545.7691217597652 314.6848451724676 545.7691217597652 339.4344497567587
z" fill="none" stroke="none" style="animation-play-state:paused" ></path>


<circle cx="0" cy="0" r="6.974481070382676" fill="#f5f5f1" transform="translate(531.5353393554688 346.6708679199219)" style="animation-play-state:paused" ></circle>
<path id="path80" d="M 197.89284624579633 240.3985465321592
c 0 21.102526683072558 -5.16338418841137 6.0613640472655215 -11.224748235676891 6.0613640472655215
S 175.44334977444257 261.50107321523177 175.44334977444257 240.3985465321592
s 5.16338418841137 -6.0613640472655215 11.224748235676891 -6.0613640472655215
S 197.89284624579633 219.29601984908663 197.89284624579633 240.3985465321592
z" fill="none" stroke="none" style="animation-play-state:paused" ></path>


<circle cx="0" cy="0" r="6.867236540001323" fill="#f5f5f1" transform="translate(175.46609497070312 238.12142944335938)" style="animation-play-state:paused" ></circle>
<path id="path81" d="M 247.27107968555427 456.1880069715308
c 0 30.13602335093921 -7.373707841187253 8.656091813567647 -16.0297996547549 8.656091813567647
S 215.21148037604448 486.32403032247 215.21148037604448 456.1880069715308
s 7.373707841187253 -8.656091813567647 16.0297996547549 -8.656091813567647
S 247.27107968555427 426.0519836205916 247.27107968555427 456.1880069715308
z" fill="none" stroke="none" style="animation-play-state:paused" ></path>


<circle cx="0" cy="0" r="6.333153078920083" fill="#e50914" transform="translate(228.5972900390625 465.4553527832031)" style="animation-play-state:paused" ></circle>
<path id="path82" d="M 170.6299658041758 375.98725580400907
c 0 33.28158745725687 -8.143367143796892 9.559604907935485 -17.702972051732377 9.559604907935485
S 135.22402170071103 409.26884326126594 135.22402170071103 375.98725580400907
s 8.143367143796892 -9.559604907935485 17.702972051732377 -9.559604907935485
S 170.6299658041758 342.7056683467522 170.6299658041758 375.98725580400907
z" fill="none" stroke="none" style="animation-play-state:paused" ></path>


<circle cx="0" cy="0" r="4.645674046655342" fill="#221f1f" transform="translate(135.23834228515625 378.3080139160156)" style="animation-play-state:paused" ></circle>
<path id="path83" d="M 330.73239465339776 325.8136402885364
c 0 27.73973339649599 -6.7873815757383795 7.967795762823316 -14.755177338561696 7.967795762823316
S 301.2220399762744 353.5533736850324 301.2220399762744 325.8136402885364
s 6.7873815757383795 -7.967795762823316 14.755177338561696 -7.967795762823316
S 330.73239465339776 298.07390689204044 330.73239465339776 325.8136402885364
z" fill="none" stroke="none" style="animation-play-state:paused" ></path>


<circle cx="0" cy="0" r="6.747502338873577" fill="#221f1f" transform="translate(305.8323059082031 311.55450439453125)" style="animation-play-state:paused" ></circle>
<path id="path84" d="M 1080.6990672331904 230.45399036427833
c 0 29.14491069004398 -7.13120155181927 8.371410517353057 -15.502612069172327 8.371410517353057
S 1049.6938430948458 259.5989010543223 1049.6938430948458 230.45399036427833
s 7.13120155181927 -8.371410517353057 15.502612069172327 -8.371410517353057
S 1080.6990672331904 201.30907967423434 1080.6990672331904 230.45399036427833
z" fill="none" stroke="none" style="animation-play-state:paused" ></path>


<circle cx="0" cy="0" r="6.666059860199412" fill="#e50914" transform="translate(1049.7646484375 235.03201293945312)" style="animation-play-state:paused" ></circle>
<path id="path85" d="M 512.3449611643435 194.23034147719846
c 0 20.324909860271436 -4.97311624240684 5.838006023694987 -10.811122266101826 5.838006023694987
S 490.72271663213985 214.5552513374699 490.72271663213985 194.23034147719846
s 4.97311624240684 -5.838006023694987 10.811122266101826 -5.838006023694987
S 512.3449611643435 173.90543161692702 512.3449611643435 194.23034147719846
z" fill="none" stroke="none" style="animation-play-state:paused" ></path>


<circle cx="0" cy="0" r="5.972690372305949" fill="#f5f5f1" transform="translate(495.5210876464844 184.85789489746094)" style="animation-play-state:paused" ></circle>
<path id="path86" d="M 1054.6942214423402 41.35270068950231
c 0 35.29324246740651 -8.635580603727123 10.137420708723145 -18.77300131245027 10.137420708723145
S 1017.1482188174397 76.64594315690883 1017.1482188174397 41.35270068950231
s 8.635580603727123 -10.137420708723145 18.77300131245027 -10.137420708723145
S 1054.6942214423402 6.059458222095806 1054.6942214423402 41.35270068950231
z" fill="none" stroke="none" style="animation-play-state:paused" ></path>


<circle cx="0" cy="0" r="4.723917211999413" fill="#e50914" transform="translate(1040.72509765625 29.582460403442383)" style="animation-play-state:paused" ></circle></g></svg>