<?xml version="1.0" encoding="utf-8"?><svg xmlns="http://www.w3.org/2000/svg" xmlns:xlink="http://www.w3.org/1999/xlink" width="1280" height="607" preserveAspectRatio="xMidYMid" viewBox="0 0 1280 607" style="z-index:1;display:block;animation-play-state:paused" ><g transform="" style="animation-play-state:paused" ><defs style="animation-play-state:paused" ><path id="path-3mgp6lr1v7h-1" d="M-35 -35L35 -35L35 35L-35 35Z" fill="none" stroke="inherit" stroke-width="8.333333333333334" transform="scale(0.3)" style="animation-play-state:paused" ></path>

  
<path id="path-3mgp6lr1v7h-2" d="M0 -37A37 37 0 0 1 0 37A37 37 0 0 1 0 -37" fill="none" stroke="inherit" stroke-width="8.333333333333334" transform="scale(0.3)" style="animation-play-state:paused" ></path>

  
<path id="path-3mgp6lr1v7h-3" d="M0 -34.641L40 34.641L-40 34.641Z" fill="none" stroke="inherit" stroke-width="8.333333333333334" transform="scale(0.3)" style="animation-play-state:paused" ></path></defs>
<path id="path0" d="M 49.390266699937484 279.89941390227096
c 0 53.806224832702625 -13.16535288459745 15.454979473223096 -28.620332357820544 15.454979473223096
S -7.8503980157036075 333.7056387349736 -7.8503980157036075 279.89941390227096
s 13.16535288459745 -15.454979473223096 28.620332357820544 -15.454979473223096
S 49.390266699937484 226.09318906956833 49.390266699937484 279.89941390227096
z" fill="none" stroke="none" style="animation-play-state:paused" ></path>


<use xlink:href="#path-3mgp6lr1v7h-1" x="0" y="0" stroke="#5f1471" transform="translate(13.763340950012207 297.64813232421875)" style="animation-play-state:paused" ></use>
<path id="path1" d="M 58.50426017025829 273.3086024024222
c 0 27.10239821581152 -6.631437861315583 7.7847314024139465 -14.41616926372953 7.7847314024139465
S 29.671921642799234 300.41100061823374 29.671921642799234 273.3086024024222
s 6.631437861315583 -7.7847314024139465 14.41616926372953 -7.7847314024139465
S 58.50426017025829 246.20620418661068 58.50426017025829 273.3086024024222
z" fill="none" stroke="none" style="animation-play-state:paused" ></path>


<use xlink:href="#path-3mgp6lr1v7h-2" x="0" y="0" stroke="#5f1471" transform="translate(58.22795867919922 281.1656494140625)" style="animation-play-state:paused" ></use>
<path id="path2" d="M 81.31839255919934 61.48166175412093
c 0 49.12583040565063 -12.020149992871962 14.110610861197523 -26.130760854069486 14.110610861197523
S 29.05687085106036 110.60749215977157 29.05687085106036 61.48166175412093
s 12.020149992871962 -14.110610861197523 26.130760854069486 -14.110610861197523
S 81.31839255919934 12.355831348470296 81.31839255919934 61.48166175412093
z" fill="none" stroke="none" style="animation-play-state:paused" ></path>


<use xlink:href="#path-3mgp6lr1v7h-1" x="0" y="0" stroke="#5f1471" transform="translate(80.84201049804688 75.44442749023438)" style="animation-play-state:paused" ></use>
<path id="path3" d="M 91.69364608752073 397.55524970807113
c 0 39.06545790929632 -9.558569488444842 11.220929399478731 -20.779498887923573 11.220929399478731
S 50.13464831167358 436.62070761736743 50.13464831167358 397.55524970807113
s 9.558569488444842 -11.220929399478731 20.779498887923573 -11.220929399478731
S 91.69364608752073 358.48979179877483 91.69364608752073 397.55524970807113
z" fill="none" stroke="none" style="animation-play-state:paused" ></path>


<use xlink:href="#path-3mgp6lr1v7h-2" x="0" y="0" stroke="#5f1471" transform="translate(91.68402862548828 399.6387634277344)" style="animation-play-state:paused" ></use>
<path id="path4" d="M 118.23481541840235 211.2364964609352
c 0 61.19883523914979 -14.974183090430266 17.578388845287705 -32.55257193571797 17.578388845287705
S 53.129671546966414 272.435331700085 53.129671546966414 211.2364964609352
s 14.974183090430266 -17.578388845287705 32.55257193571797 -17.578388845287705
S 118.23481541840235 150.0376612217854 118.23481541840235 211.2364964609352
z" fill="none" stroke="none" style="animation-play-state:paused" ></path>


<use xlink:href="#path-3mgp6lr1v7h-2" x="0" y="0" stroke="#5f1471" transform="translate(76.34126281738281 232.306640625)" style="animation-play-state:paused" ></use>
<path id="path5" d="M 124.04161245050715 434.47274257975914
c 0 51.622078061551235 -12.630933993783813 14.827618166615782 -27.458552160399595 14.827618166615782
S 69.12450812970796 486.0948206413104 69.12450812970796 434.47274257975914
s 12.630933993783813 -14.827618166615782 27.458552160399595 -14.827618166615782
S 124.04161245050715 382.8506645182079 124.04161245050715 434.47274257975914
z" fill="none" stroke="none" style="animation-play-state:paused" ></path>


<use xlink:href="#path-3mgp6lr1v7h-3" x="0" y="0" stroke="#ffffff" transform="translate(98.34728240966797 449.4682312011719)" style="animation-play-state:paused" ></use>
<path id="path6" d="M 119.20345900313156 180.59008092221393
c 0 20.05299319307435 -4.906583440858617 5.759902300138377 -10.666485740996993 5.759902300138377
S 97.87048752113758 200.64307411528827 97.87048752113758 180.59008092221393
s 4.906583440858617 -5.759902300138377 10.666485740996993 -5.759902300138377
S 119.20345900313156 160.53708772913959 119.20345900313156 180.59008092221393
z" fill="none" stroke="none" style="animation-play-state:paused" ></path>


<use xlink:href="#path-3mgp6lr1v7h-2" x="0" y="0" stroke="#5f1471" transform="translate(114.33118438720703 189.7190399169922)" style="animation-play-state:paused" ></use>
<path id="path7" d="M 132.57324363998157 314.7856477825046
c 0 41.3718011922192 -10.122887525755761 11.883389704148069 -22.00627722990383 11.883389704148069
S 88.56068918017392 356.1574489747238 88.56068918017392 314.7856477825046
s 10.122887525755761 -11.883389704148069 22.00627722990383 -11.883389704148069
S 132.57324363998157 273.4138465902854 132.57324363998157 314.7856477825046
z" fill="none" stroke="none" style="animation-play-state:paused" ></path>


<use xlink:href="#path-3mgp6lr1v7h-2" x="0" y="0" stroke="#5f1471" transform="translate(117.4063491821289 329.3960266113281)" style="animation-play-state:paused" ></use>
<path id="path8" d="M 164.5061167954063 258.48094387670545
c 0 62.661640302382494 -15.332103478242525 17.998556257067314 -33.33065973530984 17.998556257067314
S 97.84479732478664 321.142584179088 97.84479732478664 258.48094387670545
s 15.332103478242525 -17.998556257067314 33.33065973530984 -17.998556257067314
S 164.5061167954063 195.81930357432296 164.5061167954063 258.48094387670545
z" fill="none" stroke="none" style="animation-play-state:paused" ></path>


<use xlink:href="#path-3mgp6lr1v7h-3" x="0" y="0" stroke="#ffffff" transform="translate(160.2355499267578 290.61871337890625)" style="animation-play-state:paused" ></use>
<path id="path9" d="M 149.50759594616085 123.03742448493226
c 0 31.918374841577144 -7.809815120811428 9.168043837474286 -16.977858958285715 9.168043837474286
S 115.55187802958943 154.9557993265094 115.55187802958943 123.03742448493226
s 7.809815120811428 -9.168043837474286 16.977858958285715 -9.168043837474286
S 149.50759594616085 91.11904964335511 149.50759594616085 123.03742448493226
z" fill="none" stroke="none" style="animation-play-state:paused" ></path>


<use xlink:href="#path-3mgp6lr1v7h-1" x="0" y="0" stroke="#ffffff" transform="translate(130.7808380126953 132.46678161621094)" style="animation-play-state:paused" ></use>
<path id="path10" d="M 180.99315286637335 573.4930460660136
c 0 38.827346529404906 -9.500308193365028 11.1525357052546 -20.65284389861963 11.1525357052546
S 139.68746506913408 612.3203925954185 139.68746506913408 573.4930460660136
s 9.500308193365028 -11.1525357052546 20.65284389861963 -11.1525357052546
S 180.99315286637335 534.6656995366086 180.99315286637335 573.4930460660136
z" fill="none" stroke="none" style="animation-play-state:paused" ></path>


<use xlink:href="#path-3mgp6lr1v7h-2" x="0" y="0" stroke="#5f1471" transform="translate(143.53439331054688 594.15771484375)" style="animation-play-state:paused" ></use>
<path id="path11" d="M 192.9009908723516 478.48135966872906
c 0 36.00088276593724 -8.808726634218687 10.340679092343677 -19.149405726562364 10.340679092343677
S 154.60217941922684 514.4822424346663 154.60217941922684 478.48135966872906
s 8.808726634218687 -10.340679092343677 19.149405726562364 -10.340679092343677
S 192.9009908723516 442.4804769027918 192.9009908723516 478.48135966872906
z" fill="none" stroke="none" style="animation-play-state:paused" ></path>


<use xlink:href="#path-3mgp6lr1v7h-1" x="0" y="0" stroke="#5f1471" transform="translate(176.3353271484375 489.31890869140625)" style="animation-play-state:paused" ></use>
<path id="path12" d="M 183.34674918883178 298.75774503172903
c 0 22.16803670094808 -5.424094086402189 6.367414797080831 -11.791508883483019 6.367414797080831
S 159.76373142186577 320.92578173267714 159.76373142186577 298.75774503172903
s 5.424094086402189 -6.367414797080831 11.791508883483019 -6.367414797080831
S 183.34674918883178 276.5897083307809 183.34674918883178 298.75774503172903
z" fill="none" stroke="none" style="animation-play-state:paused" ></path>


<use xlink:href="#path-3mgp6lr1v7h-2" x="0" y="0" stroke="#ffffff" transform="translate(170.6239776611328 305.2333068847656)" style="animation-play-state:paused" ></use>
<path id="path13" d="M 213.51088540475172 410.83220885927614
c 0 40.25453007401418 -9.849512677684318 11.562471404238114 -21.411984081922434 11.562471404238114
S 170.68691724090684 451.0867389332903 170.68691724090684 410.83220885927614
s 9.849512677684318 -11.562471404238114 21.411984081922434 -11.562471404238114
S 213.51088540475172 370.577678785262 213.51088540475172 410.83220885927614
z" fill="none" stroke="none" style="animation-play-state:paused" ></path>


<use xlink:href="#path-3mgp6lr1v7h-2" x="0" y="0" stroke="#ffffff" transform="translate(207.87696838378906 432.056396484375)" style="animation-play-state:paused" ></use>
<path id="path14" d="M 235.2844189808959 148.54809973085366
c 0 52.222296105826 -12.777795855680827 15.00002122188619 -27.77781707756702 15.00002122188619
S 179.72878482576186 200.77039583667965 179.72878482576186 148.54809973085366
s 12.777795855680827 -15.00002122188619 27.77781707756702 -15.00002122188619
S 235.2844189808959 96.32580362502767 235.2844189808959 148.54809973085366
z" fill="none" stroke="none" style="animation-play-state:paused" ></path>


<use xlink:href="#path-3mgp6lr1v7h-1" x="0" y="0" stroke="#5f1471" transform="translate(235.27972412109375 150.23411560058594)" style="animation-play-state:paused" ></use>
<path id="path15" d="M 238.3679057428561 564.3771412167687
c 0 37.16990174124694 -9.094763192007228 10.67646113844327 -19.771224330450497 10.67646113844327
S 198.82545708195508 601.5470429580156 198.82545708195508 564.3771412167687
s 9.094763192007228 -10.67646113844327 19.771224330450497 -10.67646113844327
S 238.3679057428561 527.2072394755218 238.3679057428561 564.3771412167687
z" fill="none" stroke="none" style="animation-play-state:paused" ></path>


<use xlink:href="#path-3mgp6lr1v7h-3" x="0" y="0" stroke="#ffffff" transform="translate(222.750244140625 576.2449340820312)" style="animation-play-state:paused" ></use>
<path id="path16" d="M 259.34189739812325 436.4053340101522
c 0 47.195443121407706 -11.547821189280608 13.556137917851151 -25.103959107131757 13.556137917851151
S 209.1339791838597 483.60077713155994 209.1339791838597 436.4053340101522
s 11.547821189280608 -13.556137917851151 25.103959107131757 -13.556137917851151
S 259.34189739812325 389.2098908887445 259.34189739812325 436.4053340101522
z" fill="none" stroke="none" style="animation-play-state:paused" ></path>


<use xlink:href="#path-3mgp6lr1v7h-2" x="0" y="0" stroke="#5f1471" transform="translate(245.719970703125 456.0233459472656)" style="animation-play-state:paused" ></use>
<path id="path17" d="M 247.2163137136155 546.4347305513572
c 0 26.017653250631717 -6.366021540048186 7.473155720926132 -13.839177260974317 7.473155720926132
S 219.53795919166689 572.452383801989 219.53795919166689 546.4347305513572
s 6.366021540048186 -7.473155720926132 13.839177260974317 -7.473155720926132
S 247.2163137136155 520.4170773007255 247.2163137136155 546.4347305513572
z" fill="none" stroke="none" style="animation-play-state:paused" ></path>


<use xlink:href="#path-3mgp6lr1v7h-1" x="0" y="0" stroke="#5f1471" transform="translate(228.77525329589844 555.8431396484375)" style="animation-play-state:paused" ></use>
<path id="path18" d="M 259.53415018798916 540.1559874678985
c 0 32.42699093286318 -7.934263738892053 9.314135693481976 -17.24839943237403 9.314135693481976
S 225.03735132324113 572.5829784007617 225.03735132324113 540.1559874678985
s 7.934263738892053 -9.314135693481976 17.24839943237403 -9.314135693481976
S 259.53415018798916 507.7289965350353 259.53415018798916 540.1559874678985
z" fill="none" stroke="none" style="animation-play-state:paused" ></path>


<use xlink:href="#path-3mgp6lr1v7h-1" x="0" y="0" stroke="#5f1471" transform="translate(244.42864990234375 549.8518676757812)" style="animation-play-state:paused" ></use>
<path id="path19" d="M 292.64255887355125 482.1745405998065
c 0 60.28973542225423 -14.751743773530288 17.317264429796428 -32.06900820332672 17.317264429796428
S 228.5045424668978 542.4642760220607 228.5045424668978 482.1745405998065
s 14.751743773530288 -17.317264429796428 32.06900820332672 -17.317264429796428
S 292.64255887355125 421.88480517755227 292.64255887355125 482.1745405998065
z" fill="none" stroke="none" style="animation-play-state:paused" ></path>


<use xlink:href="#path-3mgp6lr1v7h-3" x="0" y="0" stroke="#ffffff" transform="translate(290.3365783691406 509.5319519042969)" style="animation-play-state:paused" ></use>
<path id="path20" d="M 293.3118821520495 428.97919704733977
c 0 43.696051325347526 -10.691587026414819 12.55099346579131 -23.24258049220613 12.55099346579131
S 246.8267211676373 472.6752483726873 246.8267211676373 428.97919704733977
s 10.691587026414819 -12.55099346579131 23.24258049220613 -12.55099346579131
S 293.3118821520495 385.28314572199224 293.3118821520495 428.97919704733977
z" fill="none" stroke="none" style="animation-play-state:paused" ></path>


<use xlink:href="#path-3mgp6lr1v7h-2" x="0" y="0" stroke="#ffffff" transform="translate(292.8284912109375 442.057373046875)" style="animation-play-state:paused" ></use>
<path id="path21" d="M 298.1598903529192 453.94928316371966
c 0 21.959438803651206 -5.373054175361466 6.307498379772156 -11.680552555133621 6.307498379772156
S 274.798785242652 475.90872196737087 274.798785242652 453.94928316371966
s 5.373054175361466 -6.307498379772156 11.680552555133621 -6.307498379772156
S 298.1598903529192 431.98984436006845 298.1598903529192 453.94928316371966
z" fill="none" stroke="none" style="animation-play-state:paused" ></path>


<use xlink:href="#path-3mgp6lr1v7h-1" x="0" y="0" stroke="#5f1471" transform="translate(297.8575439453125 461.0939636230469)" style="animation-play-state:paused" ></use>
<path id="path22" d="M 319.11189808853914 424.02137234170095
c 0 36.77617328091464 -8.998425377245072 10.563368921113781 -19.56179429835885 10.563368921113781
S 279.98830949182144 460.7975456226156 279.98830949182144 424.02137234170095
s 8.998425377245072 -10.563368921113781 19.56179429835885 -10.563368921113781
S 319.11189808853914 387.2451990607863 319.11189808853914 424.02137234170095
z" fill="none" stroke="none" style="animation-play-state:paused" ></path>


<use xlink:href="#path-3mgp6lr1v7h-2" x="0" y="0" stroke="#5f1471" transform="translate(318.8197937011719 433.6661376953125)" style="animation-play-state:paused" ></use>
<path id="path23" d="M 339.8808387186495 543.8178626927797
c 0 46.4060587796878 -11.354673956732118 13.32939986225075 -24.684073818982867 13.32939986225075
S 290.51269108068374 590.2239214724675 290.51269108068374 543.8178626927797
s 11.354673956732118 -13.32939986225075 24.684073818982867 -13.32939986225075
S 339.8808387186495 497.41180391309194 339.8808387186495 543.8178626927797
z" fill="none" stroke="none" style="animation-play-state:paused" ></path>


<use xlink:href="#path-3mgp6lr1v7h-2" x="0" y="0" stroke="#5f1471" transform="translate(335.5487976074219 568.4415283203125)" style="animation-play-state:paused" ></use>
<path id="path24" d="M 343.92325388381806 566.7206557401877
c 0 43.27647185487371 -10.588923964490375 12.430475958314789 -23.019399922805164 12.430475958314789
S 297.8844540382077 609.9971275950614 297.8844540382077 566.7206557401877
s 10.588923964490375 -12.430475958314789 23.019399922805164 -12.430475958314789
S 343.92325388381806 523.4441838853139 343.92325388381806 566.7206557401877
z" fill="none" stroke="none" style="animation-play-state:paused" ></path>


<use xlink:href="#path-3mgp6lr1v7h-2" x="0" y="0" stroke="#ffffff" transform="translate(343.77947998046875 574.5450439453125)" style="animation-play-state:paused" ></use>
<path id="path25" d="M 369.4048778712294 328.9798206542697
c 0 55.91822388896628 -13.682118611130047 16.06161750002223 -29.743736111152277 16.06161750002223
S 309.9174056489249 384.898044543236 309.9174056489249 328.9798206542697
s 13.682118611130047 -16.06161750002223 29.743736111152277 -16.06161750002223
S 369.4048778712294 273.0615967653034 369.4048778712294 328.9798206542697
z" fill="none" stroke="none" style="animation-play-state:paused" ></path>


<use xlink:href="#path-3mgp6lr1v7h-3" x="0" y="0" stroke="#5f1471" transform="translate(368.26922607421875 349.8913879394531)" style="animation-play-state:paused" ></use>
<path id="path26" d="M 384.99214699561077 459.6948419963189
c 0 64.72414539501109 -15.836758979630373 18.590977932609572 -34.42773691223994 18.590977932609572
S 316.1366731711309 524.41898739133 316.1366731711309 459.6948419963189
s 15.836758979630373 -18.590977932609572 34.42773691223994 -18.590977932609572
S 384.99214699561077 394.97069660130785 384.99214699561077 459.6948419963189
z" fill="none" stroke="none" style="animation-play-state:paused" ></path>


<use xlink:href="#path-3mgp6lr1v7h-1" x="0" y="0" stroke="#5f1471" transform="translate(347.3988037109375 478.7105712890625)" style="animation-play-state:paused" ></use>
<path id="path27" d="M 368.6002369823192 88.4707692602802
c 0 20.15294733541603 -4.931040305474134 5.788612532513116 -10.719652837987251 5.788612532513116
S 347.16093130634465 108.62371659569624 347.16093130634465 88.4707692602802
s 4.931040305474134 -5.788612532513116 10.719652837987251 -5.788612532513116
S 368.6002369823192 68.31782192486418 368.6002369823192 88.4707692602802
z" fill="none" stroke="none" style="animation-play-state:paused" ></path>


<use xlink:href="#path-3mgp6lr1v7h-2" x="0" y="0" stroke="#5f1471" transform="translate(358.829345703125 94.38214874267578)" style="animation-play-state:paused" ></use>
<path id="path28" d="M 402.77507597118677 284.2998319918395
c 0 52.88751695033832 -12.940562658061504 15.191095294246114 -28.13165795230762 15.191095294246114
S 346.51176006657147 337.1873489421778 346.51176006657147 284.2998319918395
s 12.940562658061504 -15.191095294246114 28.13165795230762 -15.191095294246114
S 402.77507597118677 231.41231504150116 402.77507597118677 284.2998319918395
z" fill="none" stroke="none" style="animation-play-state:paused" ></path>


<use xlink:href="#path-3mgp6lr1v7h-2" x="0" y="0" stroke="#5f1471" transform="translate(402.0555419921875 301.4308166503906)" style="animation-play-state:paused" ></use>
<path id="path29" d="M 423.34489151368916 86.47210385256378
c 0 65.04353203080483 -15.914906773494796 18.68271664714607 -34.597623420640865 18.68271664714607
S 354.1496446724075 151.5156358833686 354.1496446724075 86.47210385256378
s 15.914906773494796 -18.68271664714607 34.597623420640865 -18.68271664714607
S 423.34489151368916 21.42857182175895 423.34489151368916 86.47210385256378
z" fill="none" stroke="none" style="animation-play-state:paused" ></path>


<use xlink:href="#path-3mgp6lr1v7h-3" x="0" y="0" stroke="#5f1471" transform="translate(401.98846435546875 111.34501647949219)" style="animation-play-state:paused" ></use>
<path id="path30" d="M 419.15950995193987 484.12398615704274
c 0 42.5677668973266 -10.415517432324592 12.226911768381044 -22.642429200705635 12.226911768381044
S 373.8746515505286 526.6917530543693 373.8746515505286 484.12398615704274
s 10.415517432324592 -12.226911768381044 22.642429200705635 -12.226911768381044
S 419.15950995193987 441.55621925971616 419.15950995193987 484.12398615704274
z" fill="none" stroke="none" style="animation-play-state:paused" ></path>


<use xlink:href="#path-3mgp6lr1v7h-3" x="0" y="0" stroke="#ffffff" transform="translate(397.7646484375 496.4532775878906)" style="animation-play-state:paused" ></use>
<path id="path31" d="M 434.73232802928106 180.38644958490795
c 0 37.90602271587039 -9.27487789856403 10.88790014179256 -20.162778040356592 10.88790014179256
S 394.40677194856784 218.29247230077834 394.40677194856784 180.38644958490795
s 9.27487789856403 -10.88790014179256 20.162778040356592 -10.88790014179256
S 434.73232802928106 142.48042686903756 434.73232802928106 180.38644958490795
z" fill="none" stroke="none" style="animation-play-state:paused" ></path>


<use xlink:href="#path-3mgp6lr1v7h-1" x="0" y="0" stroke="#ffffff" transform="translate(423.6297607421875 196.00405883789062)" style="animation-play-state:paused" ></use>
<path id="path32" d="M 458.8376950025129 167.26097173736684
c 0 58.69919830022013 -14.36256979686237 16.860408022403657 -31.222977819266028 16.860408022403657
S 396.39173936398083 225.96017003758698 396.39173936398083 167.26097173736684
s 14.36256979686237 -16.860408022403657 31.222977819266028 -16.860408022403657
S 458.8376950025129 108.56177343714671 458.8376950025129 167.26097173736684
z" fill="none" stroke="none" style="animation-play-state:paused" ></path>


<use xlink:href="#path-3mgp6lr1v7h-1" x="0" y="0" stroke="#5f1471" transform="translate(458.6464538574219 177.7823028564453)" style="animation-play-state:paused" ></use>
<path id="path33" d="M 476.8305890150234 196.5357362846904
c 0 60.94644427762755 -14.912427855164188 17.505893569105787 -32.418321424269976 17.505893569105787
S 411.9939461664834 257.4821805623179 411.9939461664834 196.5357362846904
s 14.912427855164188 -17.505893569105787 32.418321424269976 -17.505893569105787
S 476.8305890150234 135.58929200706285 476.8305890150234 196.5357362846904
z" fill="none" stroke="none" style="animation-play-state:paused" ></path>


<use xlink:href="#path-3mgp6lr1v7h-1" x="0" y="0" stroke="#5f1471" transform="translate(428.7854919433594 222.561279296875)" style="animation-play-state:paused" ></use>
<path id="path34" d="M 462.98588934731043 435.6785267588848
c 0 34.426897384873556 -8.423602551617996 9.888576908421127 -18.312179460039125 9.888576908421127
S 426.36153042723214 470.10542414375834 426.36153042723214 435.6785267588848
s 8.423602551617996 -9.888576908421127 18.312179460039125 -9.888576908421127
S 462.98588934731043 401.25162937401126 462.98588934731043 435.6785267588848
z" fill="none" stroke="none" style="animation-play-state:paused" ></path>


<use xlink:href="#path-3mgp6lr1v7h-3" x="0" y="0" stroke="#ffffff" transform="translate(460.9512023925781 452.91778564453125)" style="animation-play-state:paused" ></use>
<path id="path35" d="M 485.99349782443056 398.8631186943825
c 0 40.629994473436575 -9.94138162647916 11.670317561519017 -21.611699187998177 11.670317561519017
S 442.7700994484342 439.49311316781905 442.7700994484342 398.8631186943825
s 9.94138162647916 -11.670317561519017 21.611699187998177 -11.670317561519017
S 485.99349782443056 358.2331242209459 485.99349782443056 398.8631186943825
z" fill="none" stroke="none" style="animation-play-state:paused" ></path>


<use xlink:href="#path-3mgp6lr1v7h-2" x="0" y="0" stroke="#5f1471" transform="translate(473.29132080078125 414.92425537109375)" style="animation-play-state:paused" ></use>
<path id="path36" d="M 492.86326045625174 526.520161138817
c 0 30.81275089459817 -7.539290112508062 8.850471001639901 -16.389761114147962 8.850471001639901
S 460.0837382279558 557.3329120334151 460.0837382279558 526.520161138817
s 7.539290112508062 -8.850471001639901 16.389761114147962 -8.850471001639901
S 492.86326045625174 495.7074102442188 492.86326045625174 526.520161138817
z" fill="none" stroke="none" style="animation-play-state:paused" ></path>


<use xlink:href="#path-3mgp6lr1v7h-2" x="0" y="0" stroke="#ffffff" transform="translate(475.8739318847656 535.403564453125)" style="animation-play-state:paused" ></use>
<path id="path37" d="M 501.31987196379237 172.25722900535106
c 0 36.90162739954652 -9.029121597761382 10.599403614763363 -19.628525212524742 10.599403614763363
S 462.0628215387429 209.1588564048976 462.0628215387429 172.25722900535106
s 9.029121597761382 -10.599403614763363 19.628525212524742 -10.599403614763363
S 501.31987196379237 135.35560160580454 501.31987196379237 172.25722900535106
z" fill="none" stroke="none" style="animation-play-state:paused" ></path>


<use xlink:href="#path-3mgp6lr1v7h-3" x="0" y="0" stroke="#ffffff" transform="translate(492.6053466796875 189.27151489257812)" style="animation-play-state:paused" ></use>
<path id="path38" d="M 509.40121222163015 88.55140724046407
c 0 27.639451991881156 -6.762844636311346 7.938991529582885 -14.701836165894232 7.938991529582885
S 479.9975398898417 116.19085923234523 479.9975398898417 88.55140724046407
s 6.762844636311346 -7.938991529582885 14.701836165894232 -7.938991529582885
S 509.40121222163015 60.91195524858291 509.40121222163015 88.55140724046407
z" fill="none" stroke="none" style="animation-play-state:paused" ></path>


<use xlink:href="#path-3mgp6lr1v7h-2" x="0" y="0" stroke="#ffffff" transform="translate(507.1430358886719 103.05785369873047)" style="animation-play-state:paused" ></use>
<path id="path39" d="M 531.3781507052416 335.00576579544264
c 0 33.86698770705251 -8.28660337512987 9.727751788195935 -18.014355163325803 9.727751788195935
S 495.34944037859 368.87275350249513 495.34944037859 335.00576579544264
s 8.28660337512987 -9.727751788195935 18.014355163325803 -9.727751788195935
S 531.3781507052416 301.13877808839015 531.3781507052416 335.00576579544264
z" fill="none" stroke="none" style="animation-play-state:paused" ></path>


<use xlink:href="#path-3mgp6lr1v7h-2" x="0" y="0" stroke="#ffffff" transform="translate(514.7206420898438 344.88409423828125)" style="animation-play-state:paused" ></use>
<path id="path40" d="M 556.5132664537131 483.0937063699143
c 0 58.720267811772366 -14.36772510288047 16.866459903381426 -31.234185006261896 16.866459903381426
S 494.0448964411893 541.8139741816866 494.0448964411893 483.0937063699143
s 14.36772510288047 -16.866459903381426 31.234185006261896 -16.866459903381426
S 556.5132664537131 424.3734385581419 556.5132664537131 483.0937063699143
z" fill="none" stroke="none" style="animation-play-state:paused" ></path>


<use xlink:href="#path-3mgp6lr1v7h-3" x="0" y="0" stroke="#ffffff" transform="translate(555.6134643554688 502.9704284667969)" style="animation-play-state:paused" ></use>
<path id="path41" d="M 568.40273153771 494.4718311567012
c 0 56.409991978225435 -13.802444845736009 16.202870036298794 -30.005314882034803 16.202870036298794
S 508.39210177364043 550.8818231349267 508.39210177364043 494.4718311567012
s 13.802444845736009 -16.202870036298794 30.005314882034803 -16.202870036298794
S 568.40273153771 438.0618391784758 568.40273153771 494.4718311567012
z" fill="none" stroke="none" style="animation-play-state:paused" ></path>


<use xlink:href="#path-3mgp6lr1v7h-3" x="0" y="0" stroke="#ffffff" transform="translate(558.5745239257812 523.1837768554688)" style="animation-play-state:paused" ></use>
<path id="path42" d="M 565.9989803991695 503.28793217998225
c 0 43.38065886187469 -10.614416530033168 12.460402013517198 -23.074818543550364 12.460402013517198
S 519.8493433120688 546.668591041857 519.8493433120688 503.28793217998225
s 10.614416530033168 -12.460402013517198 23.074818543550364 -12.460402013517198
S 565.9989803991695 459.90727331810757 565.9989803991695 503.28793217998225
z" fill="none" stroke="none" style="animation-play-state:paused" ></path>


<use xlink:href="#path-3mgp6lr1v7h-3" x="0" y="0" stroke="#ffffff" transform="translate(565.1322631835938 519.419921875)" style="animation-play-state:paused" ></use>
<path id="path43" d="M 585.2124371647274 221.45625714071363
c 0 47.07659667625468 -11.518741739934654 13.52200117296677 -25.040742912901422 13.52200117296677
S 535.1309513389244 268.5328538169683 535.1309513389244 221.45625714071363
s 11.518741739934654 -13.52200117296677 25.040742912901422 -13.52200117296677
S 585.2124371647274 174.37966046445894 585.2124371647274 221.45625714071363
z" fill="none" stroke="none" style="animation-play-state:paused" ></path>


<use xlink:href="#path-3mgp6lr1v7h-1" x="0" y="0" stroke="#5f1471" transform="translate(559.0162963867188 235.0579833984375)" style="animation-play-state:paused" ></use>
<path id="path44" d="M 583.7707522641059 524.0606322764336
c 0 27.999752842533177 -6.851003355087904 8.042482199451019 -14.893485554538923 8.042482199451019
S 553.9837811550282 552.0603851189668 553.9837811550282 524.0606322764336
s 6.851003355087904 -8.042482199451019 14.893485554538923 -8.042482199451019
S 583.7707522641059 496.0608794339004 583.7707522641059 524.0606322764336
z" fill="none" stroke="none" style="animation-play-state:paused" ></path>


<use xlink:href="#path-3mgp6lr1v7h-2" x="0" y="0" stroke="#5f1471" transform="translate(568.4789428710938 532.1192626953125)" style="animation-play-state:paused" ></use>
<path id="path45" d="M 616.6972760453101 260.76195933956285
c 0 57.612679080758696 -14.096719349547339 16.54832271468601 -30.645042064233348 16.54832271468601
S 555.4071919168433 318.37463842032156 555.4071919168433 260.76195933956285
s 14.096719349547339 -16.54832271468601 30.645042064233348 -16.54832271468601
S 616.6972760453101 203.14928025880414 616.6972760453101 260.76195933956285
z" fill="none" stroke="none" style="animation-play-state:paused" ></path>


<use xlink:href="#path-3mgp6lr1v7h-1" x="0" y="0" stroke="#5f1471" transform="translate(597.9334716796875 282.9169006347656)" style="animation-play-state:paused" ></use>
<path id="path46" d="M 607.1246419009483 537.9493439318628
c 0 25.60061471435546 -6.263980196065696 7.3533680562510355 -13.617348252316733 7.3533680562510355
S 579.8899453963147 563.5499586462183 579.8899453963147 537.9493439318628
s 6.263980196065696 -7.3533680562510355 13.617348252316733 -7.3533680562510355
S 607.1246419009483 512.3487292175073 607.1246419009483 537.9493439318628
z" fill="none" stroke="none" style="animation-play-state:paused" ></path>


<use xlink:href="#path-3mgp6lr1v7h-3" x="0" y="0" stroke="#5f1471" transform="translate(607.0978393554688 540.6746215820312)" style="animation-play-state:paused" ></use>
<path id="path47" d="M 613.1863303514675 543.0233141177533
c 0 19.34303576211185 -4.732870452431622 5.555978357202339 -10.288848809633961 5.555978357202339
S 592.6086327321997 562.3663498798652 592.6086327321997 543.0233141177533
s 4.732870452431622 -5.555978357202339 10.288848809633961 -5.555978357202339
S 613.1863303514675 523.6802783556415 613.1863303514675 543.0233141177533
z" fill="none" stroke="none" style="animation-play-state:paused" ></path>


<use xlink:href="#path-3mgp6lr1v7h-1" x="0" y="0" stroke="#ffffff" transform="translate(599.6123046875 549.9176025390625)" style="animation-play-state:paused" ></use>
<path id="path48" d="M 635.9974852812788 400.9127924510352
c 0 32.892130644945816 -8.048074519508017 9.4477396533355 -17.495814172843517 9.4477396533355
S 601.0058569355917 433.80492309598105 601.0058569355917 400.9127924510352
s 8.048074519508017 -9.4477396533355 17.495814172843517 -9.4477396533355
S 635.9974852812788 368.0206618060894 635.9974852812788 400.9127924510352
z" fill="none" stroke="none" style="animation-play-state:paused" ></path>


<use xlink:href="#path-3mgp6lr1v7h-2" x="0" y="0" stroke="#5f1471" transform="translate(631.8142700195312 418.38897705078125)" style="animation-play-state:paused" ></use>
<path id="path49" d="M 657.5451620490413 264.20477329253686
c 0 52.287765829306544 -12.793815043340961 15.018826355226347 -27.812641398567308 15.018826355226347
S 601.9198792519068 316.4925391218434 601.9198792519068 264.20477329253686
s 12.793815043340961 -15.018826355226347 27.812641398567308 -15.018826355226347
S 657.5451620490413 211.9170074632303 657.5451620490413 264.20477329253686
z" fill="none" stroke="none" style="animation-play-state:paused" ></path>


<use xlink:href="#path-3mgp6lr1v7h-2" x="0" y="0" stroke="#5f1471" transform="translate(657.5408935546875 265.81719970703125)" style="animation-play-state:paused" ></use>
<path id="path50" d="M 660.6849225996493 266.96824986521955
c 0 24.343895943592834 -5.9564851776876075 6.992395643372411 -12.948880821060019 6.992395643372411
S 634.7871609575293 291.3121458088124 634.7871609575293 266.96824986521955
s 5.9564851776876075 -6.992395643372411 12.948880821060019 -6.992395643372411
S 660.6849225996493 242.62435392162672 660.6849225996493 266.96824986521955
z" fill="none" stroke="none" style="animation-play-state:paused" ></path>


<use xlink:href="#path-3mgp6lr1v7h-3" x="0" y="0" stroke="#5f1471" transform="translate(648.8902587890625 274.11102294921875)" style="animation-play-state:paused" ></use>
<path id="path51" d="M 688.4308660137071 522.3515338864175
c 0 50.31887148553785 -12.312064299652878 14.453292873505553 -26.76535717315843 14.453292873505553
S 634.9001516673902 572.6704053719554 634.9001516673902 522.3515338864175
s 12.312064299652878 -14.453292873505553 26.76535717315843 -14.453292873505553
S 688.4308660137071 472.0326624008797 688.4308660137071 522.3515338864175
z" fill="none" stroke="none" style="animation-play-state:paused" ></path>


<use xlink:href="#path-3mgp6lr1v7h-1" x="0" y="0" stroke="#5f1471" transform="translate(673.35791015625 542.7974243164062)" style="animation-play-state:paused" ></use>
<path id="path52" d="M 701.2324342907839 69.31387368687007
c 0 63.46875063467066 -15.529587921249203 18.230385820596894 -33.759973741846096 18.230385820596894
S 633.7124868070916 132.78262432154074 633.7124868070916 69.31387368687007
s 15.529587921249203 -18.230385820596894 33.759973741846096 -18.230385820596894
S 701.2324342907839 5.845123052199405 701.2324342907839 69.31387368687007
z" fill="none" stroke="none" style="animation-play-state:paused" ></path>


<use xlink:href="#path-3mgp6lr1v7h-1" x="0" y="0" stroke="#ffffff" transform="translate(698.0535278320312 100.05400085449219)" style="animation-play-state:paused" ></use>
<path id="path53" d="M 700.5144639180953 400.40990109357415
c 0 37.39279170217499 -9.149300097340689 10.740482722965158 -19.889782820305847 10.740482722965158
S 660.7348982774836 437.8026927957491 660.7348982774836 400.40990109357415
s 9.149300097340689 -10.740482722965158 19.889782820305847 -10.740482722965158
S 700.5144639180953 363.0171093913992 700.5144639180953 400.40990109357415
z" fill="none" stroke="none" style="animation-play-state:paused" ></path>


<use xlink:href="#path-3mgp6lr1v7h-2" x="0" y="0" stroke="#5f1471" transform="translate(700.132568359375 411.2580871582031)" style="animation-play-state:paused" ></use>
<path id="path54" d="M 720.8635423140394 478.4617524761274
c 0 43.686946912492694 -10.689359350929061 12.548378368481943 -23.237737719411005 12.548378368481943
S 674.3880668752173 522.1486993886201 674.3880668752173 478.4617524761274
s 10.689359350929061 -12.548378368481943 23.237737719411005 -12.548378368481943
S 720.8635423140394 434.7748055636347 720.8635423140394 478.4617524761274
z" fill="none" stroke="none" style="animation-play-state:paused" ></path>


<use xlink:href="#path-3mgp6lr1v7h-3" x="0" y="0" stroke="#5f1471" transform="translate(690.1015625 494.10906982421875)" style="animation-play-state:paused" ></use>
<path id="path55" d="M 745.6053289720375 428.5914125285593
c 0 62.75923548677309 -15.355983151018947 18.026588916413548 -33.3825720674325 18.026588916413548
S 678.8401848371724 491.3506480153324 678.8401848371724 428.5914125285593
s 15.355983151018947 -18.026588916413548 33.3825720674325 -18.026588916413548
S 745.6053289720375 365.8321770417862 745.6053289720375 428.5914125285593
z" fill="none" stroke="none" style="animation-play-state:paused" ></path>


<use xlink:href="#path-3mgp6lr1v7h-1" x="0" y="0" stroke="#5f1471" transform="translate(694.6050415039062 456.7169494628906)" style="animation-play-state:paused" ></use>
<path id="path56" d="M 737.7488484950358 240.82536569186692
c 0 26.429194814974103 -6.46671788025962 7.591364468130859 -14.05808234839048 7.591364468130859
S 709.6326837982548 267.254560506841 709.6326837982548 240.82536569186692
s 6.46671788025962 -7.591364468130859 14.05808234839048 -7.591364468130859
S 737.7488484950358 214.39617087689282 737.7488484950358 240.82536569186692
z" fill="none" stroke="none" style="animation-play-state:paused" ></path>


<use xlink:href="#path-3mgp6lr1v7h-1" x="0" y="0" stroke="#5f1471" transform="translate(710.2215576171875 251.0216064453125)" style="animation-play-state:paused" ></use>
<path id="path57" d="M 761.8907339541796 444.93888085008956
c 0 46.82294190038831 -11.456677273499265 13.449142886281749 -24.905820159781015 13.449142886281749
S 712.0790936346176 491.76182275047785 712.0790936346176 444.93888085008956
s 11.456677273499265 -13.449142886281749 24.905820159781015 -13.449142886281749
S 761.8907339541796 398.1159389497013 761.8907339541796 444.93888085008956
z" fill="none" stroke="none" style="animation-play-state:paused" ></path>


<use xlink:href="#path-3mgp6lr1v7h-3" x="0" y="0" stroke="#ffffff" transform="translate(761.58642578125 456.2436828613281)" style="animation-play-state:paused" ></use>
<path id="path58" d="M 762.541994266332 469.32268623563243
c 0 23.21359796425434 -5.679922906147338 6.667735585477311 -12.34765849162465 6.667735585477311
S 737.8466772830827 492.5362841998868 737.8466772830827 469.32268623563243
s 5.679922906147338 -6.667735585477311 12.34765849162465 -6.667735585477311
S 762.541994266332 446.1090882713781 762.541994266332 469.32268623563243
z" fill="none" stroke="none" style="animation-play-state:paused" ></path>


<use xlink:href="#path-3mgp6lr1v7h-3" x="0" y="0" stroke="#5f1471" transform="translate(757.6185302734375 480.4897155761719)" style="animation-play-state:paused" ></use>
<path id="path59" d="M 765.1439161466084 327.3460584494723
c 0 25.08277664782126 -6.1372751372328604 7.20462733501249 -13.341902472245351 7.20462733501249
S 738.4601112021177 352.4288350972936 738.4601112021177 327.3460584494723
s 6.1372751372328604 -7.20462733501249 13.341902472245351 -7.20462733501249
S 765.1439161466084 302.26328180165103 765.1439161466084 327.3460584494723
z" fill="none" stroke="none" style="animation-play-state:paused" ></path>


<use xlink:href="#path-3mgp6lr1v7h-3" x="0" y="0" stroke="#ffffff" transform="translate(752.0379028320312 334.55706787109375)" style="animation-play-state:paused" ></use>
<path id="path60" d="M 804.6621618004018 87.5334207660233
c 0 61.062056141100854 -14.94071586431191 17.539101232018332 -32.479817096330244 17.539101232018332
S 739.7025276077412 148.59547690712415 739.7025276077412 87.5334207660233
s 14.94071586431191 -17.539101232018332 32.479817096330244 -17.539101232018332
S 804.6621618004018 26.471364624922444 804.6621618004018 87.5334207660233
z" fill="none" stroke="none" style="animation-play-state:paused" ></path>


<use xlink:href="#path-3mgp6lr1v7h-1" x="0" y="0" stroke="#5f1471" transform="translate(804.2886352539062 101.90711212158203)" style="animation-play-state:paused" ></use>
<path id="path61" d="M 795.0744100990075 177.77468892949122
c 0 19.15346951012039 -4.6864872205613715 5.501528476311176 -10.188015696872547 5.501528476311176
S 774.6983787052625 196.92815843961162 774.6983787052625 177.77468892949122
s 4.6864872205613715 -5.501528476311176 10.188015696872547 -5.501528476311176
S 795.0744100990075 158.62121941937082 795.0744100990075 177.77468892949122
z" fill="none" stroke="none" style="animation-play-state:paused" ></path>


<use xlink:href="#path-3mgp6lr1v7h-2" x="0" y="0" stroke="#ffffff" transform="translate(793.5867919921875 187.77169799804688)" style="animation-play-state:paused" ></use>
<path id="path62" d="M 814.4003788513176 149.55265636149682
c 0 45.19606082196628 -11.058610626651323 12.981847257373293 -24.040457884024615 12.981847257373293
S 766.3194630832684 194.7487171834631 766.3194630832684 149.55265636149682
s 11.058610626651323 -12.981847257373293 24.040457884024615 -12.981847257373293
S 814.4003788513176 104.35659553953053 814.4003788513176 149.55265636149682
z" fill="none" stroke="none" style="animation-play-state:paused" ></path>


<use xlink:href="#path-3mgp6lr1v7h-1" x="0" y="0" stroke="#5f1471" transform="translate(796.459228515625 164.592529296875)" style="animation-play-state:paused" ></use>
<path id="path63" d="M 820.0977775651559 136.85313551730965
c 0 30.468622690291177 -7.45508853060316 8.751625666360232 -16.206714196963393 8.751625666360232
S 787.6843491712291 167.32175820760082 787.6843491712291 136.85313551730965
s 7.45508853060316 -8.751625666360232 16.206714196963393 -8.751625666360232
S 820.0977775651559 106.38451282701848 820.0977775651559 136.85313551730965
z" fill="none" stroke="none" style="animation-play-state:paused" ></path>


<use xlink:href="#path-3mgp6lr1v7h-3" x="0" y="0" stroke="#ffffff" transform="translate(806.4412231445312 146.1695556640625)" style="animation-play-state:paused" ></use>
<path id="path64" d="M 837.4271830122377 207.03634596236265
c 0 31.337677894482997 -7.667729697586265 9.001247905862138 -16.668977603448404 9.001247905862138
S 804.0892278053409 238.37402385684564 804.0892278053409 207.03634596236265
s 7.667729697586265 -9.001247905862138 16.668977603448404 -9.001247905862138
S 837.4271830122377 175.69866806787965 837.4271830122377 207.03634596236265
z" fill="none" stroke="none" style="animation-play-state:paused" ></path>


<use xlink:href="#path-3mgp6lr1v7h-2" x="0" y="0" stroke="#5f1471" transform="translate(829.02978515625 220.62391662597656)" style="animation-play-state:paused" ></use>
<path id="path65" d="M 866.4119946272098 417.50448373806233
c 0 60.24975421039425 -14.741961136585825 17.30578046468771 -32.047741601273536 17.30578046468771
S 802.3165114246627 477.7542379484566 802.3165114246627 417.50448373806233
s 14.741961136585825 -17.30578046468771 32.047741601273536 -17.30578046468771
S 866.4119946272098 357.2547295276681 866.4119946272098 417.50448373806233
z" fill="none" stroke="none" style="animation-play-state:paused" ></path>


<use xlink:href="#path-3mgp6lr1v7h-1" x="0" y="0" stroke="#5f1471" transform="translate(866.2498779296875 427.4177551269531)" style="animation-play-state:paused" ></use>
<path id="path66" d="M 863.4621738647716 477.4360724467637
c 0 45.102550762829814 -11.035730505798783 12.954987985068138 -23.99071849086692 12.954987985068138
S 815.4807368830377 522.5386232095935 815.4807368830377 477.4360724467637
s 11.035730505798783 -12.954987985068138 23.99071849086692 -12.954987985068138
S 863.4621738647716 432.3335216839339 863.4621738647716 477.4360724467637
z" fill="none" stroke="none" style="animation-play-state:paused" ></path>


<use xlink:href="#path-3mgp6lr1v7h-1" x="0" y="0" stroke="#5f1471" transform="translate(862.9655151367188 490.9115295410156)" style="animation-play-state:paused" ></use>
<path id="path67" d="M 868.0799739985267 43.37460750958125
c 0 27.653933787727375 -6.766388054443932 7.943151194347225 -14.709539248791156 7.943151194347225
S 838.6608955009443 71.02854129730864 838.6608955009443 43.37460750958125
s 6.766388054443932 -7.943151194347225 14.709539248791156 -7.943151194347225
S 868.0799739985267 15.720673721853878 868.0799739985267 43.37460750958125
z" fill="none" stroke="none" style="animation-play-state:paused" ></path>


<use xlink:href="#path-3mgp6lr1v7h-3" x="0" y="0" stroke="#ffffff" transform="translate(867.7640991210938 51.754608154296875)" style="animation-play-state:paused" ></use>
<path id="path68" d="M 890.9631314061028 81.99969748588491
c 0 45.77210391100099 -11.199557339925773 13.147306442521561 -24.346863782447336 13.147306442521561
S 842.269403841208 127.7718013968859 842.269403841208 81.99969748588491
s 11.199557339925773 -13.147306442521561 24.346863782447336 -13.147306442521561
S 890.9631314061028 36.22759357488392 890.9631314061028 81.99969748588491
z" fill="none" stroke="none" style="animation-play-state:paused" ></path>


<use xlink:href="#path-3mgp6lr1v7h-1" x="0" y="0" stroke="#5f1471" transform="translate(890.1612548828125 98.25897216796875)" style="animation-play-state:paused" ></use>
<path id="path69" d="M 895.9026746171751 224.8619503640961
c 0 24.114818465550446 -5.9004343054006405 6.926596793296405 -12.827031098697045 6.926596793296405
S 870.248612419781 248.97676882964655 870.248612419781 224.8619503640961
s 5.9004343054006405 -6.926596793296405 12.827031098697045 -6.926596793296405
S 895.9026746171751 200.74713189854563 895.9026746171751 224.8619503640961
z" fill="none" stroke="none" style="animation-play-state:paused" ></path>


<use xlink:href="#path-3mgp6lr1v7h-2" x="0" y="0" stroke="#ffffff" transform="translate(886.8316040039062 233.21600341796875)" style="animation-play-state:paused" ></use>
<path id="path70" d="M 933.9614664568536 418.48892897973974
c 0 65.22029251878983 -15.958156680129425 18.733488276673675 -34.6916449568031 18.733488276673675
S 864.5781765432474 483.7092214985296 864.5781765432474 418.48892897973974
s 15.958156680129425 -18.733488276673675 34.6916449568031 -18.733488276673675
S 933.9614664568536 353.2686364609499 933.9614664568536 418.48892897973974
z" fill="none" stroke="none" style="animation-play-state:paused" ></path>


<use xlink:href="#path-3mgp6lr1v7h-2" x="0" y="0" stroke="#5f1471" transform="translate(908.7279052734375 440.6119689941406)" style="animation-play-state:paused" ></use>
<path id="path71" d="M 936.9694107826886 252.98355144038655
c 0 58.0566021939054 -14.205338834678978 16.675832545057933 -30.881171379736912 16.675832545057933
S 875.2070680232148 311.0401536342919 875.2070680232148 252.98355144038655
s 14.205338834678978 -16.675832545057933 30.881171379736912 -16.675832545057933
S 936.9694107826886 194.92694924648114 936.9694107826886 252.98355144038655
z" fill="none" stroke="none" style="animation-play-state:paused" ></path>


<use xlink:href="#path-3mgp6lr1v7h-2" x="0" y="0" stroke="#ffffff" transform="translate(894.524169921875 274.9801330566406)" style="animation-play-state:paused" ></use>
<path id="path72" d="M 949.2730211772155 184.49783536527616
c 0 61.33332699446348 -15.007090647581489 17.617019455856532 -32.62411010343802 17.617019455856532
S 884.0248009703394 245.83116235973964 884.0248009703394 184.49783536527616
s 15.007090647581489 -17.617019455856532 32.62411010343802 -17.617019455856532
S 949.2730211772155 123.16450837081268 949.2730211772155 184.49783536527616
z" fill="none" stroke="none" style="animation-play-state:paused" ></path>


<use xlink:href="#path-3mgp6lr1v7h-3" x="0" y="0" stroke="#5f1471" transform="translate(943.4464721679688 217.0750732421875)" style="animation-play-state:paused" ></use>
<path id="path73" d="M 950.7132010310934 238.2914587628457
c 0 47.33618294603932 -11.582257529350047 13.596563186628316 -25.17882071597836 13.596563186628316
S 900.3555595991365 285.62764170888505 900.3555595991365 238.2914587628457
s 11.582257529350047 -13.596563186628316 25.17882071597836 -13.596563186628316
S 950.7132010310934 190.9552758168064 950.7132010310934 238.2914587628457
z" fill="none" stroke="none" style="animation-play-state:paused" ></path>


<use xlink:href="#path-3mgp6lr1v7h-2" x="0" y="0" stroke="#ffffff" transform="translate(950.4697265625 248.64297485351562)" style="animation-play-state:paused" ></use>
<path id="path74" d="M 973.2926529574496 448.12849645504167
c 0 47.83542803958558 -11.704413243728386 13.739963373072454 -25.444376616800838 13.739963373072454
S 922.403899723848 495.96392449462724 922.403899723848 448.12849645504167
s 11.704413243728386 -13.739963373072454 25.444376616800838 -13.739963373072454
S 973.2926529574496 400.2930684154561 973.2926529574496 448.12849645504167
z" fill="none" stroke="none" style="animation-play-state:paused" ></path>


<use xlink:href="#path-3mgp6lr1v7h-1" x="0" y="0" stroke="#5f1471" transform="translate(973.0407104492188 458.6959228515625)" style="animation-play-state:paused" ></use>
<path id="path75" d="M 993.0577308701744 47.92826851701636
c 0 60.76286873023041 -14.867510433992544 17.45316442251299 -32.32067485650553 17.45316442251299
S 928.4163811571633 108.69113724724677 928.4163811571633 47.92826851701636
s 14.867510433992544 -17.45316442251299 32.32067485650553 -17.45316442251299
S 993.0577308701744 -12.834600213214046 993.0577308701744 47.92826851701636
z" fill="none" stroke="none" style="animation-play-state:paused" ></path>


<use xlink:href="#path-3mgp6lr1v7h-2" x="0" y="0" stroke="#5f1471" transform="translate(963.97705078125 65.8532485961914)" style="animation-play-state:paused" ></use>
<path id="path76" d="M 979.5479860805957 413.25433648684776
c 0 33.316205338000536 -8.15183747631928 9.569548341766112 -17.72138581808539 9.569548341766112
S 944.1052144444249 446.5705418248483 944.1052144444249 413.25433648684776
s 8.15183747631928 -9.569548341766112 17.72138581808539 -9.569548341766112
S 979.5479860805957 379.9381311488472 979.5479860805957 413.25433648684776
z" fill="none" stroke="none" style="animation-play-state:paused" ></path>


<use xlink:href="#path-3mgp6lr1v7h-2" x="0" y="0" stroke="#5f1471" transform="translate(954.96923828125 426.0553283691406)" style="animation-play-state:paused" ></use>
<path id="path77" d="M 1010.3084857962388 480.105091586457
c 0 55.830131192896424 -13.660564015283166 16.036314278810675 -29.696878294093842 16.036314278810675
S 950.9147292080511 535.9352227793534 950.9147292080511 480.105091586457
s 13.660564015283166 -16.036314278810675 29.696878294093842 -16.036314278810675
S 1010.3084857962388 424.27496039356055 1010.3084857962388 480.105091586457
z" fill="none" stroke="none" style="animation-play-state:paused" ></path>


<use xlink:href="#path-3mgp6lr1v7h-1" x="0" y="0" stroke="#ffffff" transform="translate(1009.785888671875 495.7508239746094)" style="animation-play-state:paused" ></use>
<path id="path78" d="M 1001.0545023888216 460.5276926545713
c 0 24.9413609460023 -6.102673422958009 7.164007931298533 -13.266681354256542 7.164007931298533
S 974.5211396803085 485.4690536005736 974.5211396803085 460.5276926545713
s 6.102673422958009 -7.164007931298533 13.266681354256542 -7.164007931298533
S 1001.0545023888216 435.586331708569 1001.0545023888216 460.5276926545713
z" fill="none" stroke="none" style="animation-play-state:paused" ></path>


<use xlink:href="#path-3mgp6lr1v7h-2" x="0" y="0" stroke="#5f1471" transform="translate(1000.9567260742188 465.3761291503906)" style="animation-play-state:paused" ></use>
<path id="path79" d="M 1024.3292105119926 514.3254581240025
c 0 40.52239534734206 -9.915054180732632 11.6394114295557 -21.554465610288332 11.6394114295557
S 981.2202792914161 554.8478534713445 981.2202792914161 514.3254581240025
s 9.915054180732632 -11.6394114295557 21.554465610288332 -11.6394114295557
S 1024.3292105119926 473.8030627766604 1024.3292105119926 514.3254581240025
z" fill="none" stroke="none" style="animation-play-state:paused" ></path>


<use xlink:href="#path-3mgp6lr1v7h-2" x="0" y="0" stroke="#ffffff" transform="translate(992.9760131835938 531.1180419921875)" style="animation-play-state:paused" ></use>
<path id="path80" d="M 1030.6755920005203 309.271845528981
c 0 36.586855676445815 -8.952102984662272 10.508990460255713 -19.461093444917985 10.508990460255713
S 991.7534051106844 345.85870120542677 991.7534051106844 309.271845528981
s 8.952102984662272 -10.508990460255713 19.461093444917985 -10.508990460255713
S 1030.6755920005203 272.6849898525352 1030.6755920005203 309.271845528981
z" fill="none" stroke="none" style="animation-play-state:paused" ></path>


<use xlink:href="#path-3mgp6lr1v7h-1" x="0" y="0" stroke="#5f1471" transform="translate(1019.7930297851562 324.2035827636719)" style="animation-play-state:paused" ></use>
<path id="path81" d="M 1057.9145320276243 60.09598272238679
c 0 57.0602114587081 -13.96154110159879 16.389635206224668 -30.351176307823458 16.389635206224668
S 997.2121794119774 117.15619418109489 997.2121794119774 60.09598272238679
s 13.96154110159879 -16.389635206224668 30.351176307823458 -16.389635206224668
S 1057.9145320276243 3.03577126367869 1057.9145320276243 60.09598272238679
z" fill="none" stroke="none" style="animation-play-state:paused" ></path>


<use xlink:href="#path-3mgp6lr1v7h-3" x="0" y="0" stroke="#ffffff" transform="translate(1022.431640625 77.69865417480469)" style="animation-play-state:paused" ></use>
<path id="path82" d="M 1063.2661944328795 566.8797494206331
c 0 39.236429504055316 -9.600402963758215 11.270038261803123 -20.870441225561336 11.270038261803123
S 1021.5253119817569 606.1161789246884 1021.5253119817569 566.8797494206331
s 9.600402963758215 -11.270038261803123 20.870441225561336 -11.270038261803123
S 1063.2661944328795 527.6433199165778 1063.2661944328795 566.8797494206331
z" fill="none" stroke="none" style="animation-play-state:paused" ></path>


<use xlink:href="#path-3mgp6lr1v7h-2" x="0" y="0" stroke="#5f1471" transform="translate(1051.1546630859375 582.5196533203125)" style="animation-play-state:paused" ></use>
<path id="path83" d="M 1080.6272099537327 189.24613408651982
c 0 51.68219043008645 -12.64564233927647 14.844884485237598 -27.490526824514067 14.844884485237598
S 1025.6461563047046 240.92832451660627 1025.6461563047046 189.24613408651982
s 12.64564233927647 -14.844884485237598 27.490526824514067 -14.844884485237598
S 1080.6272099537327 137.56394365643337 1080.6272099537327 189.24613408651982
z" fill="none" stroke="none" style="animation-play-state:paused" ></path>


<use xlink:href="#path-3mgp6lr1v7h-3" x="0" y="0" stroke="#5f1471" transform="translate(1079.57373046875 208.59690856933594)" style="animation-play-state:paused" ></use>
<path id="path84" d="M 1090.1037481044414 210.3188147152738
c 0 60.22475824810194 -14.735845103258985 17.298600773390984 -32.03444587664997 17.298600773390984
S 1026.0348563511416 270.5435729633757 1026.0348563511416 210.3188147152738
s 14.735845103258985 -17.298600773390984 32.03444587664997 -17.298600773390984
S 1090.1037481044414 150.09405646717184 1090.1037481044414 210.3188147152738
z" fill="none" stroke="none" style="animation-play-state:paused" ></path>


<use xlink:href="#path-3mgp6lr1v7h-3" x="0" y="0" stroke="#5f1471" transform="translate(1081.1060791015625 241.82568359375)" style="animation-play-state:paused" ></use>
<path id="path85" d="M 1102.1239646581546 516.4063186019833
c 0 50.61467835330984 -12.384442575809855 14.5382586759507 -26.922701251760554 14.5382586759507
S 1048.2785621546334 567.0209969552932 1048.2785621546334 516.4063186019833
s 12.384442575809855 -14.5382586759507 26.922701251760554 -14.5382586759507
S 1102.1239646581546 465.7916402486735 1102.1239646581546 516.4063186019833
z" fill="none" stroke="none" style="animation-play-state:paused" ></path>


<use xlink:href="#path-3mgp6lr1v7h-3" x="0" y="0" stroke="#ffffff" transform="translate(1101.9053955078125 526.6729736328125)" style="animation-play-state:paused" ></use>
<path id="path86" d="M 1116.152473599576 110.17849979457597
c 0 33.68854140689228 -8.24294098253747 9.67649593602225 -17.91943691855972 9.67649593602225
S 1080.3135997624565 143.86704120146825 1080.3135997624565 110.17849979457597
s 8.24294098253747 -9.67649593602225 17.91943691855972 -9.67649593602225
S 1116.152473599576 76.48995838768369 1116.152473599576 110.17849979457597
z" fill="none" stroke="none" style="animation-play-state:paused" ></path>


<use xlink:href="#path-3mgp6lr1v7h-2" x="0" y="0" stroke="#5f1471" transform="translate(1099.9056396484375 120.08267211914062)" style="animation-play-state:paused" ></use>
<path id="path87" d="M 1140.9268862583774 328.0898737401279
c 0 63.896739107287075 -15.634308504974495 18.35331867975267 -33.98762718472717 18.35331867975267
S 1072.951631888923 391.986612847415 1072.951631888923 328.0898737401279
s 15.634308504974495 -18.35331867975267 33.98762718472717 -18.35331867975267
S 1140.9268862583774 264.19313463284084 1140.9268862583774 328.0898737401279
z" fill="none" stroke="none" style="animation-play-state:paused" ></path>


<use xlink:href="#path-3mgp6lr1v7h-1" x="0" y="0" stroke="#5f1471" transform="translate(1079.358154296875 362.11260986328125)" style="animation-play-state:paused" ></use>
<path id="path88" d="M 1139.2607788747803 352.1040554670223
c 0 28.447799151172255 -6.960631707201721 8.171176351932456 -15.131808059134178 8.171176351932456
S 1108.9971627565121 380.55185461819457 1108.9971627565121 352.1040554670223
s 6.960631707201721 -8.171176351932456 15.131808059134178 -8.171176351932456
S 1139.2607788747803 323.65625631585004 1139.2607788747803 352.1040554670223
z" fill="none" stroke="none" style="animation-play-state:paused" ></path>


<use xlink:href="#path-3mgp6lr1v7h-3" x="0" y="0" stroke="#5f1471" transform="translate(1139.177734375 356.959716796875)" style="animation-play-state:paused" ></use>
<path id="path89" d="M 1144.6983185519991 384.6880287166882
c 0 39.74210238308781 -9.724131434159782 11.415284727057138 -21.13941616121692 11.415284727057138
S 1102.419486229565 424.430131099776 1102.419486229565 384.6880287166882
s 9.724131434159782 -11.415284727057138 21.13941616121692 -11.415284727057138
S 1144.6983185519991 344.9459263336004 1144.6983185519991 384.6880287166882
z" fill="none" stroke="none" style="animation-play-state:paused" ></path>


<use xlink:href="#path-3mgp6lr1v7h-1" x="0" y="0" stroke="#ffffff" transform="translate(1115.8135986328125 399.6100158691406)" style="animation-play-state:paused" ></use>
<path id="path90" d="M 1174.7132183157523 238.9310036172116
c 0 56.91915097861589 -13.927026303278355 16.349117834283287 -30.276144137561644 16.349117834283287
S 1114.160930040629 295.85015459582746 1114.160930040629 238.9310036172116
s 13.927026303278355 -16.349117834283287 30.276144137561644 -16.349117834283287
S 1174.7132183157523 182.0118526385957 1174.7132183157523 238.9310036172116
z" fill="none" stroke="none" style="animation-play-state:paused" ></path>


<use xlink:href="#path-3mgp6lr1v7h-1" x="0" y="0" stroke="#5f1471" transform="translate(1146.8243408203125 255.55673217773438)" style="animation-play-state:paused" ></use>
<path id="path91" d="M 1180.7109193669774 382.02458999738604
c 0 43.9074908634412 -10.743322232544122 12.611726099073534 -23.355048331617656 12.611726099073534
S 1134.0008227037422 425.9320808608272 1134.0008227037422 382.02458999738604
s 10.743322232544122 -12.611726099073534 23.355048331617656 -12.611726099073534
S 1180.7109193669774 338.11709913394486 1180.7109193669774 382.02458999738604
z" fill="none" stroke="none" style="animation-play-state:paused" ></path>


<use xlink:href="#path-3mgp6lr1v7h-1" x="0" y="0" stroke="#5f1471" transform="translate(1156.8402099609375 394.6536560058594)" style="animation-play-state:paused" ></use>
<path id="path92" d="M 1174.2248374169087 331.822927430347
c 0 19.664526775556155 -4.811533147210548 5.64832152063847 -10.459854667849019 5.64832152063847
S 1153.3051280812108 351.4874542059032 1153.3051280812108 331.822927430347
s 4.811533147210548 -5.64832152063847 10.459854667849019 -5.64832152063847
S 1174.2248374169087 312.15840065479085 1174.2248374169087 331.822927430347
z" fill="none" stroke="none" style="animation-play-state:paused" ></path>


<use xlink:href="#path-3mgp6lr1v7h-3" x="0" y="0" stroke="#5f1471" transform="translate(1173.5205078125 340.58953857421875)" style="animation-play-state:paused" ></use>
<path id="path93" d="M 1210.187951379338 260.4605340476914
c 0 53.145506725206474 -13.003687815742008 15.26519874021888 -28.26888655596089 15.26519874021888
S 1153.650178267416 313.60604077289787 1153.650178267416 260.4605340476914
s 13.003687815742008 -15.26519874021888 28.26888655596089 -15.26519874021888
S 1210.187951379338 207.31502732248492 1210.187951379338 260.4605340476914
z" fill="none" stroke="none" style="animation-play-state:paused" ></path>


<use xlink:href="#path-3mgp6lr1v7h-3" x="0" y="0" stroke="#5f1471" transform="translate(1204.671630859375 288.7882385253906)" style="animation-play-state:paused" ></use>
<path id="path94" d="M 1213.793845076824 529.6047375388601
c 0 59.90655082638887 -14.657985840499403 17.20720076928191 -31.86518660978131 17.20720076928191
S 1150.0634718572612 589.511288365249 1150.0634718572612 529.6047375388601
s 14.657985840499403 -17.20720076928191 31.86518660978131 -17.20720076928191
S 1213.793845076824 469.6981867124713 1213.793845076824 529.6047375388601
z" fill="none" stroke="none" style="animation-play-state:paused" ></path>


<use xlink:href="#path-3mgp6lr1v7h-1" x="0" y="0" stroke="#ffffff" transform="translate(1201.912353515625 559.0695190429688)" style="animation-play-state:paused" ></use>
<path id="path95" d="M 1216.2865702057263 255.02662096650974
c 0 22.583741085438092 -5.52580898899017 6.486819247944984 -12.012628236935154 6.486819247944984
S 1192.261313731856 277.61036205194785 1192.261313731856 255.02662096650974
s 5.52580898899017 -6.486819247944984 12.012628236935154 -6.486819247944984
S 1216.2865702057263 232.44287988107163 1216.2865702057263 255.02662096650974
z" fill="none" stroke="none" style="animation-play-state:paused" ></path>


<use xlink:href="#path-3mgp6lr1v7h-2" x="0" y="0" stroke="#5f1471" transform="translate(1216.1346435546875 260.5595703125)" style="animation-play-state:paused" ></use>
<path id="path96" d="M 1235.6137276232969 28.955379369447904
c 0 40.570788730711264 -9.926895114961265 11.653311656693662 -21.580206771654925 11.653311656693662
S 1192.453314079987 69.52616810015917 1192.453314079987 28.955379369447904
s 9.926895114961265 -11.653311656693662 21.580206771654925 -11.653311656693662
S 1235.6137276232969 -11.61540936126336 1235.6137276232969 28.955379369447904
z" fill="none" stroke="none" style="animation-play-state:paused" ></path>


<use xlink:href="#path-3mgp6lr1v7h-3" x="0" y="0" stroke="#ffffff" transform="translate(1222.273681640625 44.454471588134766)" style="animation-play-state:paused" ></use>
<path id="path97" d="M 1253.7224351259745 464.25181358302154
c 0 34.779919558806206 -8.509980317580242 9.98997689455072 -18.499957212130962 9.98997689455072
S 1216.7225207017125 499.0317331418278 1216.7225207017125 464.25181358302154
s 8.509980317580242 -9.98997689455072 18.499957212130962 -9.98997689455072
S 1253.7224351259745 429.4718940242153 1253.7224351259745 464.25181358302154
z" fill="none" stroke="none" style="animation-play-state:paused" ></path>


<use xlink:href="#path-3mgp6lr1v7h-3" x="0" y="0" stroke="#5f1471" transform="translate(1240.6678466796875 476.32000732421875)" style="animation-play-state:paused" ></use>
<path id="path98" d="M 1254.1768434242179 343.1766637031427
c 0 25.77729887571019 -6.3072114270354716 7.404117762172077 -13.711329189207548 7.404117762172077
S 1226.7541850458026 368.9539625788529 1226.7541850458026 343.1766637031427
s 6.3072114270354716 -7.404117762172077 13.711329189207548 -7.404117762172077
S 1254.1768434242179 317.3993648274325 1254.1768434242179 343.1766637031427
z" fill="none" stroke="none" style="animation-play-state:paused" ></path>


<use xlink:href="#path-3mgp6lr1v7h-1" x="0" y="0" stroke="#5f1471" transform="translate(1230.6734619140625 356.6289367675781)" style="animation-play-state:paused" ></use>
<path id="path99" d="M 1279.1902835980654 431.2938450812497
c 0 41.18508772114142 -10.077202314747367 11.82975923905126 -21.906961553798627 11.82975923905126
S 1235.376360490468 472.4789328023911 1235.376360490468 431.2938450812497
s 10.077202314747367 -11.82975923905126 21.906961553798627 -11.82975923905126
S 1279.1902835980654 390.10875736010826 1279.1902835980654 431.2938450812497
z" fill="none" stroke="none" style="animation-play-state:paused" ></path>


<use xlink:href="#path-3mgp6lr1v7h-1" x="0" y="0" stroke="#ffffff" transform="translate(1271.97509765625 452.2305603027344)" style="animation-play-state:paused" ></use></g></svg>